<svg width="305" height="263" viewBox="0 0 305 263" fill="none" xmlns="http://www.w3.org/2000/svg">
  <g clip-path="url(#a)" fill="#fff">
    <path d="M250.59 247a6.2 6.2 0 1 1 .02-12.39 6.2 6.2 0 0 1-.02 12.4Zm0-9.3a3.14 3.14 0 0 0-3.14 3.11 3.13 3.13 0 1 0 3.13-3.12Z"/>
    <path d="M282.5 263h-58.58c-12.39 0-22.5-10.84-22.5-24.14V115.59c0-13.32 10.09-24.14 22.5-24.14h58.59c12.39 0 22.49 10.84 22.49 24.14v123.27c0 13.32-10.08 24.14-22.5 24.14Zm-58.58-162.24c-7.26 0-13.17 6.64-13.17 14.83v123.27c0 8.17 5.9 14.83 13.17 14.83h58.59c7.26 0 13.17-6.64 13.17-14.83V115.59c0-8.17-5.9-14.83-13.17-14.83h-58.59Z"/>
    <path d="M283.88 231.67h-61.36a4.66 4.66 0 0 1-4.66-4.67V120.7a4.66 4.66 0 0 1 4.66-4.66h61.36a4.66 4.66 0 0 1 4.66 4.66V227a4.66 4.66 0 0 1-4.66 4.67Zm-56.7-9.34h52.04v-96.96h-52.04v96.99-.03ZM165.2 239.33H26a4.66 4.66 0 0 1-4.66-4.67V27.68a4.66 4.66 0 0 1 4.66-4.66h139.2a4.66 4.66 0 0 1 4.66 4.66v206.98a4.66 4.66 0 0 1-4.66 4.67h.02Zm-134.55-9.34h129.9V32.35H30.65v197.66-.02Z"/>
    <path d="M174.78 262.34H16.41A16.46 16.46 0 0 1 0 245.9V16.44C0 7.38 7.37 0 16.41 0h158.35c9.05 0 16.42 7.38 16.42 16.44v229.44c0 9.06-7.38 16.44-16.42 16.44l.02.02ZM9.3 112.43V245.9c0 3.93 3.2 7.13 7.11 7.13h158.35c3.92 0 7.12-3.2 7.12-7.13V16.44c0-3.92-3.2-7.13-7.12-7.13H16.41a7.14 7.14 0 0 0-7.11 7.13v95.99Z"/>
    <path d="M102.45 49.36h-54.8v9.34h54.8v-9.34ZM145.79 49.36h-29.64v9.34h29.64v-9.34ZM102.45 71.7h-54.8v9.33h54.8V71.7ZM145.79 71.7h-29.64v9.33h29.64V71.7ZM268.04 136.55h-29.63v9.33h29.63v-9.33ZM268.04 158.89h-29.63v9.33h29.63v-9.33ZM145.79 182.9h-29.64v9.33h29.64v-9.33ZM145.79 205.24h-29.64v9.33h29.64v-9.33ZM145.79 168.22H47.66a4.66 4.66 0 0 1-4.66-4.67V98.83a4.66 4.66 0 0 1 4.66-4.66h98.13a4.66 4.66 0 0 1 4.66 4.66v64.72a4.66 4.66 0 0 1-4.66 4.67Zm-93.47-9.33h88.8v-55.41h-88.8v55.4ZM66.55 222.61a23.58 23.58 0 0 1 0-47.16 23.58 23.58 0 0 1 0 47.16Zm0-37.82a14.25 14.25 0 0 0 0 28.5 14.25 14.25 0 0 0 0-28.5Z"/>
    <path d="M127.38 120.66a4.66 4.66 0 0 1-3.28-7.95l83.51-83.65a4.67 4.67 0 0 1 6.59 6.6l-83.52 83.64a4.61 4.61 0 0 1-3.28 1.36h-.02ZM268.02 212.17h-29.63a4.66 4.66 0 0 1-4.66-4.66v-23.7a4.66 4.66 0 0 1 4.66-4.66h29.63a4.66 4.66 0 0 1 4.66 4.66v23.7a4.66 4.66 0 0 1-4.66 4.66Zm-24.95-9.3h20.31V188.5h-20.31v14.36Z"/>
    <path d="M257.87 191.04a4.63 4.63 0 0 1-4.61 4.63c-2.55 0-4.7-2.1-4.7-4.71V72.26h9.31v118.78Z"/>
    <path d="M291 77.45h-77.8a4.66 4.66 0 0 1-4.66-4.67V4.67A4.66 4.66 0 0 1 213.2 0h39.48a4.66 4.66 0 0 1 4.66 4.67v23.01h-9.32V9.33h-30.18v58.8h68.5V9.34h-18.32V0H291a4.66 4.66 0 0 1 4.66 4.67v68.11a4.66 4.66 0 0 1-4.66 4.67Z"/>
    <path d="M252.11 57.68a18.97 18.97 0 0 1 0-37.93 18.97 18.97 0 0 1 0 37.93Zm0-28.6a9.63 9.63 0 0 0 0 19.26c5.3 0 9.62-4.32 9.62-9.63 0-5.3-4.32-9.63-9.62-9.63Z"/>
  </g>
  <defs>
    <clipPath id="a">
      <path fill="#fff" d="M0 0h305v263H0z"/>
    </clipPath>
  </defs>
</svg>