<svg width="305" height="373" viewBox="0 0 305 373" fill="none" xmlns="http://www.w3.org/2000/svg">
  <g clip-path="url(#a)" fill="#fff">
    <path d="M220.7 315.68H68.1a5.61 5.61 0 0 1-5.62-5.62v-152.7c0-3.1 2.51-5.62 5.62-5.62H220.7c3.1 0 5.61 2.51 5.61 5.62v152.7c0 3.1-2.5 5.62-5.61 5.62Zm-147-11.25H215.1V162.99H73.7v141.46Z"/>
    <path d="M223 344.77H65.79a32.43 32.43 0 0 1-32.38-32.4V155.04a32.32 32.32 0 0 1 14.47-26.99 5.63 5.63 0 0 1 6.21 9.38 21.13 21.13 0 0 0-9.45 17.64v157.3a21.18 21.18 0 0 0 21.15 21.17h157.23a21.18 21.18 0 0 0 21.15-21.16V155.08c0-7.7-4.2-14.79-10.92-18.52a5.62 5.62 0 0 1 5.43-9.84 32.47 32.47 0 0 1 16.73 28.36v157.3A32.43 32.43 0 0 1 223 344.8v-.02Z"/>
    <path d="M167.94 281.38h-47.81a20.35 20.35 0 0 1-20.33-20.33 5.61 5.61 0 1 1 11.24 0 9.1 9.1 0 0 0 9.09 9.09h47.81a9.1 9.1 0 0 0 9.09-9.1 5.61 5.61 0 1 1 11.24 0 20.35 20.35 0 0 1-20.33 20.34ZM105.42 216.88c-8.5 0-15.4-6.91-15.4-15.4 0-8.5 6.9-15.42 15.4-15.42s15.4 6.92 15.4 15.41c0 8.5-6.9 15.41-15.4 15.41Zm0-19.58a4.17 4.17 0 1 0 0 8.34 4.17 4.17 0 0 0 0-8.34ZM182.65 216.88c-8.5 0-15.4-6.91-15.4-15.4 0-8.5 6.9-15.42 15.4-15.42 8.49 0 15.4 6.92 15.4 15.41 0 8.5-6.91 15.41-15.4 15.41Zm0-19.58a4.17 4.17 0 1 0 0 8.33 4.17 4.17 0 0 0 0-8.33ZM277.97 176.09h-28.22a5.61 5.61 0 1 1 0-11.25h28.22a5.62 5.62 0 1 1 0 11.25ZM277.97 218.26h-28.22a5.61 5.61 0 1 1 0-11.25h28.22a5.61 5.61 0 1 1 0 11.25ZM277.97 260.43h-28.22a5.61 5.61 0 1 1 0-11.25h28.22a5.61 5.61 0 1 1 0 11.25ZM277.97 302.6h-28.22a5.61 5.61 0 1 1 0-11.25h28.22a5.62 5.62 0 1 1 0 11.25ZM39.01 176.09H10.8a5.61 5.61 0 1 1 0-11.25H39a5.61 5.61 0 1 1 0 11.25ZM39.01 218.26H10.8a5.61 5.61 0 1 1 0-11.25H39a5.61 5.61 0 1 1 0 11.25ZM39.01 260.43H10.8a5.61 5.61 0 1 1 0-11.25H39a5.61 5.61 0 1 1 0 11.25ZM39.01 302.6H10.8a5.61 5.61 0 1 1 0-11.25H39a5.61 5.61 0 1 1 0 11.25ZM209.42 373a5.62 5.62 0 0 1-5.62-5.62v-28.24a5.62 5.62 0 1 1 11.23 0v28.24c0 3.1-2.5 5.62-5.61 5.62ZM167.27 373a5.61 5.61 0 0 1-5.62-5.62v-28.24a5.61 5.61 0 1 1 11.24 0v28.24c0 3.1-2.51 5.62-5.62 5.62ZM125.12 373a5.62 5.62 0 0 1-5.62-5.62v-28.24a5.62 5.62 0 1 1 11.24 0v28.24c0 3.1-2.51 5.62-5.62 5.62ZM82.97 373a5.61 5.61 0 0 1-5.61-5.62v-28.24a5.61 5.61 0 1 1 11.23 0v28.24c0 3.1-2.5 5.62-5.62 5.62ZM279.7 100.58a5.61 5.61 0 0 1-5.61-5.62V45.61a5.61 5.61 0 1 1 11.23 0v49.35c0 3.1-2.5 5.62-5.61 5.62Z"/>
    <path d="M142.88 93.87c-.57 0-1.11-.08-1.66-.26L3.97 50.98A5.67 5.67 0 0 1 0 45.56a5.55 5.55 0 0 1 4.04-5.33l136.82-40a5.46 5.46 0 0 1 3.16 0L281.3 40.2a5.63 5.63 0 0 1 .1 10.75L144.57 93.61a5.3 5.3 0 0 1-1.69.26Zm-117.8-48.1 117.8 36.6 117.36-36.6-117.8-34.3L25.1 45.77Z"/>
    <path d="M142.65 144.12a5.62 5.62 0 0 1-1.47-11.06l96.38-26.47V60.28a5.61 5.61 0 1 1 11.23 0v50.61a5.6 5.6 0 0 1-4.14 5.41l-100.53 27.62c-.49.13-1 .2-1.5.2h.03Z"/>
    <path d="M142.68 144.12a6.2 6.2 0 0 1-1.53-.2L42.64 116.3a5.6 5.6 0 0 1-4.1-5.41V60.28a5.61 5.61 0 1 1 11.24 0v46.34l87.28 24.45V87.89a5.61 5.61 0 1 1 11.23 0v50.61a5.63 5.63 0 0 1-5.61 5.62ZM279.7 139.93a25.32 25.32 0 0 1 0-50.62 25.32 25.32 0 0 1 0 50.62Zm0-39.35a14.08 14.08 0 0 0 0 28.13 14.06 14.06 0 0 0 0-28.13Z"/>
  </g>
  <defs>
    <clipPath id="a">
      <path fill="#fff" d="M0 0h305v373H0z"/>
    </clipPath>
  </defs>
</svg>