<svg width="308" height="246" viewBox="0 0 308 246" fill="none" xmlns="http://www.w3.org/2000/svg">
  <g clip-path="url(#a)" fill="#fff">
    <path d="M64.08 77.76c-.75 0-1.52-.2-2.18-.58L2.18 42.68A4.43 4.43 0 0 1 0 38.87c0-1.57.83-3.02 2.18-3.8L61.9.58a4.45 4.45 0 0 1 4.38 0L126 35.08a4.4 4.4 0 0 1 0 7.59l-59.72 34.5c-.68.38-1.43.57-2.18.57l-.02.03Zm-50.95-38.9L64.1 68.33l50.97-29.45L64.08 9.44 13.13 38.87Z"/>
    <path d="M64.08 187.04c-.75 0-1.52-.2-2.18-.58l-59.72-34.5a4.37 4.37 0 0 1-2.18-3.8V38.87a4.37 4.37 0 0 1 6.57-3.78l59.71 34.5a4.4 4.4 0 0 1 2.19 3.79v109.28A4.37 4.37 0 0 1 64.1 187l-.02.03ZM8.75 145.62l50.97 29.45V75.9L8.75 46.46v99.18-.02Z"/>
    <path d="M64.08 187.04a4.37 4.37 0 0 1-4.36-4.37V73.39c0-1.56.83-3.02 2.18-3.79l59.72-34.5a4.4 4.4 0 0 1 4.36 0 4.4 4.4 0 0 1 2.18 3.79v9.1a4.37 4.37 0 1 1-8.75 0v-1.5L68.44 75.94v99.18l4.69-2.7a4.37 4.37 0 1 1 4.36 7.58l-11.25 6.48c-.68.39-1.43.58-2.18.58l.02-.02ZM243.92 77.76c-.75 0-1.52-.2-2.18-.58l-59.72-34.5a4.4 4.4 0 0 1 0-7.58L241.72.58a4.45 4.45 0 0 1 4.38 0l59.72 34.5a4.4 4.4 0 0 1 0 7.58l-59.72 34.5c-.68.38-1.43.57-2.18.57v.03Zm-50.97-38.9 50.97 29.46 50.97-29.45-50.97-29.45-50.97 29.45Z"/>
    <path d="M243.92 187.04a4.37 4.37 0 0 1-4.36-4.37V73.39c0-1.56.83-3.02 2.18-3.79l59.71-34.5a4.45 4.45 0 0 1 4.39 0 4.4 4.4 0 0 1 2.18 3.79v109.28c0 1.56-.83 3.02-2.18 3.79l-59.72 34.5c-.68.38-1.43.58-2.18.58h-.02Zm4.36-111.15v99.18l50.97-29.45V46.46l-50.97 29.45v-.02Z"/>
    <path d="M243.92 187.04c-.75 0-1.52-.2-2.18-.58l-11.25-6.49a4.38 4.38 0 0 1 4.36-7.57l4.68 2.7V75.9l-50.97-29.45v1.5a4.39 4.39 0 0 1-4.36 4.39 4.4 4.4 0 0 1-4.38-4.39v-9.1a4.37 4.37 0 0 1 6.54-3.78l59.72 34.5a4.4 4.4 0 0 1 2.18 3.79v109.28a4.37 4.37 0 0 1-4.36 4.36l.02.03Z"/>
    <path d="M153.36 125.97c-.75 0-1.52-.19-2.18-.57L85.6 87.5a4.4 4.4 0 0 1 0-7.57l65.58-37.88a4.45 4.45 0 0 1 4.38 0l65.58 37.88a4.4 4.4 0 0 1 0 7.57l-65.58 37.89c-.68.38-1.43.57-2.18.57h-.02ZM96.5 83.72l56.83 32.83 56.83-32.83-56.83-32.84L96.5 83.71Z"/>
    <path d="M153.36 165.98c-.75 0-1.52-.2-2.18-.58L85.6 127.52a4.37 4.37 0 0 1-2.18-3.8v-40a4.37 4.37 0 0 1 6.54-3.78l65.58 37.88a4.4 4.4 0 0 1 2.18 3.79v40a4.37 4.37 0 0 1-4.36 4.37ZM92.14 121.2l56.83 32.83v-29.9L92.14 91.3v29.9Zm14.48-4.69c-.75 0-1.5-.19-2.18-.6l-4.15-2.4a4.36 4.36 0 0 1 4.37-7.57l4.15 2.4a4.36 4.36 0 0 1-2.19 8.15v.03Z"/>
    <path d="M153.36 206c-.75 0-1.52-.2-2.18-.58L85.6 167.54a4.4 4.4 0 0 1-2.18-3.79v-40a4.37 4.37 0 0 1 6.54-3.79l65.58 37.88a4.4 4.4 0 0 1 2.18 3.8v40a4.37 4.37 0 0 1-4.36 4.36Zm-61.22-44.8 56.83 32.84v-29.9L92.14 131.3v29.9Zm14.48-4.66c-.75 0-1.5-.2-2.18-.58l-4.15-2.4a4.36 4.36 0 0 1 4.37-7.57l4.15 2.4a4.36 4.36 0 0 1-2.19 8.15Z"/>
    <path d="M153.36 246c-.75 0-1.52-.2-2.18-.58L85.6 207.54a4.4 4.4 0 0 1-2.18-3.79v-40a4.37 4.37 0 0 1 6.54-3.79l65.58 37.88a4.37 4.37 0 0 1 2.18 3.8v40a4.37 4.37 0 0 1-4.36 4.36Zm-61.22-44.8 56.83 32.84v-29.9L92.14 171.3v29.9Zm14.48-4.66c-.75 0-1.5-.2-2.18-.58l-4.15-2.4a4.36 4.36 0 0 1 4.37-7.57l4.15 2.4a4.36 4.36 0 0 1-2.19 8.15ZM153.36 165.98a4.4 4.4 0 0 1-4.36-4.37v-40c0-1.56.83-3.02 2.18-3.79l65.57-37.88a4.4 4.4 0 0 1 6.57 3.79v40c0 1.56-.83 3.02-2.18 3.79l-65.58 37.88c-.68.38-1.43.58-2.18.58h-.02Zm4.36-41.85v29.9l56.83-32.83V91.3l-56.83 32.83Zm42.35-7.61a4.38 4.38 0 0 1-2.18-8.16l4.15-2.4a4.37 4.37 0 1 1 4.36 7.58l-4.15 2.4c-.68.4-1.43.6-2.18.6v-.03Z"/>
    <path d="M153.36 206a4.4 4.4 0 0 1-4.36-4.37v-40c0-1.56.83-3.02 2.18-3.79l65.57-37.88a4.45 4.45 0 0 1 4.39 0 4.4 4.4 0 0 1 2.18 3.79v40c0 1.56-.83 3.02-2.18 3.79l-65.58 37.88c-.68.39-1.43.58-2.18.58h-.02Zm4.36-41.86v29.9l56.83-32.84v-29.9l-56.83 32.84Zm42.35-7.6a4.38 4.38 0 0 1-2.18-8.16l4.15-2.4a4.35 4.35 0 0 1 6.55 3.8c0 1.51-.8 2.97-2.19 3.78l-4.15 2.4c-.68.4-1.43.58-2.18.58Z"/>
    <path d="M153.36 246a4.4 4.4 0 0 1-4.36-4.37v-40c0-1.56.83-3.01 2.18-3.79l65.57-37.88a4.37 4.37 0 0 1 6.57 3.79v40c0 1.56-.83 3.02-2.18 3.79l-65.58 37.88c-.68.39-1.43.58-2.18.58h-.02Zm4.36-41.86v29.9l56.83-32.83v-29.9l-56.83 32.83Zm42.37-7.6a4.38 4.38 0 0 1-2.18-8.16l4.15-2.4a4.37 4.37 0 1 1 4.36 7.58l-4.14 2.4c-.69.4-1.44.58-2.19.58Z"/>
  </g>
  <defs>
    <clipPath id="a">
      <path fill="#fff" d="M0 0h308v246H0z"/>
    </clipPath>
  </defs>
</svg>