<svg fill="none" xmlns="http://www.w3.org/2000/svg" viewBox="0 0 361 367">
  <g clip-path="url(#a)">
    <mask id="b" style="mask-type:alpha" maskUnits="userSpaceOnUse" x="0" y="-21" width="359" height="359">
      <circle cx="179.5" cy="158.5" r="179.5" fill="#fff"/>
    </mask>
    <g mask="url(#b)">
      <path fill-rule="evenodd" clip-rule="evenodd" d="M200.6 108.87c.53-4.67 0-9.07-1.6-14-2.27-6.94-4.67-11.34-4.67-8.4 0 .66-3.73 5.2-8.4 10-4.66 4.8-9.46 10.93-10.66 13.46-1.74 3.6-3.74 5.2-8.54 7.07-18.4 6.8-36.26 22.67-45.33 40.13-10.13 19.6-13.73 37.6-13.73 70.54 0 19.33-1.6 28.26-8.54 49.73l-4.66 14.53.8 33.2.66 33.2 9.34 28.27c8.4 26 10.53 30.4 13.33 27.73.4-.4-3.33-13.2-8.27-28.4l-8.93-27.6-.8-33.46c-.93-33.23-.8-33.6 2.46-43.13l.07-.2c7.87-23.34 8.8-28.54 9.87-59.2 1.33-33.07 3.33-43.87 11.47-60.4 8.8-17.87 29.46-36 46.13-40.4 5.47-1.47 6.53-2.27 8.27-7.2 1.2-2.94 5.06-8.4 8.66-11.87l6.67-6.54.93 3.6c.8 3.6.27 10.54-1.46 16.4-.8 2.54-.14 3.07 4.8 4.54 3.33 1.06 8.26 4.26 12 7.86 6.8 6.54 42.53 60.67 42.53 64.54 0 6.13-7.33 14-14.53 15.86-4.4 1.07-6.8-1.06-6.8-6.26 0-11.47-1.2-13.74-11.47-22.14-9.07-7.6-12.67-8.93-12.4-4.93 0 .93 3.87 4.8 8.53 8.67 6.94 5.86 8.8 8.13 9.34 12 .4 2.8 1.06 6.8 1.46 9.2.94 5.86 3.74 8.4 9.47 8.4 9.87 0 19.07-8.27 21.07-18.8.15-.8.3-1.47.34-2.15.28-3.96-2.51-8.14-23.01-39.45-17.47-26.67-20.93-30.94-28.67-34.54l-6.53-3.06.8-6.8Zm20.93 15.46c3.47 0 6.8-9.33 6.67-18.66 0-4.8-.93-10.54-2-12.94l-1.87-4.26-8.93 10c-5.07 5.46-9.07 10.8-9.07 11.86 0 4.14 2.67 2.94 8.94-4 3.73-4 7.06-6.93 7.6-6.4 1.46 1.6.8 11.07-1.2 16-2.54 5.87-2.54 8.4-.14 8.4Zm-32.53-10c1.47-3.46 2.67-7.06 2.67-8.13 0-4.67-4.14-1.07-7.34 6.4-1.73 4.27-1.73 5.07 0 6.4 1.6 1.33 2.4.53 4.67-4.67Zm24.13 1.47c1.74 1.07 5.47-3.2 4.4-4.93-1.2-2-3.06-1.34-4.53 1.33-.93 1.87-.93 2.93.13 3.6Zm5.2 33.6C209.4 134.73 207 132.2 199 128.33c-6.4-3.06-10-3.33-10-.66 0 1.06 2.93 3.2 6.53 4.8 8 3.33 9.87 5.33 19.34 20.8 4.26 6.8 8.13 12.4 8.8 12.4 3.46 0 2.13-4.14-5.34-16.27Zm-47.06-9.33c2.53-2.67 4.26-5.47 3.86-6.27-1.6-2.53-3.73-1.6-8.93 4-12 13.07-12.13 31.73-.27 48.8 9.87 14.27 10.14 14.93 11.2 27.2.67 6.67 1.47 12.53 1.87 13.33 3.47 5.6 4.67-15.33 1.47-26-1.07-3.46-4.27-9.46-7.34-13.2-13.86-18-14.53-34.8-1.86-47.86ZM153.8 143c2.53-1.6 4.53-3.73 4.53-4.8 0-4-5.6-1.47-14 6.4-6.8 6.27-10 10.53-14 18.93-7.46 15.87-9.46 26.54-10.66 58.8-1.07 26.67-1.34 28.94-6.4 48.4-4.4 16.94-5.07 20.54-3.47 21.2 1.07.4 2.27.4 2.67.14.26-.4 3.33-11.07 6.53-23.87 5.73-22.4 6-23.87 6-43.47 0-23.6 1.73-37.6 6-49.86 4.8-13.87 13.6-26.27 22.8-31.87Zm23.87 9.73c.4-3.06.8-6.13.8-6.66 0-.67-.94-1.2-2-1.47-1.34-.27-2.4 1.73-3.47 6.8a29.95 29.95 0 0 0 7.87 27.6l5.2 5.47 3.2 51.2 8.4 16c6.53 12.26 10.26 17.73 16.26 23.33 8.8 8.27 12.94 15.73 15.34 26.93 1.2 6 2.13 7.74 4 7.74 2.93 0 2.93-1.34.4-11.07-3.07-11.73-6.8-18.27-15.34-26.27-9.73-9.33-22.26-31.6-24-42.66-1.46-9.74-3.06-42.67-2.13-42.67.53 0 6.67 2.67 13.73 6 8.8 4.13 13.34 5.6 14.27 4.67 2.13-2.14-1.2-4.4-16.93-11.47-20.8-9.2-27.87-18.4-25.6-33.47Zm79.86 129.34c-4.53-7.34-14.66-16.67-22.26-20.54-4.14-2.13-10.4-4.26-13.74-4.8-5.46-.66-6.13-.53-5.73 1.6.4 1.6 2.8 2.94 7.87 4.27 14.8 3.73 27.46 15.47 33.46 30.67 2.4 6.26 2.94 10.4 2.94 21.73 0 15.47-2.14 25.87-8.4 39.6-3.34 7.33-3.6 8.67-1.87 9.33 2.53.94 3.33-.26 8.53-12.4 5.07-12.26 8.54-31.86 7.47-42.66-.93-8.94-4.53-20.8-8.27-26.8Zm-99.73 18.26c19.07-6.13 30.27-18.93 31.47-36 .26-3.33-.14-4.66-1.74-5.06-1.6-.27-2.4 1.06-3.06 5.33-2.54 15.33-11.6 25.33-28.4 30.93-16.8 5.6-26.27 15.34-30.4 31.07-1.47 5.73-2 15.73-2 41.2 0 18.4.4 37.2.8 41.73l.93 8.14h28.67l14.8-28.4 14.8-28.27-.27-8.67c-.27-6.66-.8-8.66-2.4-8.66-1.47 0-2.13 2.26-2.67 9.33-.66 8.67-1.73 11.07-14 34.4L151 412.47l-21.33-.8v-84.14l4-7.86c4.93-9.74 12.13-15.34 24.13-19.34Z" fill="#fff"/>
    </g>
    <circle cx="180" cy="195" r="147" stroke="#fff" stroke-width="6"/>
  </g>
  <defs>
    <clipPath id="a">
      <path fill="#fff" d="M0 0h361v367H0z"/>
    </clipPath>
  </defs>
</svg>