<svg width="300" height="295" viewBox="0 0 300 295" fill="none" xmlns="http://www.w3.org/2000/svg">
  <path d="M104.41 294.22a4.6 4.6 0 0 1-4.56-3.98l-4.08-29.33a88.1 88.1 0 0 1-22.7-9.66L49.9 268.77a4.6 4.6 0 0 1-6.04-.42L24.58 249.1a4.6 4.6 0 0 1-.41-6.04l17.85-23.66a88.04 88.04 0 0 1-9.25-22.88l-28.75-4A4.6 4.6 0 0 1 0 187.96V160.7a4.6 4.6 0 0 1 3.98-4.56l29.33-4.1a88.85 88.85 0 0 1 9.67-22.7l-17.52-23.2a4.6 4.6 0 0 1 .41-6.04l19.25-19.27a4.6 4.6 0 0 1 6.04-.42l23.67 17.86a87.45 87.45 0 0 1 22.87-9.25l4-28.77a4.62 4.62 0 0 1 4.56-3.98h27.25a4.6 4.6 0 0 1 4.57 3.98l4.1 29.33a87.3 87.3 0 0 1 16.92 6.48 4.6 4.6 0 1 1-4.17 8.23 80.2 80.2 0 0 0-17.94-6.5 4.6 4.6 0 0 1-3.52-3.86l-3.98-28.43h-19.23l-3.9 27.95a4.6 4.6 0 0 1-3.61 3.88 79.05 79.05 0 0 0-25.8 10.41 4.62 4.62 0 0 1-5.22-.22L48.79 90.2 35.2 103.8l17.02 22.54a4.6 4.6 0 0 1 .16 5.3 78.75 78.75 0 0 0-10.91 25.57 4.62 4.62 0 0 1-3.86 3.52L9.2 164.71v19.2l27.93 3.88a4.6 4.6 0 0 1 3.88 3.65 78.9 78.9 0 0 0 10.41 25.8c1 1.63.92 3.7-.23 5.24l-17.3 22.93L47.45 259 70 241.98a4.57 4.57 0 0 1 5.3-.17c7.8 5.13 16.4 8.8 25.6 10.92a4.6 4.6 0 0 1 3.51 3.85l3.98 28.44h19.2l3.88-27.94a4.61 4.61 0 0 1 3.63-3.87 79.35 79.35 0 0 0 25.8-10.42c1.63-1 3.7-.92 5.24.23l22.93 17.31 13.59-13.6-17.04-22.54a4.6 4.6 0 0 1-.17-5.32 78.77 78.77 0 0 0 10.92-25.56 4.6 4.6 0 0 1 3.85-3.52l28.44-3.98V166.6l-27.94-3.9a4.61 4.61 0 0 1-3.88-3.63 77.83 77.83 0 0 0-6.7-19.18 4.6 4.6 0 0 1 8.23-4.15c2.95 5.88 5.22 12 6.76 18.27l28.77 4a4.62 4.62 0 0 1 3.98 4.56v27.25a4.6 4.6 0 0 1-3.98 4.56l-29.33 4.1a88.87 88.87 0 0 1-9.66 22.7l17.54 23.2a4.6 4.6 0 0 1-.42 6.04l-19.27 19.27a4.6 4.6 0 0 1-6.04.42l-23.65-17.85a88.85 88.85 0 0 1-22.87 9.27l-4 28.75a4.62 4.62 0 0 1-4.56 3.98h-27.25l.02-.03Z" fill="#fff"/>
  <path d="M118.97 233.91a58.72 58.72 0 0 1-58.64-58.66 58.7 58.7 0 0 1 58.64-58.64 58.73 58.73 0 0 1 58.67 58.64 58.74 58.74 0 0 1-58.67 58.66Zm0-108.07a49.5 49.5 0 0 0-49.43 49.43 49.48 49.48 0 0 0 49.43 49.44 49.48 49.48 0 0 0 49.44-49.44 49.48 49.48 0 0 0-49.44-49.43ZM225.2 146.73a4.58 4.58 0 0 1-3.04-1.14c-1.5-1.32-36.56-32.63-36.56-72.2 0-39.61 35.06-70.9 36.56-72.23a4.6 4.6 0 0 1 6.1 0c1.5 1.3 36.56 32.62 36.56 72.2 0 39.6-35.06 70.9-36.56 72.23a4.58 4.58 0 0 1-3.04 1.14h-.02Zm0-135.7c-8.25 8.33-30.38 33.42-30.38 62.35 0 28.94 22.13 54 30.38 62.35 8.25-8.33 30.37-33.41 30.37-62.35 0-28.93-22.12-54-30.37-62.35Z" fill="#fff"/>
  <path d="M225.2 146.73a4.6 4.6 0 0 1-4.6-4.6V56.44a4.6 4.6 0 0 1 9.2 0v85.69a4.6 4.6 0 0 1-4.6 4.6Z" fill="#fff"/>
  <path d="M221.99 146.75c-9.52 0-36.02-1.62-53.08-18.68-20.65-20.65-18.69-55.13-18.6-56.58.14-2.32 2-4.17 4.3-4.32a95.45 95.45 0 0 1 34.1 4.96 4.6 4.6 0 0 1-3.05 8.71c-10.34-3.63-20.6-4.4-26.17-4.5.19 9.25 2.19 31.44 15.96 45.2 17.67 17.67 49.16 15.94 49.48 15.92a4.61 4.61 0 0 1 .58 9.2c-.25.01-1.5.1-3.5.1h-.02Z" fill="#fff"/>
  <path d="M225.2 146.67a4.66 4.66 0 0 1-3.27-1.35l-45.69-45.69a4.59 4.59 0 0 1 0-6.52 4.63 4.63 0 0 1 6.52 0l45.69 45.68a4.62 4.62 0 0 1-3.27 7.87h.02Z" fill="#fff"/>
  <path d="M228.22 146.75c-2 0-3.25-.06-3.5-.08a4.61 4.61 0 0 1 .58-9.2c.31 0 31.81 1.74 49.48-15.92 13.77-13.77 15.75-35.94 15.96-45.21-5.59.1-15.88.88-26.17 4.5a4.6 4.6 0 0 1-5.88-2.83 4.6 4.6 0 0 1 2.82-5.88 96 96 0 0 1 34.1-4.96c2.31.15 4.17 2 4.31 4.32.08 1.45 2.04 35.93-18.6 56.58-17.06 17.06-43.56 18.68-53.08 18.68h-.02Z" fill="#fff"/>
  <path d="M225 146.67a4.63 4.63 0 0 1-3.27-7.87l45.78-45.77a4.59 4.59 0 0 1 6.52 0 4.63 4.63 0 0 1 0 6.52l-45.77 45.77c-.9.9-2.08 1.35-3.27 1.35h.02Z" fill="#fff"/>
</svg>