<svg width="486" height="699" viewBox="0 0 486 699" fill="none" xmlns="http://www.w3.org/2000/svg">
  <path fill-rule="evenodd" clip-rule="evenodd" d="M38.66 46c-.64-.37-1.26-.72-2-1.1-3.18-1.62-2.35-5.33-2.89-9.23-.9-7.15-2.08-14.02-3.9-20.1-1.09-2.72 0-3.71 2.9-3 2.26-1.17 4.53-.71 6.88.65 8.86 8.33 13.48 14.93 12.76 19.46 14.02-9.87 22.9-13.4 25.44-8.97 2.62-.08 5.26-.18 7.88-.37C84.9 13.2 83.1 6.14 81.1 2.17 81.02.27 82.28-.55 84.55.35c8.78 5.8 16.2 11.05 20.55 15.22 7.34-.27 14.76.08 22.09 1.09a30.28 30.28 0 0 0-5.53 6.25c6.89-1.9 13.75-2.9 20.72-3.63a35.45 35.45 0 0 1-14.2 5.34c26.61 5.26 47.7 14.48 66.53 25.26-8.42-3.08-17.73-6.33-21.81-4.97 3.25 3.34 29.77 13.4 49.05 23.9-.46 1.17-.91 2.34-1.26 3.62-10.05-4.8-20.1-9.5-30.06-14.3 6.06 4.8 12.12 9.5 18.18 14.3 6.07 4.08 12.23 8.23 18.3 12.4 7.87 4.97 14.11 11.58 19.72 18.82.27.82.45 1.71.64 2.62 1.71 2 3.44 3.9 5.16 5.88-1.82 1.26-3.53 2.62-5.34 3.9-4.17-5.61-13.76-12.95-24.27-20.46 11.22 8.87 21.28 18.19 28.97 28.25 2 1.81 7.69 9.42 6.7 12.22-.64-.72-2-1.9-2.54-2.53.46 1.36 1 2.62 2.17 3.98 2.99 1.36 4.16 4.08 4.08 7.69 3.8 4.62 7.5 9.32 11.32 13.94a168.03 168.03 0 0 1 24.16 31.5c3.26 5.98 6.43 12.04 9.69 18.02 1.18 2.27 3.17 3.71 5.42 4.8 9.6 5.98 19.2 12.04 28.7 18.02 17.57 10.15 30.87 21.28 38.74 33.86a55.27 55.27 0 0 1 5.34 27.88c1.55.08 3-.54 4.54-2.09-.37.83-.73 1.63-1.1 2.54a269.85 269.85 0 0 1 17.2 67.98c.37 7.42.64 14.93.9 22.45-.63-.27-1.7-.18-2.34-.37-1.82 12.58 2.99 42.73 5.97 54.77 1.37 5.98 2.62 11.94 3.98 17.83 3.18 5.53 6.89 10.23 11.5 13.49 5.53 3.34 7.61 7.96 6.98 13.58.72 7.96 1.17 16.03.45 24.09.18 8.4.9 15.83 2.72 21.73 2.54 10.76 5.16 21.54 7.8 32.22a248.44 248.44 0 0 0 12.03 37.39c-4.35 11.67-6.25 21.63 7.7 22.99 8.96.9 9.04 5.6 8.4 9.32-.45 2.35-.63 4.7-1.8 6.88-.55 1-.55 2 .36 2.9 4.62 11.93 9.32 23.8 13.94 35.75.82 1.7 1.18 3.25-.82 4.43a771.97 771.97 0 0 1-59.47 1.63c-.82-19.01 2.8-35.67 6.52-52.42-5.42-7.79-7.6-18.55-7.05-31.68a1107 1107 0 0 1-3.35-19.1c-3.62-5.7-5.6-12.58-6.43-20.55-6.33-25.16-10.4-27.61-27.42-55.14-26.25-16.93-38.2-48.06-52.5-74.86a149.38 149.38 0 0 1-56.01 16.84c2 5.42 2.53 11.05.82 16.93.64 7.87 1.81 15.56 4.25 22.9 4.7 4.98 8.33 14.31 11.59 25.35 3.17 30.78 6.43 61.46 9.59 92.24 1.09 7.06 2.16 14.13 3.34 21.18 2.62-.54 4.97.27 6.97 3.07.9 3.18 3.8 5.88 7.5 8.42 1.72 10.86 2.17 21.73.27 32.58-1.17.72-2.45 1.36-3.63 2.08.54 2.08 1.18 4.25 1.72 6.33-6.6.72-13.22 1.55-19.92 2.27l-38.66 2.72c1.1-3.63 2.17-7.24 3.18-10.87.72-6.51 2.72-11.32 4.97-15.75l4.89-34.2c-2.36-3.72-2.27-11.87-1.63-21.1a272.15 272.15 0 0 1-3.35-32.58c-.63-12.04-.53-18.83-3.62-30.78a111.17 111.17 0 0 0-6.06-17.92c-5.43-2.8-9.43-6.6-13.22-9.88-3.71-3.17-7.24-5.34-7.8-8.23-.9.37-1.8.73-2.71 1a65.71 65.71 0 0 0 1.09 19.09c1.9 9.32.45 16.39-2.17 20.1-5.97 13.13-10.5 25.71-12.49 37.03-2.45 13.59-4.97 27.16-7.42 40.74.27 3.34-1.55 4.35-1.82 5.71-.72 4.08 2 8.06 4.17 11.86.37 2.53-1.18 3.63-4.25 3.44-1.81-.18-1.36 2.62.82 7.96.73 1.55 1.45 2.99 2.17 4.53 1.44 5.35.99 10.05-1.26 14.21a1221 1221 0 0 1 2 17.38 785.11 785.11 0 0 1-63.1 6.79c5.43-20.64 9.25-33.03 11.68-37.92.08-1.63.08-3.26.18-4.8 4.97.08 11.4-.91 20.91-4.44.19-14.02 4.16-32.23 8.41-50.6 1.82-9.96 3.63-20 5.43-30.06l-5.71-19.81c-6.33-14.31-5.43-26.35 5.52-35.22 1.9-5.26 3.8-10.5 5.61-15.75-19.36-17.2-33.03-39.28-31.5-74.05-1.44 4.35-2.89 8.69-4.25 13.14 0 7.42-.37 14.76-1.9 21.27-1.71 6.07-3.34 12.05-4.97 18.1-2.35 6.52-4.8 13.04-7.15 19.56-1.81 6.33-3.18 12.68-1.63 19.28 1.81 3.9 2.8 7.87 2.17 11.77-3.26 10.76-6.52 21.54-9.88 32.3a825.28 825.28 0 0 0-11.94 64.73c-1.17 6.25-2.45 12.5-3.62 18.74-.09 4.89.63 9.5 2.62 13.49 1.62 2.89 1.7 5.25-1.45 6.25-1.36-.54-2.62-1-3.98-1.55-1.44.45-1.36 2.62.27 5.88 2.45 7.5 4.97 15.11 7.5 22.63.91 5.53-1.09 9.78-5.87 12.85-19.46 2.27-38.83 2.62-58.29 2.8a158.29 158.29 0 0 1 11.77-37.2c.73-.07 1.55-.18 2.35-.18.19-.99.46-1.9.64-2.8 1.45-1.36 2.8-2.8 4.25-4.25.72.54 1.55 1 2.27 1.55 1.63-6.25 4.89-10.87 6.97-15.57 2.35-5.07 2.45-10.68 3.7-15.94 5.16-21.63 10.15-42.9 11.78-62.64-.72-2.53-1.18-4.97-.9-7.42-.1-10.68-.2-21.45-.28-32.13-.63-7.05 3.35-12.95 7.7-18.74.45-9.24.82-18.47 1.25-27.8-.99-5.7-1.7-11.4-1.9-17.1-2.61-8.42-5.33-16.85-7.95-25.26-4.35-11.86-6.06-24.27-6.25-37.12-.08-9.32.82-16.56 1.9-25.7a352.3 352.3 0 0 0 1.63-17.74c-9.96-19.74-16.1-37.3-16.3-51.42-1.8-15.66-.71-31.4.92-47.08.18-5.07 6.33-13.3 12.76-21.54 8.14-8.79 12.84-15.3 19.64-25.08-5.25-17.38-10.4-34.66-15.65-51.95a146.77 146.77 0 0 1-14.66 3.97c-6.6 1.45-7.6-.36-13.3 4.09a55.25 55.25 0 0 0-6.6 5.97c-2 2.54-4.08 4.97-6.16 7.43-5.6 6.78-9.13 12.94-13.67 19.36-2.16 3.07-3.17 6.78-4.8 10.23-1.36 2.72-3.63 4.43-6.78 5.34a80.98 80.98 0 0 1-17.57 3.44c-7.96.64-7.96.54-14.12-4.8-2.27-2-4.08-3.98-5.42-6.97-2.17-4.35-1.36-5.71-2.27-9.24-.27-1.09-.82-2-1.63-2.89-4.55-4.53-6.26-9.42-6.18-14.4.18-4.9 1.18-7.16 3.8-11.06.26-.45.63-.99.99-1.44 6.06-15.3 13.58-30.68 21.17-45.98-.18-8.33-1.54-17.2-2.99-26.17l-3.52 3.8C13.1 82 29.13 57.12 38.64 45.98l.02.02Z" fill="#231F20"/>
  <path fill-rule="evenodd" clip-rule="evenodd" d="M217.78 638.53c-.72.82-2 1.09-3.71.99-1.81-.19-1.36 2.62.82 7.96.73 1.54 1.45 2.99 2.17 4.53 1.44 5.34.99 10.04-1.26 14.2.72 5.8 1.36 11.6 2 17.39-5.61.82-11.14 1.63-16.74 2.35a109.9 109.9 0 0 1 3.44-19.46 44.18 44.18 0 0 1 5.7-12.23c2.73-.9 2.54-2.8.83-5.25-.64-2-1.71-3.63-2.72-4.98-1-1.44-1.36-3.25-2-4.88-.64-1.1-1.63-1.9-4.08-1.45-1.26 1.9-2.53 3.8-3.9 5.61 1.9-5.52 4.7-10.6 10.42-13.75l9.05 8.97h-.02Z" fill="#ABA7A1"/>
  <path fill-rule="evenodd" clip-rule="evenodd" d="M217.78 638.53c-.72.82-2 1.09-3.71.99-1.1-.09-1.36.99-.9 2.99l-5.8-.19c-.37-.99-.64-2.17-1.1-3.17-.63-1.1-1.62-1.9-4.07-1.45-1.26 1.9-2.54 3.8-3.9 5.61 1.9-5.52 4.7-10.6 10.41-13.75l9.05 8.97h.02ZM215.97 667.23l1.81 16.39a872.8 872.8 0 0 1-16.2 2.26l14.39-18.64v-.01ZM295.88 518.69l8.79 84.54c1.09 7.05 2.16 14.12 3.34 21.17 2.62-.53 4.97.27 6.97 3.08.9 3.17 3.8 5.87 7.5 8.41 1.71 10.87 2.17 21.73.27 32.58-1.18.72-2.45 1.36-3.63 2.08.54 2.08 1.18 4.25 1.72 6.33-6.6.73-13.22 1.55-19.92 2.27h-.54c-1.7-4.43-3.07-12.58-4.35-21.1-14.12 5.72-10.86-27.33-9.95-33.85 2.35-9.05 1.26-22.9 1.36-32.58v-26.51c-.37-10.5-.83-21.1-1.18-31.6-.72-2.61-1.36-5.15-2-7.79-.18-1.26-.27-2.62-.45-3.9.99.28 1.44 0 1.1-1.25-1.55-1-1.72-1.9-.2-2.72-2.16-2.09-2.8-4.17-1.25-6.33l5.34.9a50.25 50.25 0 0 0 7.05 6.25l.03.02Z" fill="#4F504E"/>
  <path fill-rule="evenodd" clip-rule="evenodd" d="m295.88 518.69 8.79 84.54c1.09 7.05 2.16 14.12 3.34 21.17 2.62-.53 4.97.27 6.97 3.08.72 2.35 2.45 4.43 4.88 6.43-1.81-.45-3.7-.9-5.6-1.63-1.72-2.72-4.54-5.42-8.79-7.96-2.27-2.99-4.35-4.35-6.06-5.16-.27-6.16-.45-10.14-.72-14.02a150.1 150.1 0 0 0-2.62-15.75c-.9-4.62-1.55-9.42-1.82-14.2-.26-3.9-.26-7.89-.37-11.95-.26-5.26-.72-10.04-.9-14.48-.46-13.21-.09-23.25.82-31.68.72.53 1.36 1.09 2.08 1.62v-.01Z" fill="#ABA7A1"/>
  <path fill-rule="evenodd" clip-rule="evenodd" d="M32.76 12.6c2.27-1.18 4.54-.73 6.89.63C48.5 21.56 53.13 28.16 52.4 32.7c.64-.46 1.36-.91 1.9-1.26l-5.26 5.88c-.9.82-2.08-.09-1.36-1.36a9.1 9.1 0 0 0-1.26-9.33 71.96 71.96 0 0 0-13.67-14.02v-.01Z" fill="#FAE299"/>
  <path fill-rule="evenodd" clip-rule="evenodd" d="m285.57 226.85-.37.9c-4.88 14.48-11.21 27.43-19.36 38.75a121.25 121.25 0 0 0 14.48 39.46 54.86 54.86 0 0 0 7.15 8.87c4.89-21.18 2.99-66.17-1.9-87.98Z" fill="#4A4849"/>
  <path fill-rule="evenodd" clip-rule="evenodd" d="M423.6 521.76c-.36 4.53 1 12.5 6.07 28.25 2.45 6.16 3.7 15.21 4.97 24.53 1.71 6.52 3.17 13.4 4.08 21.01 1.1 13.49 4.08 18.56 8.14 18.29.73 3.53-7.5 13.03-9.05 20.72a674.3 674.3 0 0 1 12.13 10.77c4.7 3.52 11.31 9.42 16.02 12.84 1.9 1.63 3.9 3.45 5.98 5.26-3.08-5.88-6.17-11.5-7.51-17.92-2.72-8.33-8.06-15.65-15.38-22.35-.37-1.36-.83-2.72-1.18-4.08-.08-1.82-.08-3.63-.18-5.43 2.16-6.16.72-11.31-1.45-16.39-2.16-5.79-4.25-11.58-6.33-17.38-3.34-7.05-5.25-15.03-6.7-23.36l-2.72-13.85c-.82-2.8-1.71-5.71-2.62-8.52-1.54-3.98-2.8-8.33-4.25-12.39h-.01Z" fill="#808180"/>
  <path fill-rule="evenodd" clip-rule="evenodd" d="M195.15 252.56c7.23-21.45 14.47-41.92 22.18-59.01-.37.26-.64.63-1 .9-21.89-49.96-44.98-86.8-69.06-112.6l-.9 16.48c31.23 53.05 55.93 91.15 48.78 154.25v-.02Z" fill="#2B2A2A"/>
  <path fill-rule="evenodd" clip-rule="evenodd" d="M123.46 47.98c-3.07 1.81-6.16 3.63-9.24 5.52 36.02 23.53 70.25 68.52 102.1 140.94 4.62-4.25 8.23-12.04 11.59-20.83 3.17 3.9 6.51 8.52 10.04 13.4 8.06 11.32 8.06 11.4 9.77 25.45a171.31 171.31 0 0 1 .46 36.2c4.53-7.23 9.13-14.57 13.75-21.81l18.19-22c2.61-4.35 5.33-7.6 7.95-8.23-.45-.9-.9-1.71-1.36-2.62-1.9-4.25-3.8-8.6-5.7-12.95-.64-1.44-1.26-2.72-1.72-3.98l-3.7-5.8c-4.54-5.87-9.14-11.76-13.68-17.64l-11.77-11.05a3.7 3.7 0 0 0-1.36 0c-1-1.36-1.9-2.62-2.72-3.8l-7.6-7.15c-17.84-14.66-33.32-31.24-53.6-44-20.63-13.03-40.81-26.52-61.45-39.65h.05ZM227.19 562.85a100.46 100.46 0 0 0-3.8 14.93c-2.45 13.59-4.97 27.16-7.42 40.75.27 3.34-1.55 4.35-1.82 5.7-.72 4.09 2 8.07 4.17 11.86.18 1.1 0 1.9-.54 2.45l-7.8-7.79c-1.54-3.26-2.26-7.15-2.07-11.77a161.06 161.06 0 0 0-3.98 5.25c1.09-23.44 4.08-42 7.34-60.01.63-2 1.44-2.63 2.53-2.54-.08.9-.08 1.71 1 1.9.63 1.54 1.8 1.54 2.98 1.26.64.45.9 1.09.64 2.08.08 1.26.64 1.71 1.44 1.81l7.34-5.88h-.01Z" fill="#575756"/>
  <path fill-rule="evenodd" clip-rule="evenodd" d="M226.46 565.2a101.31 101.31 0 0 0-3.07 12.58c-2.45 13.59-4.97 27.16-7.42 40.75.27 3.34-1.55 4.35-1.82 5.7-.72 4.09 2 8.07 4.17 11.86.18 1.1 0 1.9-.54 2.45l-7.8-7.79-.07-.18c-1.45-3.18-2.17-7.06-2-11.6.82-3.79 10.4-38.65 9.59-39.64-.83-1.1.9 4.08 1.36 6.16 2.45-8.51 4.8-16.2 7.6-20.27v-.01Z" fill="#BAB2A1"/>
  <path fill-rule="evenodd" clip-rule="evenodd" d="M170.9 436.94a81.31 81.31 0 0 1-1.82 15.21c-1.71 6.06-3.34 12.04-4.97 18.1-2.35 6.52-4.8 13.04-7.15 19.55-1.81 6.33-3.18 12.68-1.63 19.28 1.81 3.9 2.8 7.88 2.17 11.77l-8.87 29.06c-.72-2.27.54-10.05 3.26-21.9-1-2.8-.46-6.43.64-10.77.53-2.45.08-4.97-.27-7.5-.37-2.17-.37-4.44-.46-6.7-.27-4.7-.08-9.24.91-13.68.64-3.07 1.63-6.06 2.45-9.13 2.45-11.13 5.8-21.55 9.05-32.5 2-6.16 2.27-11.85 2.08-17.46a4.13 4.13 0 0 1 3.72.37l.9 6.33-.01-.03Z" fill="#8D8D8B"/>
  <path fill-rule="evenodd" clip-rule="evenodd" d="M172.07 412.15c.19-3.9 1-7.6 2.72-11.14 12.77 9.96 25.61 18.93 39.01 22.54.08.72.27 1.36.45 2.08-14.2-3.9-27.15-11.31-39.1-21-.37 1.36-1.37 7.79-3.08 7.5v.02ZM135.23 402.19c.37 38.37 3.9 59.57 8.78 73.59-.53-19.92-1.54-39.28-2.08-59.2-2.45-4.62-4.35-9.77-6.7-14.39Z" fill="#575756"/>
  <path fill-rule="evenodd" clip-rule="evenodd" d="M114.05 656.73c5.61 10.68 4.62 13.59 5.08 28.15l12.04-.09c-.27-2.26-.54-4.62-.91-7.24-3.9-11.5-9.24-18.55-16.2-20.82Z" fill="#4F504E"/>
  <path fill-rule="evenodd" clip-rule="evenodd" d="M139.93 591.64a727.11 727.11 0 0 0-4.25 26.25c-1.17 6.24-2.45 12.5-3.62 18.74-.09 4.89.63 9.5 2.62 13.48 1.62 2.9 1.7 5.26-1.45 6.25-1.36-.54-2.62-.99-3.98-1.54-1.44.45-1.36 2.62.27 5.87 2.45 7.51 4.97 15.12 7.5 22.64.91 5.34-.98 9.5-5.52 12.58.46-8.33-1.36-21.81-4.89-38.93 3.9-5.52 4.44-6.51.27-12.12-2.45-2.72-2.45-7.34-1.44-12.77.99-5.97 2-12.04 2.89-18.01 2.62-12.23 5.15-24.54 7.79-36.75 2.17-10.68 5.07-13.22 8.06-14.58-2.62 12.58-4.08 22.36-4.25 28.87v.02Z" fill="#FAE299"/>
  <path fill-rule="evenodd" clip-rule="evenodd" d="M83.81 83.83c-.18-4.8 2.17-8.33 5.61-11.4.64-.54.64-1.26.18-1.9-.72-1.09-1.36-2.16-2.08-3.25 1.45-2.27 5.16-4.54 10.77-6.79 5.15 4.17 4.97 6.6 3.07 9.69-2.17 3.53-1.9 8.15-3.63 11.86-1.17 2.45-3.9 3.62-6.6 4.43-.72-.18-.99-.64-.53-1.54 1.54-1.26 2.98-2.36 4.53-2.54.82-.08 1.1-.54.82-1.1-.72-1.25-1.36-2.53-2.53-3.33-.91-.73-2.27-.19-3.35.72l-6.24 5.15h-.02Z" fill="#8D8D8B"/>
  <path fill-rule="evenodd" clip-rule="evenodd" d="M135.04 137.5c1.37-8.5 2.36-16.02 2.63-21.9.45-10.59-7.06-24.8-13.4-32.94-3.53-4.44-3.9-5.71-8.79-7.96-3.17-1.45-11.05 8.97-18.1 20-12.3 19.1-17.11 28.7-21.9 51.05a279.54 279.54 0 0 0-3.98 24.35c7.34-6.43 15.12-13.75 19.1-14.12 16.47-.19 31.4-6.16 44.44-18.47ZM322.68 264.6c-.99 29.7-5.97 64.27-30.32 122.74-2.17 46.36 15.11 19.82 47.25-7.79 3.63-11.32 6.52-20.72 8.23-27.6 1.71-6.6 2.08-10.5 2.45-17.12.54-8.14 1-16.39 1.54-24.53-2.08-5.98-15.64-25.9-29.15-45.72v.02ZM109.44 404.73l2.08-.73c16.74-5.34 102.92-25.9 148.44 17.47.19-.54.37-1 .54-1.45 1.44-4.08 2.89-8.22 4.35-12.3 2.8-8.6 5.6-15.76 8.51-20.91l9.78-22.36a46.45 46.45 0 0 1 7.5-12.39c0 1.71.09 3.53.09 5.34v-.08c.27-.54.45-1 .64-1.55-.09.09-.09.19-.09.27 1.18-3.44 2.45-6.97 3.71-10.41 1.55-6.97 3.08-13.94 4.54-20.82 0-.27 0-.64-.09-.91a52.95 52.95 0 0 1-19.09-17.92 120.98 120.98 0 0 1-14.48-39.47c8.15-11.31 14.48-24.26 19.37-38.74 3.62-9.77 5.34-16.74 6.16-22.35-.08-.27-.27-.54-.45-.82a33.09 33.09 0 0 0-2.8-7.96c-2.63.63-5.35 3.9-7.97 8.23l-18.18 22c-4.08 6.33-8.06 12.67-12.04 19-1.55 6.07-6.79 32.05 4.24 30.15 6.34 19.65 15.75 34.04 27.07 45.17 2.72 7.24 1.18 16.1-5.15 26.98-3.9 7.87-7.7 15.65-11.5 23.52-38.93-90.33-110.16 19.37-151.15-67.7-5.71-12.13-12.4-23.9-18.19-36.13-.82 11.22-.99 22.45.27 33.67.18 14.12 6.33 31.69 16.29 51.42-.46 6.16-.9 11.94-1.63 17.74-1.1 9.13-2 16.39-1.9 25.7 0 .73.54 1.72.45 2.81l.73 5.53h-.05Z" fill="#282727"/>
  <path fill-rule="evenodd" clip-rule="evenodd" d="M81.73.29c.64-.37 1.54-.37 2.8.08 8.79 5.8 16.2 11.05 20.56 15.21 7.34-.26 14.76.09 22.08 1.1a30.27 30.27 0 0 0-5.53 6.24c6.89-1.9 13.76-2.89 20.73-3.62a35.46 35.46 0 0 1-14.21 5.34c26.62 5.25 47.7 14.47 66.53 25.25-8.41-3.07-17.73-6.33-21.81-4.97 3.26 3.34 29.77 13.4 49.05 23.9-.45 1.18-.9 2.35-1.26 3.63-10.04-4.8-20.1-9.5-30.06-14.31 6.06 4.8 12.13 9.5 18.19 14.3 6.06 4.09 12.22 8.24 18.28 12.4 7.88 4.97 14.13 11.59 19.73 18.83.27.82.46 1.71.64 2.62 1.72 2 3.45 3.9 5.16 5.87-1.82 1.26-3.53 2.62-5.34 3.9-4.17-5.6-13.75-12.95-24.27-20.45 11.22 8.86 21.28 18.18 28.97 28.24 2 1.82 7.7 9.42 6.7 12.23-.64-.72-2-1.9-2.54-2.54.46 1.36 1 2.62 2.17 3.98 3 1.36 4.17 4.08 4.08 7.7 3.8 4.61 7.5 9.31 11.32 13.93a168.01 168.01 0 0 1 24.17 31.5c3.25 5.99 6.43 12.05 9.68 18.03 1.18 2.26 3.18 3.7 5.43 4.8 9.59 5.98 19.2 12.04 28.7 18.02 17.56 10.14 30.86 21.28 38.74 33.86a55.26 55.26 0 0 1 5.34 27.87c1.54.09 2.99-.53 4.53-2.08-.37.82-.72 1.63-1.1 2.54a269.87 269.87 0 0 1 17.2 67.98c.37 7.42.64 14.93.91 22.45-.64-.27-1.71-.19-2.35-.37-1.81 12.58 2.99 42.72 5.98 54.76 1.36 5.98 2.62 11.94 3.98 17.84 3.17 5.52 6.88 10.23 11.5 13.48 5.52 3.35 7.6 7.97 6.97 13.59.72 7.96 1.18 16.02.45 24.08.19 8.42.91 15.84 2.72 21.73 2.54 10.77 5.16 21.55 7.8 32.23a248.57 248.57 0 0 0 12.03 37.38c-4.34 11.67-6.24 21.63 7.7 23 8.96.9 9.05 5.6 8.4 9.31-.44 2.36-.63 4.7-1.8 6.89-.54.99-.54 2 .37 2.89l13.4 34.3a7.1 7.1 0 0 1-4.35-1.54c-2.72-2.53-4.44-5.52-6.89-7.6-3.34-6.9-7.24-13.14-8.78-20.56-2.72-8.33-8.06-15.65-15.38-22.35-.37-1.36-.83-2.72-1.18-4.08-.08-1.82-.08-3.63-.18-5.43 2.16-6.16.72-11.32-1.45-16.39-2.16-5.8-4.25-11.59-6.33-17.38-3.34-7.05-5.25-15.03-6.7-23.36l-2.72-13.86c-.82-2.8-1.71-5.7-2.62-8.5-1.9-4.81-3.44-10.24-5.34-15.12-1.44-11.22-1.63-18.38-.99-24.9.54-2.88 0-5.79-.54-8.67-1.17-2.72-2.45-5.53-3.62-8.23-5.53-10.77-9.88-21.18-12.68-31.05-3.8-12.5-5.8-28.6-5.88-48.7-.54 1.7-1.1 3.44-1.63 5.15-3.8-13.86-4.97-31.05-4.88-49.88-1.72-18.37-4.25-34.12-7.8-45.7-1.17 11.4-2 25.89-2.35 45.33-1.71 2.17-3.34 4.25-5.07 6.33-.27-4.08-.54-8.14-.9-12.22-1.26-20.1-2.63-40.29-3.99-60.47a375.65 375.65 0 0 1-15.3-20.46 994.2 994.2 0 0 1-43.99-33.77c-1.63 1.71-3.9 1.71-6.33.9a2811.1 2811.1 0 0 0-15.65-28.14c-.9-4.17-2.45-7.5-4.17-10.6-1.9-4.25-3.79-8.6-5.7-12.94-6.97-15.84-7.06-19.01-21.37-31.86-3.79-3.71-7.6-7.06-10.86-6.6-6.6-9.14-10.41-15.39-14.4-25.98-8.4-8.33-16.92-16.75-25.33-25.07-4.53-4.54-8.14-8.33-13.4-12.05-4.62-3.17-8.51-5.15-14.93-8.41-3.53-2.54-5.98-5.07-9.13-8.06-8.15-7.42-17.84-13.67-28.33-19.28l-35.57-14.66c-3.07-8.78-8.23-14.76-14.2-19.65-2.81-1.9-5.8-3.34-8.42-5.52-1.26-1-2.27-2.27-3.34-3.63l-.05.02Z" fill="#FAE299"/>
  <path fill-rule="evenodd" clip-rule="evenodd" d="m237.51 501.39-.53.18a65.72 65.72 0 0 0 1.09 19.1c1.9 9.32.45 16.39-2.17 20.1a259.77 259.77 0 0 0-5.07 11.86l-10.31 15.48c-.72-.72-.19-3.26 1.26-7.34 1.63-4.8 3.9-9.32 5.42-14.12a58.37 58.37 0 0 0 2.72-13.86c-.37-8.06-.64-16.1-.99-24.08-.27-8.78 2.72-19.81 8.87-34.04 3.34-7.88 6.06-15.94 9.42-23.71 1.63-3.9 3.63-7.6 5.42-11.4 3.26-6.7 5.34-12.58 7.88-19.55 1.44-4.08 2.89-8.23 4.35-12.31 2.8-8.6 5.6-15.75 8.51-20.91 3.26-7.42 6.52-14.93 9.77-22.35a46.45 46.45 0 0 1 7.51-12.4c0 1.72.08 3.53.08 5.34 2.72-4.53 5.34-8.96 8.06-13.48l-6.24 13.03a35.2 35.2 0 0 0-3.53 8.51 78.9 78.9 0 0 1-7.5 17.57c-1.45 2.72-2.8 5.53-4.25 8.23a154.56 154.56 0 0 1-2.27 19.92 55.73 55.73 0 0 1-5.8 15.38c-2.88 5.53-7.05 12.13-11.04 19.1-4.54 7.79-8.33 17.1-12.04 26.88-2.54 6.89-4.44 13.86-6.7 20.73-.37 2.71-1.26 5.42-1.9 8.14h-.02Z" fill="#575756"/>
  <path fill-rule="evenodd" clip-rule="evenodd" d="m366.31 392.5-8.97 9.5c-11.94 6.25-25.9 10.23-40 13.76-15.56-.82-19.27 3.53-27.69 1.81-4.35-.99-9.87 6.52-10.86 10.31-1.81 8.87-2.08 17.74-1.55 26.62.46 2.89 1 5.43 1.63 7.5h.54c1.54-5.6.9-10.94-1-16.2 18.03-1.71 35.3-6.6 51.78-14.66l-1.36-7.5 19.55-8.42c9.95 1.9 17.64.19 23.07-5.6 1.81-2.9 3.53-5.72 5.34-8.52-1.36-4.25-2.54-8.6-3.44-13.13a86.72 86.72 0 0 0-9.88 11.05c.9-2.17 1.9-4.35 2.8-6.52h.04Z" fill="#282727"/>
  <path fill-rule="evenodd" clip-rule="evenodd" d="M279.32 463.37c.64 7.6 1.82 15.11 4.17 22.27 4.7 4.97 8.33 14.3 11.59 25.34l.82 7.69c-6.52-4.62-12.22-11.5-17.01-21.44-.82-15.49-2.99-34.21-5.16-49.7-.37-2.89-.53-1.71 2.54-2.35.54 7.7 1.54 14.13 3.07 18.19h-.01Z" fill="#FAE299"/>
  <path fill-rule="evenodd" clip-rule="evenodd" d="m385.96 312.4-2 24.88c-.19 3.8-.45 7.61-.64 11.4-.08 2.36-.82 4.7-1.81 6.9-6.6 7.78-7.43 14.3-10.23 23.35-2 6.7-4.8 13.3-7.8 20.1a86.47 86.47 0 0 1 9.88-11.05c1.82 9.14 4.89 17.57 7.5 25.8.92 2.72.65 5.8 1.37 8.78 3.63 15.84 13.75 32.04 21.73 45.34 2 3.18 5.07 6.17 8.33 9.14a15.18 15.18 0 0 1 4.08 5.15c2 3.99 3.71 6.7 5.34 8.42a34.06 34.06 0 0 0-.72-5.16c-1.18-2.72-2.45-5.52-3.63-8.23-5.53-10.76-9.88-21.17-12.68-31.05-3.8-12.5-5.8-28.6-5.88-48.7l-1.63 5.16c-3.79-13.86-4.97-31.06-4.88-49.88-1.55-15.65-3.53-29.42-6.33-40.37v.01Z" fill="#808180"/>
  <path fill-rule="evenodd" clip-rule="evenodd" d="M179.85 159.05c8.33 15.65 17.46 34.5 27.97 57.57a1031.42 1031.42 0 0 0-12.67 35.94c4.24-37.12-2.63-65.63-15.3-93.5Z" fill="#282727"/>
  <path fill-rule="evenodd" clip-rule="evenodd" d="M275.61 171.28c-4.53-5.88-9.13-11.77-13.67-17.65l-11.77-11.05a3.7 3.7 0 0 0-1.36 0c-.99-1.36-1.9-2.62-2.72-3.8l-7.6-7.15c-17.84-14.66-33.32-31.24-53.59-44l-8.97-5.71-5.87 1.1c2 1.62 5.97 3.62 7.87 5.25-2-.19-3.98-.27-5.97-.46 5.7 5.88 11.4 11.78 17.1 17.57 20.83 23.63 36.4 50.33 56.4 74.68a305.22 305.22 0 0 0-3.18-24.27c-2.35-5.87-2.62-9.13-1.17-9.95 1.36-1 2.8-1.9 4.24-2.8 1.18-1.27 3.8.98 6.52 3.52 6.88 5.34 14.84 13.67 23.71 24.7l.03.02Z" fill="#8D8D8B"/>
  <path fill-rule="evenodd" clip-rule="evenodd" d="M275.61 171.28c1.26 2 2.46 3.9 3.72 5.8.45 1.25 1.09 2.53 1.7 3.97 1.9 4.35 3.8 8.68 5.72 12.95.45.9.9 1.71 1.36 2.62-2.62.64-5.34 3.9-7.96 8.23l-18.19 22c-4.62 7.24-9.23 14.58-13.75 21.81 1.26-13.48.82-25.25-.45-36.2-.64-4.7-1-7.88-1.55-10.42-.55-2.53.37-10.95-.54-19.81a328.1 328.1 0 0 0-3.34-26.44c-2.35-5.87-2.62-9.13-1.17-9.95 1.36-1 2.8-1.9 4.25-2.8 1.17-1.27 3.79.98 6.51 3.52 6.89 5.34 14.84 13.67 23.71 24.7l-.02.02Z" fill="#8D8D8B"/>
  <path fill-rule="evenodd" clip-rule="evenodd" d="M111.7 70.43a10.02 10.02 0 0 0 3.8 4.25c4.53 2.8 5.25 3.53 8.78 7.96 6.33 8.15 13.85 22.35 13.4 32.95-.27 5.8-.82 13.3-2.53 21.45-2.62 12.04-49.06 24.88-47.34 19.91 1.81-4.88-17.74 19.2-26.62 28.79 2.8-11.94 5.61-23.82 8.41-35.67 7.88-29.96 25.9-53.78 42.09-79.65l.01.01Z" fill="#282727"/>
  <path fill-rule="evenodd" clip-rule="evenodd" d="M113.5 65.55c-4.35 2-1.44 6.96 2 9.13 4.53 2.8 5.25 3.53 8.78 7.96 6.33 8.15 13.85 22.35 13.4 32.95-.27 6.97-1.71 16.2-3.34 26.52 3.07-1.45 5.7-9.5 7.8-28.07.45.83.81 1.63 1.25 2.46 1.9-1.45-.72-9.96-8.33-25.98-3.07-7.88-11.67-14.93-19.1-18.83-2.26-1.44-2.98-3.52-2.44-6.16l-.02.02Z" fill="#8D8D8B"/>
  <path fill-rule="evenodd" clip-rule="evenodd" d="M59.1 132.7a5 5 0 0 0-.98-5.15c-1.55-2.17-3.18-4.35-4.7-6.6-3.71 5.34-7.51 10.68-11.22 16.02-.54-.09-1.1-.19-1.63-.19-.99 2.27-2 4.54-2.89 6.79a4.55 4.55 0 0 0-1.71 4.53l1.36 8.23a6.62 6.62 0 0 0 3.8 5.61c1.09.72 2.08 1.44 3.07 2.17 2.08.37 3.8-.27 5.07-2 2.27-3.18 4.43-6.25 6.6-9.32 2.27-3.07 4.53-6.16 6.78-9.24 1.18-4.89 1-4.25-.18-9.13-.9-1.82-2.08-2.09-3.34-1.72h-.02Z" fill="#575756"/>
  <path fill-rule="evenodd" clip-rule="evenodd" d="m55.67 153.07.18-.26 6.79-9.24c1.17-4.89.99-4.25-.19-9.14-.72-1.63-1.81-2-2.89-1.81l-2.26 1.44a82.73 82.73 0 0 0-5.71 15.39c.27.99 1.9 2.26 4.08 3.62ZM28.43 163.94c-.82-1.26-.27-2.8 1.63-2.8 5.34 2.72 10.68 5.42 16.1 8.14l10.87-8.97c2.35-1.63 5.15-1.17 6.24 2.8.83 3 .19 6.34 1.9 7.8 2.62 2.16 3.8 4.35-3.52 6.7-2.36.72-4.9.27-7.34.45-3.8 5.88-7.5 11.86-11.22 17.74a22.86 22.86 0 0 0-5.71 6.33c-1.1-.27-2.27-.64-3.34-.9-1-3.18.18-5.89.37-9.14 0-1.45-4.08-1.72-3.26-2.9 5.34-8.22 4.16-16.55-2.72-25.25Z" fill="#8D8D8B"/>
  <path fill-rule="evenodd" clip-rule="evenodd" d="M42.99 195.9a23.25 23.25 0 0 0-5.61 6.25c-1.1-.27-2.27-.64-3.34-.91-1-3 .08-5.71.27-8.69l8.68 3.35Z" fill="#575756"/>
  <path fill-rule="evenodd" clip-rule="evenodd" d="M55.94 182.58c1.25.9 2.45 1.9 3.62 2.8-.64 1.45-1.9 2.72-1.9 4.35 0 1.45-.26 1.82-1.17 3.35-1.9 3.25-2.35 7.15-3.44 10.76-.27 1-1.18 1.36-4.08 2.17-1.82.45-3.18 1.9-4.7 2.89 1.54-1.37 2.88-2.8 3.34-4.7 2.35-9.88 5.34-16.4 8.33-21.64v.02Z" fill="#8D8D8B"/>
  <path fill-rule="evenodd" clip-rule="evenodd" d="M227.9 459.12c11.14-29.15 22.46-57.94 33.6-87.07-1.18.18-2.36.45-3.54.63-10.86 27.98-21.27 56.58-32.03 84.54-1.1 2.8 0 5.26 2 1.9h-.02Z" fill="#282727"/>
  <path fill-rule="evenodd" clip-rule="evenodd" d="M291.37 205.4c-.83 5.61-2.54 12.58-6.17 22.35-4.88 14.48-11.21 27.43-19.36 38.75a121.25 121.25 0 0 0 14.48 39.46 53.45 53.45 0 0 0 19.36 18.1c-1.55 7.16-3.07 14.31-4.7 21.55a523.18 523.18 0 0 0-3.72 10.41c4.62-9.87 9.24-19.64 13.86-29.5 1.36-2.35 2.62-4.7 3.98-6.97 8.78-24.8 9.5-45.9 6.51-65.36 15.49 22.8 33.77 49.15 36.2 56.12-.53 8.15-.98 16.4-1.54 24.54-.37 6.6-.72 10.5-2.45 17.11a489.79 489.79 0 0 1-8.51 28.52c2.35-1.72 4.62-2.9 5.98-1.26.37 4.53 3.7 3.9 8.4.99 6.52-6.06 12.96-13.67 19.2-26.7.64-1.9 1.55-3.45 2.9-4.35l.36-2.36v-.26c-1.26-20.1-2.62-40.3-3.98-60.48a376.17 376.17 0 0 1-15.3-20.45 995.56 995.56 0 0 1-44-33.77c-1.62 1.7-3.89 1.7-6.32.9l-15.22-27.34h.04ZM288.1 355.3c.38-.54.73-.99 1.1-1.44l2 5.8a36.75 36.75 0 0 0-2.17 5.78 78.85 78.85 0 0 1-7.5 17.57c-1.45 2.72-2.8 5.53-4.25 8.23a154.92 154.92 0 0 1-2.27 19.92 55.95 55.95 0 0 1-3.98 11.85l-1.54.64 1.17-2.45s1-3.53 1-5.34.18-2.27.18-3.07c0-5.88.18-10.68 1.36-16.75.26-1.09.53-2.26.72-3.44.64-4.43 1.17-5.6 3.17-9.77.72-1.36 1.45-2.72 2.17-3.98.9-1.72 1.81-3.35 2.62-4.97 1.09-2.36 2.26-4.8 3.07-7.24 1.26-3.71 2.17-7.5 3.17-11.32l-.01-.02Z" fill="#8D8D8B"/>
</svg>