<svg viewBox="0 0 796 166" xmlns="http://www.w3.org/2000/svg" xml:space="preserve" fill-rule="evenodd" clip-rule="evenodd" stroke-linejoin="round" stroke-miterlimit="2">
  <path d="M775.2 134.29c.62-3.45 1.31-6.92 2.08-10.38-.8 2.35-1.6 4.91-2.33 7.65l.25 2.73Zm-32.16-67.92a380.3 380.3 0 0 1-3.44 21.03c1.2-3.66 2.36-7.27 3.49-10.8-.08-3.5-.1-6.92-.05-10.23Zm-.57-15.53c.54-1.4 1.04-2.71 1.48-3.9.29-3.54.6-6.8.93-9.69-.5 2.94-1.33 7.63-2.41 13.59Zm-30.78 12.9.01.21.07-.21h-.08Zm-1.97-20.82-1.7 1.26c.37 4.15.75 8.62 1.15 13.35l.18-.42c.16-7.27.31-12.32.37-14.2Zm-4.12 3.1.07 2.26.24.94c.38-1.57.74-3 1.06-4.25l-1.37 1.06Zm-.13-1.07a8.2 8.2 0 0 1-.1.42.74.74 0 0 0 .1-.06v-.36Zm-4.06 2.83.56-.35-.7-4.33.14 4.68ZM693.23 56c-.03 1.9-.03 3.78-.03 5.62 2.3-5.01 3.72-7.98 3.72-7.98-.78 2.98-2.03 7.63-3.59 13.38l.1 2.79 2.24-7.9c.2 1 .35 2.14.42 3.4.08-2.7.11-4.92.08-6.56l.25 6.41c1.35-3.51 2.63-6.77 3.8-9.71l.13-5.3c-2.13 1.7-4.52 3.65-7.12 5.84Zm-5.66 4.83-.15 3.51.07 1.39c.34-.25.68-.47 1.01-.67l.5-5.47-1.43 1.24Zm-4.65-1.47.1.56 2.34-1.64 1.13-5.1c-1 1.47-2.21 3.49-3.57 6.18Zm-7.7 6.26.73-.55-.41-.6-.31 1.15Zm-2.26-4.73.35 3.79.93-2.02-1.28-1.77Zm-8.85-21.23-.71 4.04 1.26 1.3-.55-5.34Zm-10.26-4.67-.99 5.7c2.38-1.23 3.89-.76 3.89-.76a7.2 7.2 0 0 0-4 1.43c-.6 3.4-1.39 7.8-2.34 12.96l1.67 5.57c1.2-.88 2.32-1.5 3.32-1.91l-.05-.37.06.36c.72-.3 1.38-.5 1.95-.63-.94-9.3-1.33-15.59-1.35-15.54.5 2.28 1.94 7.14 3.7 12.68.89-3.01 1.7-5.85 2.42-8.46-3.54-4.77-6.4-8.56-8.28-11.03Zm-5.65 11.6c.42 1.53.87 3.12 1.35 4.77 1.02-3.51 1.91-6.74 2.65-9.6a18.57 18.57 0 0 0-4 4.84Zm-1.94-5.81-1.76 6.5.35 2.43a36 36 0 0 1 2.34-3.68c-.35-1.96-.67-3.72-.93-5.25Zm-2.49 1.98.11.67.36-.75-.47.08Zm-7.46 6.88a36 36 0 0 1 2.78 4.16c1.77-3.9 3.36-7.3 4.66-10.09v-.94c-2.74.6-5.21 3.04-7.44 6.87Zm-2.36-1.26.46 1.78.42-.61c-.29-.42-.58-.8-.88-1.17Zm-4.2-16.87.5 2.06.39-3.4c-.3.42-.6.86-.88 1.34Zm-4.92 11.47 1.51-3.63c-.78 3.4-2.06 8.74-3.64 15.33l1.3.98c1.2-3.89 2.37-7.7 3.5-11.3l-.24-.03s.09-.03.26-.05l1.45-4.66-.8-5.2a65.99 65.99 0 0 0-3.34 8.56Zm-6.84 14.96.21-.86-.58-.51.37 1.37Zm-14.8-13.79a973.9 973.9 0 0 0-.14 7.83c.73 1.2 1.46 2.54 2.17 4 1.2-2.65 2.32-5.11 3.35-7.33a491.74 491.74 0 0 0-5.37-4.5Zm-3.25 3.77.03-.2-.05.17s.02.01.02.03Zm-11.13-6.1c.9 3.57 2.01 8.35 3.2 14.07.3.56.62 1.14.93 1.75 1.02-2.26 1.98-4.4 2.9-6.38-2.63-3.56-5-6.74-7.03-9.43Zm-11.41-6.86c-.05 3.31-.1 7.7-.2 12.89 3.02 3.15 5.93 6.26 8.72 9.32l.05-.03-.04.03 1.2 1.33c-1.08-3.52-2.13-6.6-3.13-9.3-.7-.82-1.07-1.15-1.07-1.15.21 0 .43 0 .64.03-2.49-6.51-4.66-10.65-6.17-13.12Zm-.5 27.61 4-2.44-.07-.9.22.82.77-.46c-1.64-2.27-3.21-4.44-4.72-6.5-.05 2.98-.12 6.16-.2 9.48Zm-3.93 2.47.7-.45c-.5-.46-.9-.8-1.2-1.03l.5 1.48Zm-13.93 9.36 1.09-.76c-.7-6.39-1.28-11.9-1.74-16.53l.65 17.29Zm-4.72 9.23.05 2.29a81.4 81.4 0 0 1 1.65-3.4l.01-.46-1.7 1.57Zm-46.6-36.54c-1.05 6.4-2.22 13.41-3.52 20.82 1.2-2.67 2.28-5.03 3.2-7.03.21-4.87.33-9.5.32-13.79Zm-.54-13.02c-.2 1.28-1.08 6.47-2.5 14.24 1-3.7 1.93-7.24 2.79-10.6a97.47 97.47 0 0 0-.29-3.64Zm-13.25 25.75c.25 2.4.49 5.02.7 7.8.2-4.8.37-9.46.53-13.96l-1.23 6.16Zm-2.31-17.05-.24.06.11 5.26c.03-.1.06-.2.1-.28.02-1.67.03-3.35.03-5.04Zm-1.41.47.56 6.38c.1-2.4.2-4.64.27-6.71-.28.09-.56.2-.83.33Zm-3.74 3.07c.43 2.78 1.03 7.07 1.6 12.48.5-1.51.97-3.02 1.45-4.5a586 586 0 0 0 .04-10.7c-1.07.62-2.1 1.54-3.1 2.72Zm-6.25 12.1c0 2.19.02 4.32.03 6.42a23.49 23.49 0 0 1 5.19-4.56c.21-4.27.35-8.67.4-13.18-2.06 2.74-3.92 6.62-5.62 11.33Zm-5.63-13.63-.03 2.16c.9-2.93 1.78-5.75 2.62-8.42.22-4.66.4-8.98.54-12.84a252.52 252.52 0 0 1-3.13 19.1ZM463.5 60.1l.15 3.66 1.73-5.68c.15-2.6.28-5.08.4-7.44l-2.28 9.46Zm-2.4-16.81a288.4 288.4 0 0 0-5.32 4.07l.07 1.5c1.4 3.65 2.79 7.49 4.11 11.47l.63-1.58.51-15.46Zm-15.98 12.7c-.04 4.17-.04 8.19-.01 12.07l.32.92.35.43c.43-5.22.9-10.3 1.37-15.12l-2.03 1.7Zm-12.11-5.31c.5 2.24 1.01 4.69 1.53 7.31l1.1 1.22c-.01-1.51-.04-3-.06-4.47a44.05 44.05 0 0 0-2.57-4.06Zm-9.3 1.8a467.1 467.1 0 0 1 3.8 4.12c-1.27-1.77-2.51-3.47-3.7-5.1l-.1.99Zm-11.95-17.14c.7 2.27 1.4 4.58 2.14 6.94 2.66 2.7 5.24 5.36 7.72 8l.43-1.12v-.03c-4.4-6-8-10.77-10.29-13.79Zm-6.02-.35-.98 5.7c2.37-1.23 3.88-.76 3.88-.76a7.2 7.2 0 0 0-4 1.43l-.16.9c-.06 3.6-.15 7.62-.27 11.95a436.7 436.7 0 0 1 2.56 4l.52-.23-.05-.36.07.35c.72-.3 1.37-.5 1.95-.63-.93-9.3-1.35-15.59-1.36-15.54.64 2.95 2.86 10.22 5.32 17.7-1.4-6.94-2.69-13.58-3.87-19.73a695.33 695.33 0 0 0-3.61-4.78Zm-1.15-1.5c-.01 1.97-.04 4.19-.07 6.61.48-1.92.88-3.64 1.19-5.15l-1.12-1.46Zm-4.36 12.88-.17 1.56.19.28.4-2.5-.42.66Zm-6.87-3.98c.3 3.22.6 6.66.9 10.28l1.72-4.71c-.93-2.01-1.8-3.87-2.62-5.57Zm-21.02 40.58.16 7.48a143.8 143.8 0 0 1 1.78-3.73c.23-6 .45-11.86.63-17.4-.8 4.4-1.67 8.97-2.57 13.65Zm-9.73-3.06.34 14.59c.55-1.75 1.09-3.51 1.62-5.26 0-.59 0-1.19.02-1.77a255.7 255.7 0 0 0-1.98-7.56Zm-4.52-13.98.49 13.37.7 3.85.63-12.1c-.62-1.82-1.22-3.53-1.82-5.12Zm-2.98-7.2c.1 2.43.27 5.55.49 9.2l.14-7.8c-.2-.48-.42-.95-.63-1.4Zm-6.33-11c.14 4.88.35 11.68.66 20.4.64.8 1.26 1.67 1.88 2.59.38-7.52.63-13.85.67-18.13a41.82 41.82 0 0 0-3.21-4.85ZM344.2 66.9c1.06 3.05 2.1 6.24 3.1 9.53l.15-4.98a56.12 56.12 0 0 0-3.25-4.55Zm-23.3-23.28c.76 8.64 1.62 18.74 2.45 29.68.11-10.91-.17-21.36-1.05-30.37-.47.2-.94.42-1.4.69Zm-4.52 3.64c.78 9 1.64 19.33 2.46 30.43l.8-2.69c.4-10.92.63-21.53.58-30.96a20.1 20.1 0 0 0-3.84 3.22Zm-1.14-11.41c-.24 2.58-.64 6.7-1.23 11.82.46-.45.92-.87 1.37-1.26 0-3.7-.05-7.23-.14-10.56Zm-22.06 37.71c-.6 1.97-1.27 4.22-1.96 6.75.3 4.03.64 8.36 1 12.84l.52-1.48c.12-6.87.28-13.03.44-18.1Zm-3.4 12.21.2 5.2c.06-.06.1-.11.17-.16l-.17.27.12 2.99.22.29c-.08-3.43-.15-6.75-.2-9.91l-.35 1.32Zm-6.06-23.2c.28 6.52.68 15.18 1.2 25.12l.22.26 1.18-3.05c.6-15.03 1.1-29.07 1.29-38.9a212.54 212.54 0 0 0-3.89 16.58ZM281.4 48.8c-.62 3.64-1.49 8.86-2.47 15.43l.16 2.36c1.32-6.23 2.7-11.62 4.1-16.3l.02-.52.02.39a159 159 0 0 1 1.17-3.71l-3 2.35Zm-3.33 2.66.35 5.13c.61-2.35 1.25-4.66 1.9-6.94l-2.25 1.81Zm-8.4 7c-.42 1.6-.78 3.3-1.1 5.08.89 7.73 1.75 17.12 2.22 27.33.55-2.91 1.11-5.82 1.7-8.68.29-6.16.6-12.37.93-18.3 0 0 .12 3.9.48 11.6.7-3.26 1.44-6.46 2.19-9.62l.24-13c-2.05 1.69-4.3 3.56-6.66 5.6Zm-1.35 2.83.88-2.43-1.07.93.19 1.5Zm-16.36-16.83c-.17 1.82-.43 4.49-.79 7.77.93.93 1.84 1.98 2.73 3.14l.71-3.92a95.67 95.67 0 0 0-2.65-6.99Zm-2.66-2.23c.7-.16 1.24-.16 1.59-.13a47.04 47.04 0 0 0-1.64-3.1l.05 3.23Zm-1.62-5.68.03.37.03-.29-.06-.08Zm-.52-.68c-3.67-4.64-6.62-4.39-8.12-3.88 2.4 2.83 4.69 6.93 6.86 11.94.49-.37.94-.67 1.38-.9l.3-4.18-.06-2.51-.36-.47Zm-10.69-1.49c-.41 2.44-2.03 11.94-4.5 25.13.99-.68 1.92-1.16 2.76-1.52a5.25 5.25 0 0 0-.05-.37l.07.36c.72-.3 1.38-.5 1.95-.63-.93-9.3-1.34-15.59-1.35-15.54.46 2.14 1.76 6.55 3.37 11.65a40.99 40.99 0 0 1 3.33-5.49c-.5-.41-.79-.6-.79-.6.4 0 .8.02 1.21.06l.29-.37a99.61 99.61 0 0 0-6.29-12.68ZM215.9 46.88c.2 1.33.43 2.97.68 4.86 1.09 4.08 3.4 10.35 6.49 17.92l.55-.9c.86-2.72 1.68-5.37 2.45-7.92-3.72-5.19-7.17-9.9-10.17-13.96Zm-9.96-13.26c-.56 3.5-1.24 7.23-2.01 11.14-.05 3.05-.09 6.02-.1 8.93 3.59-6.87 6.92-9.57 9.26-10.6-3.21-4.3-5.7-7.57-7.15-9.47Zm-12 21.96c.27-.12.54-.24.8-.33l-.51-.9-.3 1.23Zm-10.95 4.82c.82.32 1.75.8 2.76 1.54-.45-2.44-.9-4.91-1.33-7.43l-1.43 5.89Zm.15-13.4-3.54 12.87.11-.02a1020 1020 0 0 1 3.93-9.85l-.5-3Zm-15.66 15c.84.06 1.67.22 2.48.52.46-5.17.96-10.14 1.46-14.81L167.48 62Zm-6.88-11.75-.52.81.64.74-.12-1.55Zm-12.02 1.73-.22 10.27c1.12-1.2 2.3-2.2 3.51-2.96.24-.54.48-1.07.73-1.58l-4.02-5.73Zm-7.86-11.01c-1 .88-1.95 1.96-2.88 3.22a384.66 384.66 0 0 0 5.93 18.94c.66.03 1.3.13 1.95.31l1.39-4.24.04.22c.26-2.82.5-5.64.71-8.46-2.46-3.48-4.85-6.82-7.14-10Zm-18.05-24.48c.53 2.04 2.82 11.4 5.29 25.29.13-.98.28-1.89.45-2.7 0 0-.17.93-.45 2.71.67 3.74 1.34 7.8 2 12.14 2.56-5.22 5.08-8.73 7.36-11.1l-.08-1.03.21.89c.98-1 1.9-1.78 2.78-2.4a1435.29 1435.29 0 0 0-17.56-23.8Zm.07 52.39.68 2.44c.45-1.52.9-2.97 1.35-4.36l-.82-4.15c-.34 1.66-.75 3.7-1.21 6.07Zm-.65-14.78a561.6 561.6 0 0 1-.96 9.32l.85 2.82c.54-1.67 1.1-3.32 1.66-4.94a399.6 399.6 0 0 0-1.55-7.2Zm-1.46 16.42.82-2.64-.5-2.82c-.17 1.5-.35 3.06-.55 4.65l.23.8Zm-14.16-26.73a187 187 0 0 0-.72 6.54c2.11 4.81 4.17 10.27 6.16 16.15.15-.06.3-.1.46-.15.55-3 1.11-5.83 1.66-8.46-2.2-6.37-4.71-11.3-7.56-14.08Zm-5.2-2.51.7 1.25.32-1.13c-.34-.07-.67-.1-1.01-.12Zm-2.79 13.37.14 3.09.35-1.9-.49-1.2Zm-3.1 16.68c.33.56.67 1.14 1 1.75.48-4.1 1.12-8.86 1.99-13.89l-.04-4.93c-.76-1.9-1.45-3.56-2.05-5-.6 6.72-.87 14.2-.9 22.07ZM83.31 56.8l.13 1.93.23-1.22-.36-.71Zm-3.02-5.36c-.28 2.58-.57 5.3-.86 8.16 1.15-2.51 2-4.3 2.44-5.23v-.24a77.56 77.56 0 0 0-1.58-2.69Zm-3.76-5.35-1.06 5.86 1.1 7c.58-3.52 1.18-7 1.8-10.44-.7-.97-1.3-1.78-1.84-2.42Zm-3.82 20.59c.24 2.07.5 4.1.77 6.1.48-1.09.94-2.14 1.4-3.15.44-2.95.9-5.89 1.38-8.79l-.93-8.14c-.76 4.17-1.64 8.88-2.62 13.98Zm-6.04-10.05a293.88 293.88 0 0 1 2.83-29.21c-1.66 7.8-2.52 17.94-2.83 29.2Zm-6.43 9.91c.15 1.83.29 3.74.41 5.72l.61-4.26c-.33-.51-.67-1-1.02-1.46Zm-12.68 38.4.6 7 .9 2.44.5-.95c.36-1.5.7-3.02 1.04-4.57a51.89 51.89 0 0 0-3.04-3.92Zm-7.81-27.08L40 77l.02-.2-.26 1.06Zm-9.24-2.2c-2.23 9.17-4.6 18.92-6.95 28.5.55-1.22 1.1-2.41 1.67-3.6 2.11-6.41 4.32-12.79 6.52-18.91l-1.24-5.98Zm9.6 66.7a137.4 137.4 0 0 1-1.6 5.75 196 196 0 0 0 1.75-4.36l-.14-1.38Zm273.41-88.25a58 58 0 0 0 .76-2.6s-.27 1.2-.79 3.36c-.2 4.8-.28 9.83-.27 15l1.57 5.25.2-5.8-.11-.33.1.3c.23-7.27.37-14.33.39-20.91a34.1 34.1 0 0 0-1.67 2.16 263.9 263.9 0 0 0-.18 3.57Zm-32.3 29.28-.04-4.74c.06 1.34.18 3.06.34 5.09l.4.45c.13-4.77.27-9.58.43-14.24a430.8 430.8 0 0 0-1.97 12.49l.84.95Zm-28.7-20.34.28-1.53c-.48-.8-.94-1.54-1.4-2.25.38 1.24.76 2.5 1.13 3.78Zm-5.5-16.38c.08-1.02.14-2.02.2-3-.36.26-.72.55-1.07.88.3.69.59 1.4.88 2.12Zm-7.4 8.79-.12.48c1.06 3.31 2.23 6.8 3.36 10.1 1.12-2.78 2.33-5.84 3.52-8.85l.03-.6c-.9-2.55-1.78-4.9-2.64-7.05-.31-.32-.6-.6-.87-.83a45.7 45.7 0 0 0-3.27 6.75Zm-4.26 5.71a84.7 84.7 0 0 1 1.37-3.46v-.03c-.64.2-1.27.48-1.88.82.16.8.33 1.69.5 2.67Zm-.71 1.97.5-1.41c-.1-1.14-.21-2.2-.35-3.2-.89.49-1.76 1.12-2.6 1.87l2.45 2.74Zm-7.3 3.81.34-1.07-.18.29-.15.78Zm-8.5 11a73.6 73.6 0 0 1 2.75-5.72c-2.83-11.04-4.64-18.77-5.02-20.4.82 6.28 1.8 15.4 2.26 26.13Zm-25.17-21.38-.04 2.38c0 .86 0 1.71.02 2.57l1.61-5.3-.32-.58c-.4.18-.8.4-1.2.64l-.07.3Zm-14 3.35-.1-.01-.25.89.35-.88Zm.55 11.83c1.8-3.68 3.6-6.58 5.32-8.86a11.66 11.66 0 0 0-2.67-2.05l-2.65 10.9Zm-10.62-5.33.15-1.72a23.77 23.77 0 0 0-2.4-2.3l-.25.92 2.5 3.1Zm-25.2-1.38.7-.45c-.5-.46-.9-.8-1.2-1.03l.5 1.48Zm-13.4-3.76c2.47 1.59 4.82 4.32 7.05 7.85.55-.55 1.1-1.04 1.67-1.45a561.54 561.54 0 0 1-2.27-22.97c-2.51 3.58-4.76 8.47-6.78 14.25l.32 2.32Zm-8.94 14.82.48-1.75-.4-2.42-.48 2.55.4 1.62Zm-12.14-4.2 1.01 2.6.15-.91c-.24-.8-.48-1.6-.73-2.38l-.43.69Zm-.78-3.78.2-.15-.51-1.65.31 1.8Zm-4.34 5.13v-1.97l-.06-.18-.01 2.28.07-.13Zm-9.44 3.26.48 1.56.04-.47-.52-1.35v.26Zm-17.01-5.99 1.04 6.8c.4-1.19.9-2.38 1.43-3.45.24-1.58.48-3.14.73-4.66.1-5.35.2-10.13.3-14.18-.77 2.89-1.84 6.88-3.14 11.66l-.36 3.83Zm203.48 16.85.07-2.72-.35-.51c.08 1 .17 2.09.28 3.23ZM261.5 67.14l.03-.1c.07.32.14.66.19 1l.48 1.94.08.18.55-5.73-1.66 1.5.33 1.21Zm-24.12-3.33-.5 1.88.14.16.56-.34-.2-1.7Zm-8.28 10.52c.1.54.18 1.11.24 1.73a45.89 45.89 0 0 1 2.58-4.52l.36-.81.23-.82-2-2.82-1.4 7.24Zm-23.15-7.08c-.48-.84-.78-1.24-.78-1.24a30.45 30.45 0 0 1 5.44 6.3c1.01 1.18 2 2.56 2.95 4.15.57-5.76 1.02-11.78 1.3-18.03-3.85.56-7.25 3.39-10.25 7.81.43.3.88.62 1.34 1Zm-23 9.7a991.7 991.7 0 0 1 3.75-9.93l-.43-2.23a67.8 67.8 0 0 0-4.71 10.25c.48.63.94 1.26 1.38 1.9Zm-50.85-6.97.82 2.71c.8-.56 1.61-1.12 2.43-1.67a58.17 58.17 0 0 0-3.8-5.59l.55 4.55Zm-43.2 12.01c.42-3.11.87-6.13 1.32-9.03-.53-1.5-1.06-2.9-1.59-4.25l.28 13.28Zm-1.96-17.44-.21-.48-.02.97.23-.5Zm-.25 8.78c.05 5.5.2 11.13.43 16.75.51-8.47.93-16.22 1.15-22.29l-.04-.11-1.54 5.65Zm-8.24 7.1c-.2-1.66-.37-3.3-.55-4.9-.3 3.36-.6 6.86-.9 10.48.44-1.9.92-3.76 1.45-5.57Zm125.4-13.03.02.77a7 7 0 0 1 2.32.6c-.63-.75-1.28-1.4-1.95-1.96-.13.2-.26.39-.38.6Zm-50.58 1.75-.32-3.05-.7 1.86c.35.38.69.78 1.02 1.19Zm-5.06-.97.1-.13-.1-.12v.25Zm-7.77 5.12-.24-1.84-.4.64c.21.4.43.78.64 1.2Zm-72.28 36.08-.14-.68.05.91.09-.23ZM237.96 77.9l.05-.12-.08-.1.03.22Zm-2.91-4.38-.58 1.07-1.75 6.4c-.22 1.16-.45 2.34-.66 3.53 1.05-1 2.12-1.98 3.22-2.98.11-2.55.19-5.02.22-7.37l-.45-.65Zm-31.16-4.42c2.36 7.1 4.5 15.42 6.39 24.06.56-1.7 1.12-3.4 1.7-5.07a79.42 79.42 0 0 0-2.36-11.69c-2.66-4.45-4.75-6.75-5.74-7.7l.01.4Zm-54.84 8.6.42.99 1.95 4.87c.98-1.04 1.97-2 2.96-2.88l.17-.42-.42-3.55a73.94 73.94 0 0 0-3.15-5.08c-.64 1.9-1.28 3.9-1.93 6.06Zm-13.5 3.7a118.3 118.3 0 0 1 2.9-4.62c.12.01-.86 2.28-2.38 6.38l.6 1.98c.8-2.36 1.66-4.67 2.59-6.92l-1.4-2.78a92.44 92.44 0 0 0-2.58 5.07l.26.89Zm124.13 11.13 1.08-5.06.63-7.18c-.45 3.36-1.13 7.05-1.97 10.95l.26 1.29Zm-55.27-5.11c.7-.26 1.34-.41 1.9-.52-.74-2.87-1.47-5.55-2.2-8.03.08 2.94.18 5.79.3 8.55Zm-52.13-1.69 1.7-4.1c-.53.76-1.25 1.8-2.1 3.08l.4 1.02Zm-30.63 14.3 1.19 4.71.04-.14.12-4.15a515.2 515.2 0 0 0-.58-4.08c-.24 1.2-.5 2.42-.77 3.66Zm-2.46 15.74c-.25 2-.49 3.98-.71 5.95.4-1.37.8-2.73 1.24-4.1a392 392 0 0 0-.53-1.85Zm14.75-26.52c.1 1.33.19 2.68.27 4.03l.02-.06c.1-.42.24-.84.35-1.27l-.63-2.72-.01.02ZM207 92.5c-.43.95-1.16 2.55-2.09 4.71.19 3 .39 5.9.61 8.65.62-1.12 1.24-2.21 1.87-3.28v-.05c-.12-3.45-.25-6.82-.39-10.03Zm-.64-5.37c-.66.18-1.31.42-1.94.72.1 2.46.23 4.84.36 7.16.72-1.01 1.46-2.01 2.2-2.99l-.13-2.91-.5-1.98Zm-51.4-26.02c-.43 1-.87 2.05-1.31 3.19l2.38 8.78.9 1.51 2.82-6.51c-1.6-2.36-3.2-4.68-4.79-6.97Zm-6.42 2.87-.24.32v.27c.39.24.77.5 1.15.78.37-1.03.75-2.03 1.13-3l-2.04 1.63ZM280.24 83.5l.97 14.2.17-.37.06-1c-.11-4.98-.17-9.34-.2-12.66-.32-.44-.6-.82-.86-1.15l-.14.98Zm-66.88-40.04c-3.68 2-6.84 7.41-9.55 14.96 0 2.18.01 4.3.03 6.4 4.86-5.56 9.04-6.5 11.03-6.58.18-4 .29-8.11.32-12.32l-1.83-2.46Zm37.58-1.26a6.4 6.4 0 0 0-1.63.35l.14 6.7.05-.1c.57-2.52 1.1-4.76 1.57-6.67l-.13-.28Zm92.7 24c.64 15.62 1.42 36.13 1.93 55.41.03-.48.05-.94.09-1.39.49-6.85.96-21.45 1.47-38.43a380.2 380.2 0 0 0-3.25-15.3l-.23-.28Zm363.61-11.86c.03-2.62.06-5.18.05-7.67a145.8 145.8 0 0 0-.63 5.46l.58 2.21Zm-1.82-6.99.02-1.22-.27.22.25 1ZM702.41 50l-.23-1.3c-.24.19-.48.37-.72.58l.09 2.85.86-2.13Zm-.38 16.14.25-.15c.53-2.74 1.05-5.33 1.57-7.73l-.67-3.74-1.36 5.66.2 5.96Zm-14.34 4.14c.12.12.24.26.35.4.13-1.6.25-3.2.39-4.76-.3.25-.6.52-.9.8l.16 3.56Zm-3.71-5.23.25-1.26-.4.36.15.9Zm-12.85-6.7c-.04.34-.09.68-.12 1.04-.03.57-.06 1.17-.07 1.75l.58 1.93-.02-4.22-.37-.5Zm-7.86 6.94 2.95-6.44c-.37-3.1-.7-5.98-.99-8.6-.83-1.15-1.63-2.23-2.41-3.28-.57 3.2-1.25 6.87-2 10.94.79 2.45 1.63 4.96 2.45 7.38Zm-6.63-.66.28-.9-.2-1.27.3.94.73-2.38-.35-3.34c-.64.21-1.27.5-1.88.83.32 1.63.7 3.68 1.12 6.12Zm-1.91 3.88.52.6c.28-.91.56-1.82.85-2.71-.11-2.93-.31-5.58-.62-7.87-1.08.6-2.11 1.37-3.11 2.33.75 2.47 1.54 5.03 2.36 7.65Zm-6.55-2.33-.58 3.03c1.54.42 3.02 1.4 4.46 2.83l-.52-2.7c-.8-.85-1.25-1.2-1.25-1.2.35 0 .68.03 1.03.07l-.98-5.1a32.5 32.5 0 0 0-2.16 3.07Zm.64-3.37c.42-.44.83-.85 1.23-1.23l-.5-2.64c-.23 1.25-.47 2.55-.73 3.87Zm-2.51-.56c.84-2.76 1.64-5.41 2.38-7.94l-1.18-6.5a48.42 48.42 0 0 0-2.27 4.77c.34 2.76.72 6.01 1.07 9.67Zm-2.68-10.21.04-1.73-1.07 3.92c.34-.77.69-1.5 1.03-2.2Zm-.5 6.23c.1 0 .2 0 .28-.02l.04-.93-.32.95Zm-6.38.72 1.45-3.22a41.05 41.05 0 0 0-2.55-4.95c-.24.44-.47.9-.7 1.38.57 2.22 1.18 4.49 1.8 6.79Zm-15.45 1.46c.14.9.27 1.83.4 2.78l.7-2.3-.98-.91-.12.43Zm-10.35 2.38c1.4 1.57 2.78 3.13 4.12 4.67l.18-.48c-.77-4.06-1.54-8.23-2.29-12.5l-2 8.3Zm-2.68-3c1.24-3.13 2.37-6 3.39-8.52l-.93-.8-2.54 9.23.08.1Zm-11.2 7.72.9 1.14c.38-4.44.77-8.76 1.17-12.91l-1-1.38-2.55 9.2c.5 1.26 1 2.58 1.47 3.95Zm-12.48 5.54.9 1.51 2.66-6.12c-2.07-2.93-4.08-5.76-6.02-8.44l-.9.69 3.36 12.36Zm-7.74-8.5a19.69 19.69 0 0 1 4.98 4.57c-.4-3.73-.68-6.57-.85-8.24-1.19.93-2.57 2.01-4.11 3.25l-.02.41Zm-17.23 25.57c.87.41 1.74.93 2.58 1.54l-.82-6.95c-.22-.54-.44-1.01-.65-1.4l.61 1.04c-.22-1.86-.43-3.67-.62-5.43-.48.95-.95 1.92-1.4 2.94l.3 8.26Zm-14 1.82c-.73 4.04-1.54 8.05-2.44 11.88l.22 3.77c.95-3.03 1.93-6 2.95-8.9v-7.47l-.73.72Zm-20.15 21.71.13 1.81.75-2.08-.17-.57-.71.84Zm-44.87-32.1c1.46-4.38 2.9-8.76 4.32-13.1.18-2.38.33-4.78.47-7.24a25.88 25.88 0 0 0-5.11 6.16c.05 4.97.17 9.68.32 14.18Zm-23.9-12.8c.81-2.15 1.61-4.22 2.38-6.2-1.6-7.25-2.8-11.94-3.23-13.52.26 6.01.56 12.67.84 19.72Zm-33.8-9.38c-.04.9-.08 1.82-.1 2.74.8.76 1.59 1.67 2.36 2.73.5.32 1 .7 1.49 1.1l1.2-.9a998.86 998.86 0 0 0-4.83-6.74c-.03.36-.08.7-.12 1.07Zm-4.13-1.77c.45-1.13.88-2.26 1.3-3.35-1.47-2.04-2.88-3.96-4.2-5.77.94 2.98 1.9 6.03 2.9 9.12Zm-11.3 1.72-.1-.83c-.1.06-.2.1-.3.17l.4.66Zm-52.23 18.29a1822 1822 0 0 1-.18-19.04 75.25 75.25 0 0 0-3-5.87c.15 4.26.4 11.4.66 20.21a68.1 68.1 0 0 1 2.52 4.7Zm394.7 47.53c-1.04 5.24-2.13 10.82-3.22 16.14 1.25-4.41 2.63-8.8 4.16-13.05-.33-1.02-.64-2.06-.94-3.1Zm-47.88-58.03.04-.21-.04.04v.17ZM676.5 78.86l.6 1.87c.68-1.57 1.35-3 2.03-4.3l1.07-3.26v-2.1l-1.5-2.13c-.78 2-1.57 4.2-2.38 6.6.12 1 .18 2.12.18 3.32Zm-17.95-5.44c.22.3.46.61.68.93l.1-.22c-.23-1.7-.45-3.38-.65-5.03l-.35 1.81.22 2.5Zm-.27-.35-.16-1.09-.13.72.29.37Zm-11.2-1.17.16 2.77c1.65 1.5 3.25 2.98 4.81 4.47l.47-1.43a43 43 0 0 0-5.18-7.2l-.27 1.4Zm-14.7-9.82.5.4-.52-2.83.01 2.43ZM612.1 75.34l.35-.96-1.05-1.51.7 2.47Zm-35.51-.2a1109.9 1109.9 0 0 1 3.38 8.43c.98-1.05 1.97-2 2.95-2.9.07-.13.12-.27.18-.4-.15-1.23-.3-2.41-.42-3.56a63 63 0 0 0-5.9-8.78l-.2 7.2Zm-16.4 29.99c.37-.56.74-1.11 1.12-1.65l1.67-5.23-.3-2.5a43.5 43.5 0 0 0-2.96-2.98l.47 12.36Zm-4.59-12.81.03-.73-.1.36c.01.12.04.24.07.37Zm-4.1-1.55.17-2.44c-.09.33-.18.66-.26 1.02l.1 1.42Zm147.81-17.35-.02-2.82-1.2 4.95c.41-.75.81-1.47 1.22-2.13Zm-1.71 8.94 1.46 1.84c.11-.34.24-.69.37-1.03l-.08-5.46c-.6 1.46-1.19 3.01-1.75 4.65Zm-57.38-13.83 2.43 2.07.1-1.38c-.46-1.7-.94-3.36-1.42-4.94-.38 1.38-.75 2.8-1.1 4.25ZM607.2 82.11l1.64 2.08 1.75-4.77c-.66-2.32-1.32-4.5-1.97-6.52-.33 2.86-.82 5.95-1.42 9.2Zm-26.36 3.63 1.7-4.13a176 176 0 0 0-2.11 3.1l.4 1.03Zm56.25-2.08-.16.96.25-.69-.07-.3c0 .02 0 .02-.02.03ZM515.93 95.5l.15-1.55-.2.56.05.99Zm.14-7.27-.05.23.28-.5-.13-.24c-.02.18-.06.35-.1.51Zm-56.03-13.09.04-.88c-.2.76-.38 1.53-.57 2.3l.53-1.42ZM402.8 86.25c1.63-1.57 3.3-3.14 5.05-4.71.08-2 .15-3.95.18-5.84a644.4 644.4 0 0 0-4.2-10.08c-.25 6.48-.59 13.42-1.03 20.63Zm29.3-15.19-.3-.41.3 1.06v-.65Zm-7.74 3.65c.1.33.2.66.32.98a748.87 748.87 0 0 1 3.64 9.08l1.14-3.49c-1.2-3.1-2.36-5.8-3.46-8.14l-1.64 1.57Zm-1.7-5.66.9-.69a41 41 0 0 0-.87-1.5l-.02 2.2Zm9 24.26.02-.7-.1.49.08.21Zm-18.24 21.75.01.07c.07-2.16.16-4.3.27-6.43l-.43 2.06c.06 1.42.11 2.85.15 4.3Zm230-56.64-.36.07-.66 2.09c.27.63.53 1.3.8 1.98.08-1.37.16-2.74.21-4.14Zm56.08 11.35-.02.07.18 3.04.2-.31.07-3.34-.43.54ZM353.45 99.34c.49 2.06.97 4.11 1.43 6.17.13-5.48.26-11.96.4-18.98-.78-1.83-1.56-3.54-2.31-5.12l.48 17.93Zm-3.06-12.08.58-9.82c-.43-.8-.85-1.56-1.27-2.28l.45 11.22.24.88Zm23.8 2.07c-.48 1.58-1.02 3.47-1.6 5.61l.39 17.75.31-.86c.31-7.4.61-15.03.9-22.5Zm35.1-31.66c-.64.21-1.27.5-1.88.83l.22 1.09 2.26 3.66c-.22-1.95-.42-3.81-.6-5.58ZM0 165.87c.12-11.6 4.06-28.68 9.44-46.75-.25-23.86 1.84-50.23 4.04-70.9-.47-7.3-1.28-13.86-2.51-19.2-.06-.23 1.35 4.5 3.23 12.65a803.26 803.26 0 0 1 3.94-30.13A907.72 907.72 0 0 0 16.6 52.9c1.7 8.55 3.44 18.94 4.74 30.36.8-2.2 1.58-4.38 2.37-6.51l4.16-14.76a889.31 889.31 0 0 1-8.03-52.44s4.32 20.7 11.42 47.3a949.2 949.2 0 0 1 9.37-23.2c-1.35 5.83-4.05 17.07-7.35 30.65.68 2.45 1.38 4.94 2.1 7.45 2.2-5.95 4.34-11.5 6.26-16.43l.12-1.28c.09-3.5.13-7.05.13-10.68 0 0 .22 1.18.56 3.33 2.39-24.48 5.08-42.4 5.08-42.4-.8 14.52-1.28 27.8-1.48 39.95 2.66-6.6 4.35-10.58 4.35-10.58-.91 3.96-2.49 10.54-4.45 18.68a918 918 0 0 0-.02 4.64C53.03 33.5 60.37 10.8 60.37 10.8c-.28 15.07-6.74 43.75-14.04 71.67.23 6.72.56 12.94.96 18.68 1.43 1 2.8 2.32 4.12 3.87 2.51-12.43 4.42-26.4 5.33-41.98a7.95 7.95 0 0 0-4.38-1.5s1.74-.45 4.41.87c.36-6.31.56-12.87.56-19.7 0 0 1.6 8.67 2.77 22 .47.43.96.9 1.45 1.45 3.34-21.8 7.47-37.21 8-39.07.44-2.85.74-4.43.74-4.43 0 13.22.6 25.3 1.62 36.37 1.1-3.61 2.1-7.02 2.98-10.15L74.53 46l.43 2.65.92-3.34c-.99-1.13-1.56-1.59-1.56-1.59a7 7 0 0 1 1.93.24c1.1-4.1 1.94-7.57 2.44-10.2 0 0-.65 3.87-1.8 10.38.7.24 1.4.6 2.09 1.05a549.88 549.88 0 0 1 5-24.21c.14.02-1.28 9.33-3.14 25.68.4.37.8.78 1.2 1.22l.2-7.1.54 7.95c.71.87 1.42 1.85 2.11 2.91a238.48 238.48 0 0 1 4.86-19.34c-1.45 6.3-2.31 14.2-2.73 22.95.47.89.94 1.82 1.4 2.8l-.02-1.55c.03.45.05 1 .06 1.6l.72 1.55c1.76-3.8 2.82-6.01 2.82-6.01-.5 1.93-1.2 4.57-2.06 7.74.54 1.25 1.07 2.56 1.59 3.9l.5-2.72c.25-8.55.38-15.4.3-19.28l.56 14.83c.84-4.2 1.66-7.96 2.4-11.17a156.75 156.75 0 0 0-1.76-3.97c.73.69 1.44 1.46 2.16 2.3a195.5 195.5 0 0 1 2.74-10.57c-.79 3.43-1.4 7.34-1.87 11.63.58.74 1.16 1.53 1.74 2.35-.04-2.02-.04-3.74.01-5.11v5.13c.53.77 1.07 1.59 1.6 2.43.47-2.23 1-4.47 1.56-6.7-1.6-4.43-2.56-6.93-2.56-6.93.79 1.14 1.58 2.4 2.36 3.77.1-.02.47-.11 1.07-.07l.4-1.4c-.29-1.8-.61-3.5-.98-5.1-.03-.13.44 1.43 1.2 4.37 2.4-7.95 5.51-15.25 9.53-20.28 0 0-3.62 6.93-5.9 24.15 2.32 1.7 5.2 5 8.21 11.34a239.8 239.8 0 0 1 4.43-17.58c-1.4 5.9-2.24 13.3-2.68 21.57.33.82.66 1.68 1 2.57 1.3-3.94 2.53-7.84 3.52-11.12-.98-4.15-1.58-6.42-1.5-6.42.66 1.59 1.31 3.24 1.95 4.92a93.6 93.6 0 0 0 1.54-5.66c-.02-.03-.22 3.03-.66 8.04.85 2.33 1.68 4.74 2.48 7.22l.1-.3c.03 0 0 .16-.05.47l.7 2.16c0-4.22-.05-8.36-.15-12.37l-.1-.54.1.3c-.33-12-1.2-22.8-2.85-31.1-3.42-4.53-5.42-7.11-5.42-7.11a664.82 664.82 0 0 1 28.1 28.78 5.16 5.16 0 0 1 1.83.03c-.54.01-1.07.09-1.6.2l2.92 3.22c.24-4.56.4-9.06.47-13.46 0 0-.05 5.27-.18 13.78 2.73 3.03 5.37 6.02 7.91 8.95l.03-.03a17.02 17.02 0 0 0-2.3-2.76c1.24-.03 2.47.4 3.66 1.22.75-.75 1.52-1.34 2.3-1.77-.48-4.74-1.13-9.06-2-12.79-.05-.22 1.32 4.36 3.16 12.29a5.38 5.38 0 0 1 1.78-.27s-.53.5-1.45 1.73c.51 2.25 1.06 4.73 1.61 7.42.32.57.63 1.15.94 1.77 3.22-7.16 5.96-13 7.8-16.9 2-17.4 3.84-29.2 3.84-29.2a886.8 886.8 0 0 0-1.6 46.62l.48 1.72c3-6.71 5.64-12.41 7.61-16.6a915.78 915.78 0 0 1-4.79-33.73s2.5 11.99 6.82 29.44c1.06-2.22 1.67-3.46 1.67-3.46l-1.3 4.9c.32 1.3.65 2.63 1 3.98 1.32-3.24 2.1-5.07 2.1-5.07-.41 1.8-.97 4.15-1.63 6.94.71 2.78 1.46 5.67 2.25 8.64.32-2.36.64-4.66.98-6.88a6.02 6.02 0 0 0-.36-.32h.4l.33-2.18a49 49 0 0 0-.73-5.14s.33 1.49.87 4.28c3.26-20.9 6.66-34.41 6.58-34-1.34 6.88-2.17 15.42-2.63 24.94a198.3 198.3 0 0 1 2.58-10.36c-1.4 6.37-2.25 14.4-2.69 23.35 2.36-5.8 3.83-9.27 3.83-9.27-.63 2.73-1.58 6.7-2.75 11.57.46.5.9 1.08 1.34 1.7l2.86-9.22c-.03-3.26-.09-6.37-.18-9.3l.7 7.63 1.6-5.14a866.68 866.68 0 0 1 4.05-32.28c-.44 7.95-.78 15.52-1.04 22.75 2.06-6.49 3.38-10.57 3.38-10.57-.08 4.5-.71 10.2-1.75 16.73a575.6 575.6 0 0 1 9.37 9.3c.67-.03 1.05.09 1.05.09-.3 0-.6.04-.89.08 4.28 4.34 8.31 8.6 12.15 12.76 2.74-9.23 4.78-16.85 5.7-21.68 0 0-1.55 9.29-4.16 23.34l.87.96c3.01-10.03 5.3-18.39 6.35-23.71-2.97-4.94-4.88-6.64-4.88-6.64 2.52-.09 4.95 1.37 7.27 4.03 2.68-1.56 5.77-.27 8.63 2.68l-.02-.33.04.36.37.4c.7-9.4 1.24-15.22 1.24-15.22 0 5.82.05 11.43.11 16.85a32 32 0 0 1 2.43 3.73c.95-3.68 1.54-5.66 1.5-5.5-.44 1.89-.81 3.94-1.15 6.12a41.6 41.6 0 0 1 1.57 3.24 118.9 118.9 0 0 1 1.7 3.9c2.22-12.05 3.8-19.88 3.8-19.88.73 10.45.98 21.82.9 33.4l.02.13c1.12-.8 2.24-1.6 3.4-2.4a218.1 218.1 0 0 1 2.23-16.6s.95 5.16 2.07 13.62c2.81-1.9 5.7-3.82 8.7-5.72.25-10.79.47-17.4.47-17.4l1.09 16.4 2.94-1.83 1.5-4.96c.07 0-.2 1.56-.7 4.47l3.1-1.87a100.9 100.9 0 0 1 2.92-7.6l-.03-1.93.07 1.82c8.52-19.56 16.59-17.17 16.59-17.17-6.54.23-11.75 9.19-15.88 22.7l1.5-.88s-.57.4-1.6 1.16l-.36 1.2c.18 4.49.38 10.11.62 16.5.02-.88.02-1.65 0-2.32.13 2.97.45 9.78.83 18.72l.53-1.2c-.12-8.5-.14-15.15-.16-18.48.12 3.64.47 9.53.99 16.72.81-1.72 1.65-3.43 2.5-5.08.23-6.78.42-10.82.42-10.82.25 2.75.5 5.6.78 8.56.51-.95 1.03-1.9 1.56-2.82.1 0-.47 1.57-1.41 4.46l1.28 13.84 1.24-3.34c.64-11.95.65-22.51-.45-29.54a317.7 317.7 0 0 1 3.43 21.16c.32-.84.66-1.66.98-2.46-2.64-19.35-3.67-35.74-3.7-35.67.9 4.1 4.61 15.94 8.08 26l.93-2.33c-3.46-19.6-5.58-33.32-5.58-33.32 1.09 6.18 3.75 16.57 7.27 29.06 2.64-6.68 5.3-13.58 6.7-17.43.1-.43.21-.85.32-1.23-1.15-12.33-1.96-19.9-1.96-19.9 1.06 4.51 1.69 11.4 1.98 19.8.86-3.2 1.39-4.91 1.35-4.77-.44 1.87-.83 3.9-1.18 6.04l-.05.45c.3 3.21.62 6.72.95 10.47a21.32 21.32 0 0 1 3.97-2.49c-.02-3.2-.08-6.25-.18-9.14l.8 8.86c.5-.21.97-.38 1.42-.52-.52-5.08-1.23-9.7-2.17-13.67-.05-.24 1.46 4.74 3.5 13.32 2.03-.41 3.25-.14 3.25-.14-1.09.02-2.14.2-3.17.5a366.1 366.1 0 0 1 3.7 17.65c-.14-16.7-.07-28.22-.07-28.22a919.38 919.38 0 0 0 3.16 38.72 310.9 310.9 0 0 0 6.27-12.08s-1.41 12.81-4.57 27.67c.67 5.78 1.37 11.46 2.08 16.96 1.4-24.68 5.4-46.77 8.37-60.45 0-.5-.02-.95-.04-1.36l.07 1.27c2-9.2 3.53-14.58 3.47-14.32-1.64 7.45-2.52 17.13-2.88 27.9.1 2.1.2 4.38.29 6.8 1.41.7 2.78 1.74 4.1 3.1.2-6.32.4-12.72.63-19-1.05-1.24-1.65-1.69-1.65-1.69.57 0 1.13.08 1.7.24l.25-6.97s.05 2.38.18 7.12c2.52.98 4.91 3.75 7.15 7.82.24-11.78.52-23.2.88-32.54 0 0 .33 14.65 1.06 36.44a88.3 88.3 0 0 1 2.45 6.1c.66-14.07 1.09-25.6 1.01-31.17.17 5.2.6 19.55 1.07 37.35.8 2.57 1.58 5.27 2.33 8.07.28-26.44.87-45.67.87-45.67.82 13.34 1.8 28.94 2.79 44.7 1.04-3.47 2.06-6.9 3.04-10.24.23-5.48.39-10.1.4-13.45l.21 11.38c1.2-4.12 2.35-8.1 3.43-11.9.2-7.8.3-14.05.22-17.78l.52 15.12c3.21-11.47 5.62-20.97 6.64-26.78 0 0-2.4 15.56-6.28 37.24l1.34 38.57.35-1.14c-.46-18.58-.55-34.92-.57-40.83.14 4.73.66 13.23 1.37 23.48.2.75.96 3.83 2.02 8.47 1.16-3.52 2.31-6.97 3.48-10.28.6-12.04.6-22.67-.43-29.75.8 4.26 2.07 11.8 3.28 21.91l.92-2.4c-2.52-19.77-3.51-36.66-3.53-36.58.83 4.13 4.29 16.04 7.52 26.17l.45-1.21c.09-5.52.12-10.8.05-15.73A324.37 324.37 0 0 0 387 29.57c1.96 2.62 3.86 5.2 5.7 7.78-.02-1.11-.05-2.2-.09-3.27.12 1.16.22 2.37.34 3.6 1.53 2.14 3.01 4.24 4.46 6.34a378.91 378.91 0 0 0 4.18-12.1s-.36 4.89-1.13 12.37l.53-.6c1.39-8.46 2.61-15.7 3.62-21.04 0 0 .04 3.84 0 10.4l1.25 1.22.1-.51-.1.52 3.02 2.96c-4.17-22-6.7-37.24-6.7-37.24 1.36 7.23 4.73 19.4 9.2 34.03 4 3.92 7.85 7.77 11.5 11.55a192.15 192.15 0 0 1 2.83-10.88 90.43 90.43 0 0 0-1.53 8.77l.58-1.64s-.16 1.92-.48 5.19c2.52 2.62 4.96 5.2 7.32 7.75-.14-2.21-.3-4.36-.5-6.43l-.3-.3.27.01c-.48-4.96-1.14-9.47-2.04-13.35-.05-.23 1.46 4.86 3.45 13.58a8.2 8.2 0 0 1 3.05 1.82l-.12-12.37c-.2-1.04-.4-2.05-.62-3.03l.61 2.18c-.11-16.13-.04-26.83-.04-26.83.87 13.7 2.11 27.68 3.58 41.41.3 1.4.62 2.88.93 4.42l.25.44c.4-.26.78-.53 1.17-.8 2.47-25.14 5.42-43.98 5.42-43.98a898.62 898.62 0 0 0-1.55 41.42l2.29-1.48c2.37-23.1 5-39.94 5-39.94-.56 9.45-.95 18.35-1.22 26.75a447.1 447.1 0 0 1 3.36-15.63c0-.57-.02-1.1-.04-1.58l.07 1.46a260.7 260.7 0 0 1 4.37-16.68c-2.06 8.68-3.17 19.95-3.62 32.46l.37 7.98c1.76-1.08 3.56-2.14 5.38-3.21.3-8.47.6-17 .95-25.14 0 0 .24 11.54 1.13 34.25 1.1-2.74 2.05-5.1 2.85-7.04l.09-2.06c-.14-.98-.29-1.89-.46-2.7l.47 2.24c.19-4.77.27-8.65.22-11.32.1 2.3.25 6.46.44 12 1.05-2.55 1.66-3.98 1.66-3.98-.4 1.74-.94 3.99-1.57 6.65l.03.65c.21 1.2.46 2.56.71 4.07l2.61-8.39-.01-2.95c.02.8.06 1.68.1 2.65l1.7-5.43c2.07-19.16 4.05-32.3 4.05-32.3-.44 7.96-.78 15.54-1.04 22.77l2.93-9.16c.07-2.9.1-5.34.07-7.2l.2 6.34.18-.56c-.02.87-.05 1.77-.1 2.72l.31 9.84c1.73-14.98 3.2-24.74 3.2-24.74-.44 7.95-.79 15.53-1.03 22.76 2.05-6.49 3.37-10.58 3.37-10.58-.13 6.99-1.58 16.9-3.83 28.3-.05 3.03-.09 6-.1 8.9 1.99-3.8 3.9-6.34 5.61-8 .01-1 .03-1.97.03-2.97 0 0 .16.9.42 2.54a12 12 0 0 1 3.25-2.18c-.02-3.14-.08-6.15-.17-9l.8 8.77c.3-.1.6-.18.87-.23.1-2.98.17-5.58.17-7.74l.16 7.68c.93-.12 1.46.05 1.46.05-.4 0-.8.07-1.21.16.04.22.24 1.33.53 3.2 1.27-4.04 2.48-7.95 3.63-11.7.25-9.1.37-16.4.29-20.73l.65 17.62 1.56-5.22c.34-2.12.55-3.27.55-3.27l.01 1.35c2.96-10.14 5.17-18.5 6.21-24.01 0 0-2.28 13.69-6.07 33.83.23 8.95.74 17.33 1.47 25.2 3.22-10.66 5.66-19.52 6.72-25a61.8 61.8 0 0 0-.5-4.02c.34 1.65.74 3.72 1.17 6.18 2.45-9.65 4.28-17.61 5.14-22.8 0 0-1.6 11.07-4.3 27.72.62 3.72 1.27 8.04 1.91 12.89l.17-.36-.14.56.16 1.25c.68-1.65 1.35-3.27 2.02-4.82.52-1.2 1.14-2.7 1.84-4.4 2.09-8.94 3.7-14.18 3.65-13.93a93.23 93.23 0 0 0-1.53 8.72c4.5-11.16 10.4-26.35 11.9-30.88 0 0-1.1 13.86-3.56 31.51 1.15-4.6 1.91-7.11 1.87-6.95-2.52 10.9-3.24 26.83-3.03 43.85 4.33-3.28 7.47-2.58 7.47-2.58-2.73.05-5.21 1.4-7.45 3.73.1 5.83.29 11.77.56 17.68.54 1.4 1.06 2.83 1.57 4.29 2.15-2.1 4.4-4.22 6.75-6.34.99-22.94.8-46.2-2.54-60.63-.1-.37 3.85 12.92 7.3 32.91.37-12.27.47-23.87.15-33.53 1 10.7 2.24 24.9 3.44 40.8 1.63-4.37 3.65-10.22 5.48-15.83.3-17.64.69-29.48.69-29.48l1.5 22.58c1.31-4.22 2.33-7.74 2.73-9.59-.02-.05-.59 8.84-1.95 21.08l1.14 16.81 1.43-1.07c.78-12.82 1.34-24.04 1.37-30.35.1 5.37.33 16.04.6 28.88.7-.5 1.37-1.01 2.07-1.52.46-11.48.84-22.26 1.05-30.68-.36-3.99-.52-6.04-.52-6.04.22.55.41 1.1.61 1.65.08-3.87.1-7.03.06-9.24l.39 10.44a498.12 498.12 0 0 1 8.66 26.09c.4-9.45.29-17.72-.61-23.45l.25 1.28c-.24-2.96-.36-4.67-.36-4.64.75 3.43 3.61 12.68 6.53 21.33.66.03 1.3.13 1.94.31l1.39-4.24.05.22c.23-2.47.44-4.93.63-7.4a1046.45 1046.45 0 0 0-15.2-20.29c5.5 5.31 10.66 10.5 15.53 15.56.29-4.21.5-8.38.65-12.48-1.35-2.18-2.15-3.01-2.15-3.01.75-.02 1.5.14 2.22.47.04-1.4.08-2.79.1-4.17l-.05 4.2c3.99 1.85 7.64 8.78 10.9 18.45.32.32.62.68.94 1.06-.3-3.93-.7-7.61-1.21-10.99a790.9 790.9 0 0 0-6.55-8.58c2.09 2.02 4.12 4.01 6.12 6-.23-1.23-.47-2.41-.72-3.54-.03-.12.38 1.26 1.08 3.9 2.87 2.84 5.65 5.67 8.34 8.45a11.61 11.61 0 0 0-1.63-1.68 6.04 6.04 0 0 1 3.38 1.03l2.18-4.65C591.6 34.72 586 30.73 586 30.73c5.17 3 10.11 6.01 14.86 9.03 1.95-16.86 3.73-28.22 3.73-28.22a932.64 932.64 0 0 0-1.3 29.76c2.26 1.46 4.48 2.93 6.65 4.4l1.14-2.44a930.02 930.02 0 0 1-4.79-33.7s2.5 11.98 6.82 29.42c1.05-2.22 1.66-3.45 1.66-3.45-.35 1.36-.8 3.01-1.3 4.9l1 3.98c1.33-3.24 2.11-5.07 2.11-5.07l-1.63 6.93.89 3.48 3.14 2.22a75.26 75.26 0 0 0-1.16-11.57s.86 3.82 2.04 10.73c2.73-9.2 5.5-15.1 8-18.9a939.27 939.27 0 0 1-3.09-22.68s1.67 8.04 4.65 20.52c.49-.6.96-1.12 1.42-1.58 1.7-14.66 3.13-24.2 3.13-24.2-.43 7.85-.76 15.32-1.02 22.47l.1-.07c2-6.28 3.27-10.2 3.27-10.2-.05 2.65-.3 5.73-.69 9.15 1.01-.18 1.6.02 1.6.02-.57.02-1.1.12-1.64.3A242.96 242.96 0 0 1 633 42.09c1.97-4.16 3.14-6.56 3.14-6.56-.67 2.55-1.62 6.12-2.8 10.43l.2.73a18.3 18.3 0 0 1 1.94 1.93c4.08-5.58 7.46-6.15 8.84-6.1l1.64-3.47-.89-5.23c.27 1.4.63 3.03 1.07 4.86l1.52-3.15-1.2 4.5c.4 1.6.86 3.32 1.36 5.16a16.93 16.93 0 0 1 4.6-4.25c.57-2.26 1.05-4.27 1.4-6-1.57-2.06-2.46-3.2-2.46-3.2.88.84 1.74 1.68 2.6 2.53l.1-.51-.08.52c3.08 3 6.05 5.97 8.93 8.9.41-1.58.8-3.06 1.12-4.41l-.48-4.95c.21 1.08.47 2.3.78 3.66.33-1.38.6-2.63.8-3.72 0 0-.24 1.47-.7 4.11a253 253 0 0 0 2.44 9.4c.97 1 1.93 2 2.87 3l.44-1.14c.46-2.07.9-3.95 1.3-5.62l.02-1.7c.02.45.05.89.09 1.32 1.34-5.53 2.27-8.6 2.22-8.43a93.07 93.07 0 0 0-1.52 8.75l.57-1.62s-.25 3.15-.79 8.23l.23 2.93c1.45 1.56 2.88 3.1 4.27 4.62l1.87-3.97-1.24 4.68 1.6 1.75c.35-.73.71-1.43 1.08-2.09-.42-8.94-1.27-16.96-2.74-23.28-.07-.28 2.2 7.39 4.83 19.94 1.54-2.13 3.13-3.66 4.79-4.41-.03-.45-.03-.7-.03-.7l.04.69.48-.2c1.79-7.46 3.1-11.74 3.05-11.52a96.64 96.64 0 0 0-1.85 11.22c.29-.04.57-.06.87-.06 0 0-.36.31-.97 1.05-.2 1.9-.38 3.85-.51 5.88.5-.36 1.03-.7 1.56-1.06l.56-5.6c0-5.11.02-8.11.02-8.11.1 1.63.2 3.25.32 4.88 2.23-20.6 4.5-35.16 4.5-35.16a910.65 910.65 0 0 0-1.53 41.42 335.4 335.4 0 0 1 7.14-4.55c.08-3.13.17-6.16.27-9.06a941.57 941.57 0 0 1-4.17-29.8s3.03 14.52 8.18 34.86l.8-1.92-.01-.17v.17l1.32-3.15-1.24 5.28.01.63 1.59-.95.14-.53c-.02-3.4-.08-6.63-.18-9.68l.7 7.74c.63-2.27 1-3.45.96-3.33-.32 1.35-.6 2.8-.87 4.3.04.33.06.67.09 1l1.74-1.01.02-.69.04.65.81-.48s-.29.2-.8.6l.74 11.2.5-1.21c.05-1.6.12-3.19.18-4.76l.1 4.02c3.19-7.9 5.25-12.78 5.25-12.78-1 4.32-2.78 11.75-5 20.9l.12 3.37.12.01a2607.8 2607.8 0 0 1 7.32-23.8c.1-2.8.18-5.49.29-8l.18 6.5.54-1.71c2.07-19.17 4.04-32.31 4.04-32.31-.44 7.95-.78 15.54-1.03 22.77 2.06-6.5 3.38-10.59 3.38-10.59-.13 6.99-1.58 16.9-3.83 28.3l-.09 6.18c2.07-7.18 3.61-13.12 4.38-17.14 0 0-1.65 9.88-4.41 24.67 0 6.68.09 12.96.24 18.88 1.55-3.02 3.16-5.93 4.85-8.72.16.02-1.97 5.2-4.67 14.2.05 1.55.1 3.08.18 4.57 2.58-.94 4.25-.6 4.25-.6-1.49.01-2.9.38-4.24 1.03.17 3.86.37 7.53.6 11.04a479.9 479.9 0 0 1 4.9-13.65c.6-11.16.6-21.01-.42-27.56.8 3.95 2.08 10.94 3.27 20.3l.84-2.03a341.66 341.66 0 0 0 1.6-33.24s1.65 8.91 2.81 22.56l.02-.03c3.78-12.2 6.77-22.66 8.23-29.32.96-8.25 1.9-13.26 1.9-13.26 0 13.22.6 25.3 1.63 36.36 3.28-10.83 5.74-19.82 6.77-25.26 0 0-2.27 13.66-5.97 32.92.24 2.06.5 4.1.78 6.1 2.08-4.73 3.93-8.8 5.37-11.96.21-9.75.24-18.91-.03-26.78.6 6.4 1.28 14.04 1.99 22.55l1.4-2.95a694.9 694.9 0 0 1-1.25 4.72l.07.83c1.95-4.94 3.87-9.93 5.18-13.46a204.24 204.24 0 0 1 3.52-13.43c-1.98 8.57-2.85 20.1-3.02 32.73 3.2-7.06 5.27-11.4 5.27-11.4-1.05 4.01-2.94 11.03-5.3 19.68.06 7.28.32 14.8.69 22.2 3.22-34.48 11.18-61.34 11.05-60.8-2.5 10.8-3.23 26.53-3.04 43.39 1.22-2.37 2.46-4.67 3.76-6.87.14 0-1.48 4.13-3.68 11.37.11 4.95.28 9.96.52 14.94 4.02-2.18 6.87-1.68 6.87-1.68-2.49.03-4.76.9-6.84 2.43.4 8.16.92 16.23 1.5 23.79a92.7 92.7 0 0 1 5.8-9.24c1.86-27.89 2.63-59.98-1.57-78.14-.11-.5 6.57 22.07 10.17 52.41 2.06-5.05 4.3-9.85 6.7-14.3.17.01-2.8 8.03-5.94 21.36 2.13 21.85 2.4 46.9-2.49 70.02a25.56 25.56 0 0 0 1.83 1.61h-25.42v.07H749.3v-.07h-8.33a.28.28 0 0 0-.03.07h-65.9l-.03-.07h-8.54v.07h-13.94v-.07H545.53v.07h-13.94v-.07h-19.62v.07h-72.13l-.03-.07h-39.43v.07h-23.72c.02-.02.02-.05.03-.07H342.56l.01.07h-101.3v-.07h-34.44v.07h-13.94v-.07H8.45l-.02.07H0Z" fill="#090C08" fill-rule="nonzero"/>
</svg>