<svg width="19" height="19" viewBox="0 0 19 19" fill="none" xmlns="http://www.w3.org/2000/svg">
  <path fill-rule="evenodd" clip-rule="evenodd" d="M9.5 19a9.5 9.5 0 1 0 0-19 9.5 9.5 0 0 0 0 19Zm4.36-11.05a1 1 0 0 0-1.46-1.37l-3.76 4-.07-.07v-.01h-.01l-.01-.01-.02-.02v-.01h-.01l-.01-.01-.01-.01-.02-.02-.05-.05-.02-.02-.01-.02h-.02l-.1-.1-.2-.21-.1-.1-.03-.03-.01-.01-.01-.02-.03-.02-.03-.03-.05-.05-.03-.03-.01-.01-.01-.01-.1-.11-.22-.21-.01-.01v-.01h-.02v-.01l-.01-.02H7.4l-.05-.05-.02-.02v-.01l-.03-.03-.06-.05-.1-.1-.1-.1-.1-.1-.01-.01-.03-.03-.02-.02-.01-.02h-.01a1 1 0 0 0-1.42 1.4l.1.1.09.1.02.02.02.01v.01l.06.06.1.1.01.01.02.01v.02h.02l.03.03.02.03.05.05.06.05.2.21.22.22.02.02h.01v.01l.01.01h.01l.05.06.1.1.03.03.03.03.05.05.1.1.05.05.02.02h.01v.01l.02.02h.01l.01.02.03.02.05.05.09.1.04.04.05.05.02.02h.01l.01.02.05.04v.01l.02.01.02.02.02.02.02.03.04.03.02.02.02.02.03.04.04.04.13.13.01.01.02.02.01.01h.01v.01l.06.05.02.03.02.02.04.03.05.05v.01h.01v.01l.71-.7-.7.7a1 1 0 0 0 1.43-.02l4.47-4.75Z" fill="#fff"/>
</svg>