<svg width="165" height="39" viewBox="0 0 165 39" fill="none" xmlns="http://www.w3.org/2000/svg">
<path fill-rule="evenodd" clip-rule="evenodd" d="M162.664 37.793C161.905 38.115 161.027 38.276 160.031 38.276C159.049 38.276 158.16 38.092 157.363 37.724C156.565 37.356 155.883 36.8308 155.316 36.1485C154.748 35.4662 154.308 34.6382 153.993 33.6645C153.679 32.6908 153.522 31.5984 153.522 30.387C153.522 29.191 153.683 28.11 154.005 27.144C154.327 26.178 154.779 25.3538 155.362 24.6715C155.944 23.9892 156.65 23.4678 157.478 23.1075C158.306 22.7472 159.218 22.567 160.215 22.567C160.721 22.567 161.185 22.6207 161.606 22.728C162.028 22.8353 162.407 22.9772 162.745 23.1535C163.082 23.3298 163.385 23.5253 163.653 23.74C163.922 23.9547 164.155 24.1693 164.355 24.384L163.734 25.097C163.335 24.6677 162.86 24.2997 162.308 23.993C161.756 23.6863 161.066 23.533 160.238 23.533C159.364 23.533 158.582 23.694 157.892 24.016C157.202 24.338 156.615 24.7942 156.132 25.3845C155.649 25.9749 155.277 26.6917 155.017 27.535C154.756 28.3783 154.626 29.329 154.626 30.387C154.626 31.445 154.748 32.3995 154.994 33.2505C155.239 34.1015 155.596 34.826 156.063 35.424C156.531 36.022 157.106 36.4858 157.788 36.8155C158.471 37.1452 159.241 37.31 160.1 37.31C160.79 37.31 161.438 37.2104 162.043 37.011C162.649 36.8117 163.136 36.528 163.504 36.16V31.445H159.87V30.548H164.516V36.551C164.04 37.057 163.423 37.471 162.664 37.793ZM7.95804 27.604L5.24404 38H4.09404L0.644043 22.843H1.74804L3.65704 31.767L3.91292 33.0061L4.17454 34.2395C4.35088 35.0598 4.52338 35.884 4.69204 36.712H4.78404C4.96804 35.884 5.15588 35.0598 5.34754 34.2395C5.53921 33.4192 5.74238 32.595 5.95704 31.767L8.32604 22.843H9.40704L11.776 31.767C11.9907 32.595 12.1939 33.4192 12.3855 34.2395C12.5772 35.0598 12.7804 35.884 12.995 36.712H13.087L13.3372 35.4729L13.5815 34.2395C13.7425 33.4192 13.9074 32.595 14.076 31.767L15.985 22.843H17.02L13.639 38H12.466L9.70604 27.604C9.56804 27.006 9.43004 26.4348 9.29204 25.8905C9.15404 25.3462 9.02371 24.775 8.90104 24.177H8.80904C8.68638 24.775 8.54838 25.3462 8.39504 25.8905C8.24171 26.4348 8.09604 27.006 7.95804 27.604ZM21.4032 32.802L19.6092 38H18.5512L23.8872 22.843H24.9452L30.2812 38H29.1772L27.4062 32.802H21.4032ZM27.1072 31.905H21.7252L22.6912 29.076C22.9979 28.1714 23.2892 27.305 23.5652 26.477C23.8412 25.649 24.1095 24.7673 24.3702 23.832H24.4622C24.7229 24.7673 24.9912 25.649 25.2672 26.477C25.5432 27.305 25.8345 28.1714 26.1412 29.076L27.1072 31.905ZM42.0703 22.843L37.1023 38H35.9753L30.9613 22.843H32.0883L34.8943 31.698C35.1857 32.618 35.4502 33.4652 35.6878 34.2395C35.9255 35.0138 36.1977 35.861 36.5043 36.781H36.5963C36.7497 36.321 36.8915 35.884 37.0218 35.47L37.2145 34.8519L37.4013 34.2395C37.524 33.8332 37.6505 33.423 37.7808 33.009C37.9112 32.595 38.0453 32.158 38.1833 31.698L40.9893 22.843H42.0703ZM53.5835 38V37.08H46.1085V30.41H52.1805V29.49H46.1085V23.763H53.3535V22.843H45.0505V38H53.5835ZM63.8678 31.491V38H62.8098V22.843H66.6278C67.4864 22.843 68.2569 22.9158 68.9393 23.0615C69.6216 23.2072 70.1966 23.4487 70.6643 23.786C71.1319 24.1233 71.4923 24.5603 71.7453 25.097C71.9983 25.6337 72.1248 26.293 72.1248 27.075C72.1248 28.5623 71.6494 29.6702 70.6988 30.3985C69.7481 31.1269 68.4218 31.491 66.7198 31.491H63.8678ZM66.4668 30.594H63.8678V23.74H66.3748C67.9388 23.74 69.1079 23.9777 69.8823 24.453C70.6566 24.9283 71.0438 25.8024 71.0438 27.075C71.0438 28.317 70.6681 29.214 69.9168 29.766C69.1654 30.318 68.0154 30.594 66.4668 30.594ZM84.1439 37.08V38H76.0939V22.843H77.1519V37.08H84.1439ZM91.977 38.276C92.6364 38.276 93.2727 38.1802 93.886 37.9885C94.4994 37.7969 95.0437 37.4672 95.519 36.9995C95.9944 36.5318 96.3777 35.907 96.669 35.125C96.9604 34.343 97.106 33.3617 97.106 32.181V22.843H96.117V32.066C96.117 33.078 96.002 33.9175 95.772 34.5845C95.542 35.2515 95.2392 35.7882 94.8635 36.1945C94.4879 36.6008 94.0509 36.8883 93.5525 37.057C93.0542 37.2257 92.529 37.31 91.977 37.31C91.4404 37.31 90.9305 37.2257 90.4475 37.057C89.9645 36.8883 89.539 36.6008 89.171 36.1945C88.803 35.7882 88.5079 35.2515 88.2855 34.5845C88.0632 33.9175 87.952 33.078 87.952 32.066V22.843H86.894V32.181C86.894 33.3617 87.0359 34.343 87.3195 35.125C87.6032 35.907 87.9827 36.5318 88.458 36.9995C88.9334 37.4672 89.4777 37.7969 90.091 37.9885C90.7044 38.1802 91.333 38.276 91.977 38.276ZM103.168 28.041V38H102.179V22.843H103.674L106.848 31.744C107.048 32.296 107.247 32.8518 107.446 33.4115C107.646 33.9712 107.845 34.5347 108.044 35.102H108.136C108.336 34.5347 108.527 33.9712 108.711 33.4115C108.895 32.8518 109.087 32.296 109.286 31.744L112.437 22.843H113.955V38H112.92V28.041C112.92 27.4123 112.936 26.7339 112.966 26.0055C112.997 25.2772 113.028 24.591 113.058 23.947H112.966L111.793 27.328L108.527 36.344H107.607L104.318 27.328L103.122 23.947H103.03C103.061 24.591 103.092 25.2772 103.122 26.0055C103.153 26.7339 103.168 27.4123 103.168 28.041ZM123.467 38C124.326 38 125.1 37.908 125.79 37.724C126.48 37.54 127.071 37.264 127.561 36.896C128.052 36.528 128.431 36.068 128.7 35.516C128.968 34.964 129.102 34.32 129.102 33.584C129.102 32.526 128.803 31.6942 128.205 31.0885C127.607 30.4828 126.818 30.0957 125.836 29.927V29.835C126.603 29.605 127.186 29.1948 127.584 28.6045C127.983 28.0142 128.182 27.3204 128.182 26.523C128.182 25.2503 127.73 24.3188 126.825 23.7285C125.921 23.1382 124.702 22.843 123.168 22.843H119.074V38H123.467ZM120.132 29.513H122.754C124.303 29.513 125.418 29.2562 126.101 28.7425C126.783 28.2288 127.124 27.5273 127.124 26.638C127.124 25.5647 126.764 24.8095 126.043 24.3725C125.323 23.9355 124.265 23.717 122.869 23.717H120.132V29.513ZM123.191 37.126H120.132V30.387H123.191C124.755 30.387 125.959 30.6477 126.802 31.169C127.646 31.6904 128.067 32.503 128.067 33.607C128.067 34.8183 127.634 35.7077 126.768 36.275C125.901 36.8424 124.709 37.126 123.191 37.126ZM134.083 22.843V38H133.025V22.843H134.083ZM140.215 38V28.593C140.215 27.857 140.199 27.1402 140.169 26.4425C140.138 25.7448 140.107 25.028 140.077 24.292H140.169L141.871 27.305L148.265 38H149.369V22.843H148.357V32.135C148.357 32.871 148.372 33.607 148.403 34.343L148.495 36.551H148.403L146.701 33.538L140.307 22.843H139.203V38H140.215Z" fill="#77B1CA"/>
<path fill-rule="evenodd" clip-rule="evenodd" d="M52.5446 17.9165H0C0 17.9165 11.9255 15.1843 20.4015 8.97819C28.8775 2.77204 37.2068 0.881757 37.2068 0.881757C37.2068 0.881757 44.1864 -0.440878 49.2625 0.220439C54.3386 0.881757 57.251 3.36903 57.251 3.36903C57.251 3.36903 52.1971 3.09352 49.2625 3.90621C46.3279 4.7189 45.1308 5.68367 44.3736 8.07728C43.6163 10.4709 43.7303 14.9424 46.3279 16.1111C47.6084 16.6872 52.5446 17.9165 52.5446 17.9165Z" fill="url(#paint0_linear_0_1)"/>
<defs>
<linearGradient id="paint0_linear_0_1" x1="13.8085" y1="22.0919" x2="55.0465" y2="11.738" gradientUnits="userSpaceOnUse">
<stop stop-color="#0080B8"/>
<stop offset="1" stop-color="#D8D8D8"/>
</linearGradient>
</defs>
</svg>
