<svg fill="none" xmlns="http://www.w3.org/2000/svg" viewBox="0 0 566 146"><g clip-path="url(#a)" fill="currentColor"><path d="M.04 1.68h73.54v24.2H31.15V36.3h32.97v23.53H31.15v11.43h42.43v24.2H.04V1.68Zm110.39 60.33L75.61 1.68h33.13l18.09 32.94 17.92-32.94h31.95l-34.66 60.33v33.44h-31.61V62.01Zm72.7-60.33h38.54c34.32 0 50.88 18.82 50.88 46.88 0 28.06-16.57 46.88-50.88 46.88h-38.54V1.68Zm37.7 68.73c16.06 0 19.1-11.43 19.1-21.85 0-10.42-3.04-21.85-19.1-21.85h-6.42V70.4h6.42v.01Zm64.41-68.73h73.54v24.2h-42.43V36.3h32.96v23.53h-32.96v11.43h42.43v24.2h-73.54V1.68Zm88.41 0h37.36l26.03 52.43V1.68h29.58v93.77H429.6l-26.37-52.43v52.43h-29.58V1.68ZM508.56 65.2c.84 5.71 5.75 9.91 14.88 9.91 7.78 0 10.31-2.86 10.31-5.55 0-2.86-1.86-4.71-8.45-6.22l-18.09-4.2c-20.29-4.37-28.57-14.28-28.57-28.9 0-16.8 13.19-30.25 41.42-30.25 25.02 0 40.07 11.26 41.76 31.09h-31.44c-.68-5.55-4.9-9.07-11.67-9.07-5.92 0-8.96 2.35-8.96 5.38 0 2.69 2.2 4.71 8.62 6.22l17.92 4.2c19.27 4.37 28.74 13.28 28.74 28.4 0 16.97-12.68 30.92-42.77 30.92-30.09 0-44.46-14.12-45.31-31.93h31.61ZM0 141.39l7.15-18.61H9.8l7.62 18.61h-2.8l-2.18-5.64H4.66l-2.04 5.64H0Zm5.37-7.64h6.31l-1.94-5.16a51 51 0 0 1-1.32-3.86c-.24 1.2-.57 2.38-1 3.56l-2.05 5.46Zm26.23-10.97h2.46v10.75c0 1.87-.2 3.36-.63 4.46-.42 1.1-1.19 2-2.3 2.69a8.12 8.12 0 0 1-4.34 1.03c-1.74 0-3.17-.3-4.28-.9a5.15 5.15 0 0 1-2.37-2.6c-.48-1.15-.71-2.7-.71-4.68v-10.75h2.46v10.74c0 1.61.15 2.8.44 3.58.3.76.82 1.35 1.55 1.76.74.42 1.64.63 2.7.63 1.8 0 3.1-.42 3.87-1.24.77-.82 1.15-2.4 1.15-4.73v-10.74Zm11.31 18.61v-16.41h-6.13v-2.2h14.75v2.2h-6.16v16.41h-2.46Zm9.93-9.06c0-3.1.83-5.51 2.49-7.25a8.45 8.45 0 0 1 6.42-2.63c1.72 0 3.27.4 4.65 1.23a8 8 0 0 1 3.15 3.44c.72 1.47 1.09 3.13 1.09 4.99 0 1.89-.38 3.58-1.14 5.06a7.84 7.84 0 0 1-3.24 3.4 9.29 9.29 0 0 1-4.52 1.14 8.8 8.8 0 0 1-4.7-1.27 8.17 8.17 0 0 1-3.13-3.47 10.5 10.5 0 0 1-1.07-4.64Zm2.54.03c0 2.25.6 4.01 1.8 5.31a5.98 5.98 0 0 0 4.55 1.93c1.85 0 3.37-.65 4.57-1.95 1.2-1.3 1.8-3.16 1.8-5.55 0-1.52-.26-2.84-.77-3.96a6.03 6.03 0 0 0-5.56-3.57c-1.75 0-3.25.6-4.51 1.8-1.25 1.2-1.88 3.2-1.88 6Zm25.58 9.03v-18.61h2.46v16.41h9.17v2.2H80.96Zm13.83-9.06c0-3.1.82-5.51 2.48-7.25a8.45 8.45 0 0 1 6.43-2.63c1.72 0 3.26.4 4.64 1.23a8 8 0 0 1 3.15 3.44c.73 1.47 1.1 3.13 1.1 4.99 0 1.89-.39 3.58-1.15 5.06a7.83 7.83 0 0 1-3.24 3.4 9.28 9.28 0 0 1-4.52 1.14 8.8 8.8 0 0 1-4.7-1.27 8.17 8.17 0 0 1-3.13-3.47 10.5 10.5 0 0 1-1.06-4.64Zm2.53.03c0 2.25.6 4.01 1.8 5.31a5.98 5.98 0 0 0 4.55 1.93c1.86 0 3.38-.65 4.57-1.95 1.2-1.3 1.8-3.16 1.8-5.55 0-1.52-.25-2.84-.77-3.96a6.03 6.03 0 0 0-5.56-3.57 6.3 6.3 0 0 0-4.5 1.8c-1.26 1.2-1.89 3.2-1.89 6Zm31.73 2.5 2.46.63a8.31 8.31 0 0 1-2.79 4.63 7.67 7.67 0 0 1-4.91 1.59c-2 0-3.64-.4-4.9-1.22-1.26-.82-2.21-2-2.87-3.56a12.73 12.73 0 0 1-.98-4.99c0-1.93.37-3.62 1.1-5.06a7.62 7.62 0 0 1 3.17-3.29 9.24 9.24 0 0 1 4.52-1.13c1.86 0 3.42.48 4.7 1.42a7.38 7.38 0 0 1 2.64 4l-2.42.57a5.76 5.76 0 0 0-1.88-2.95 5.01 5.01 0 0 0-3.1-.93c-1.43 0-2.62.34-3.59 1.03a5.44 5.44 0 0 0-2.02 2.77 11.04 11.04 0 0 0-.58 3.56c0 1.58.23 2.97.68 4.15a5.19 5.19 0 0 0 2.16 2.64c.98.59 2.03.88 3.16.88a5.3 5.3 0 0 0 3.5-1.2c.96-.79 1.61-1.97 1.95-3.53Zm5.4 6.53v-18.61h2.47V132l9.24-9.23h3.34l-7.8 7.54 8.15 11.07h-3.25l-6.63-9.42-3.05 2.97v6.45h-2.46Zm16.61-5.98 2.33-.2c.1.93.36 1.7.76 2.3a4.3 4.3 0 0 0 1.88 1.44c.84.37 1.8.55 2.85.55.94 0 1.77-.14 2.5-.42a3.43 3.43 0 0 0 1.6-1.14c.35-.5.53-1.03.53-1.6 0-.59-.17-1.1-.51-1.53-.34-.44-.9-.8-1.68-1.1-.5-.2-1.6-.5-3.31-.9-1.71-.42-2.9-.8-3.6-1.17a5.1 5.1 0 0 1-1.99-1.73 4.3 4.3 0 0 1-.65-2.32c0-.94.27-1.81.8-2.63a4.94 4.94 0 0 1 2.34-1.86 8.87 8.87 0 0 1 3.41-.64c1.39 0 2.6.23 3.65.67a5.22 5.22 0 0 1 2.44 1.96c.56.86.87 1.84.91 2.93l-2.36.18a3.8 3.8 0 0 0-1.3-2.67c-.72-.6-1.8-.9-3.23-.9-1.5 0-2.58.28-3.27.83a2.45 2.45 0 0 0-1.01 1.97c0 .66.24 1.21.72 1.65.48.43 1.71.87 3.7 1.33 2.02.45 3.39.84 4.14 1.18a5.62 5.62 0 0 1 2.4 1.9c.51.76.77 1.64.77 2.64a5.1 5.1 0 0 1-.85 2.81 5.65 5.65 0 0 1-2.45 2.04 8.54 8.54 0 0 1-3.58.73c-1.69 0-3.1-.25-4.24-.74a6 6 0 0 1-3.7-5.56Zm18.1 5.98v-18.61h3.71l4.4 13.18c.42 1.22.71 2.14.9 2.75.21-.68.54-1.67.99-2.98l4.45-12.95h3.32v18.61h-2.38v-15.58l-5.4 15.58h-2.23l-5.38-15.84v15.84h-2.37Zm22.16 0v-18.61h2.46v18.61h-2.46Zm11.55 0v-16.41h-6.13v-2.2h14.75v2.2h-6.15v16.41h-2.47Zm11.24 0v-18.61h2.46v7.64h9.68v-7.64h2.46v18.61h-2.47v-8.77h-9.67v8.77h-2.46Zm17.87-5.98 2.33-.2c.1.93.36 1.7.76 2.3a4.3 4.3 0 0 0 1.88 1.44c.84.37 1.8.55 2.85.55.94 0 1.77-.14 2.5-.42a3.43 3.43 0 0 0 1.6-1.14c.35-.5.53-1.03.53-1.6 0-.59-.17-1.1-.51-1.53-.34-.44-.9-.8-1.68-1.1-.5-.2-1.6-.5-3.31-.9-1.71-.42-2.9-.8-3.6-1.17a5.1 5.1 0 0 1-1.99-1.73 4.3 4.3 0 0 1-.65-2.32c0-.94.27-1.81.8-2.63a4.94 4.94 0 0 1 2.34-1.86 8.87 8.87 0 0 1 3.41-.64c1.38 0 2.6.23 3.65.67a5.22 5.22 0 0 1 2.44 1.96c.56.86.87 1.84.91 2.93l-2.36.18a3.8 3.8 0 0 0-1.3-2.67c-.72-.6-1.8-.9-3.23-.9-1.5 0-2.58.28-3.27.83a2.45 2.45 0 0 0-1.01 1.97c0 .66.24 1.21.72 1.65.48.43 1.71.87 3.7 1.33 2.01.45 3.39.84 4.13 1.18a5.62 5.62 0 0 1 2.4 1.9c.52.76.78 1.64.78 2.64a5.1 5.1 0 0 1-.85 2.81 5.65 5.65 0 0 1-2.45 2.04 8.54 8.54 0 0 1-3.58.73c-1.69 0-3.1-.25-4.24-.74a6 6 0 0 1-3.7-5.56Zm16.14 5.98 7.15-18.61h2.65l7.62 18.61h-2.8l-2.18-5.64h-7.78l-2.05 5.64h-2.61Zm5.37-7.64h6.3l-1.93-5.16a51.29 51.29 0 0 1-1.32-3.86c-.24 1.2-.58 2.38-1 3.56l-2.05 5.46Zm13.99 7.64v-18.61H270l9.77 14.61v-14.61h2.36v18.61h-2.52l-9.78-14.62v14.62h-2.36Zm18.81 0v-18.61h6.41c1.45 0 2.56.09 3.32.27 1.06.24 1.98.69 2.73 1.33.98.83 1.71 1.89 2.2 3.19.49 1.28.73 2.75.73 4.41a13 13 0 0 1-.5 3.76c-.32 1.1-.75 2-1.26 2.72a6.83 6.83 0 0 1-1.7 1.69c-.62.4-1.36.71-2.23.92-.86.21-1.86.32-2.98.32h-6.72Zm2.47-2.2h3.97a9.6 9.6 0 0 0 2.88-.34c.7-.23 1.26-.55 1.68-.96a5.8 5.8 0 0 0 1.36-2.35c.33-1 .5-2.19.5-3.6 0-1.94-.33-3.44-.97-4.48a4.79 4.79 0 0 0-2.33-2.1 9.63 9.63 0 0 0-3.18-.39h-3.91v14.22Zm28.88 2.2-7.21-18.61h2.66l4.84 13.52c.39 1.08.72 2.1.98 3.05.29-1.02.62-2.03 1-3.05l5.03-13.52h2.51l-7.28 18.61h-2.53Zm12.07 0v-18.61h13.46v2.2h-11v5.7h10.3v2.18h-10.3v6.33h11.43v2.2h-13.89Zm17.37 0v-18.61h2.46v7.64h9.68v-7.64h2.46v18.61h-2.46v-8.77h-9.68v8.77h-2.46Zm19.13 0v-18.61h2.46v18.61h-2.46Zm20.1-6.52 2.46.62a8.31 8.31 0 0 1-2.8 4.63 7.67 7.67 0 0 1-4.9 1.59c-2.01 0-3.64-.4-4.9-1.22-1.26-.82-2.22-2-2.88-3.56a12.73 12.73 0 0 1-.97-4.99c0-1.93.37-3.62 1.1-5.06a7.61 7.61 0 0 1 3.16-3.29 9.24 9.24 0 0 1 4.52-1.13c1.86 0 3.43.48 4.7 1.42a7.39 7.39 0 0 1 2.65 4l-2.42.57a5.75 5.75 0 0 0-1.88-2.95 5.01 5.01 0 0 0-3.1-.93c-1.43 0-2.63.34-3.6 1.03a5.45 5.45 0 0 0-2.01 2.77 11.07 11.07 0 0 0-.58 3.56c0 1.58.22 2.97.68 4.15a5.18 5.18 0 0 0 2.16 2.64c.97.59 2.03.88 3.16.88a5.3 5.3 0 0 0 3.5-1.2c.96-.79 1.6-1.97 1.95-3.53Zm5.4 6.52v-18.61h2.47v16.41h9.17v2.2h-11.63Zm14.63 0v-18.61h13.46v2.2h-11v5.7h10.3v2.18h-10.3v6.33h11.43v2.2h-13.89Zm23.69-5.98 2.32-.2c.11.93.37 1.7.76 2.3a4.3 4.3 0 0 0 1.88 1.44c.85.37 1.8.55 2.86.55.94 0 1.77-.14 2.49-.42a3.43 3.43 0 0 0 1.6-1.14c.35-.5.53-1.03.53-1.6 0-.59-.17-1.1-.5-1.53-.35-.44-.9-.8-1.68-1.1-.5-.2-1.6-.5-3.31-.9a17.1 17.1 0 0 1-3.6-1.17 5.1 5.1 0 0 1-2-1.73 4.3 4.3 0 0 1-.64-2.32c0-.94.27-1.81.8-2.63a4.94 4.94 0 0 1 2.34-1.86 8.86 8.86 0 0 1 3.41-.64c1.38 0 2.6.23 3.65.67a5.23 5.23 0 0 1 2.43 1.96c.57.86.88 1.84.92 2.93l-2.36.18a3.8 3.8 0 0 0-1.3-2.67c-.73-.6-1.8-.9-3.24-.9-1.49 0-2.57.28-3.26.83a2.45 2.45 0 0 0-1.01 1.97c0 .66.24 1.21.72 1.65.47.43 1.7.87 3.7 1.33 2.01.45 3.39.84 4.13 1.18a5.62 5.62 0 0 1 2.4 1.9c.52.76.78 1.64.78 2.64a5.1 5.1 0 0 1-.86 2.81 5.65 5.65 0 0 1-2.44 2.04 8.54 8.54 0 0 1-3.59.73c-1.68 0-3.1-.25-4.23-.74a5.99 5.99 0 0 1-3.7-5.56Zm18.23 5.98v-18.61h13.46v2.2h-11v5.7h10.3v2.18h-10.3v6.33h11.43v2.2h-13.89Zm30.57-6.52 2.46.62a8.3 8.3 0 0 1-2.79 4.63 7.67 7.67 0 0 1-4.91 1.59c-2 0-3.64-.4-4.9-1.22-1.25-.82-2.21-2-2.87-3.56a12.74 12.74 0 0 1-.98-4.99c0-1.93.37-3.62 1.1-5.06a7.62 7.62 0 0 1 3.17-3.29 9.24 9.24 0 0 1 4.52-1.13c1.86 0 3.42.48 4.7 1.42a7.39 7.39 0 0 1 2.65 4l-2.43.57a5.76 5.76 0 0 0-1.88-2.95 5.01 5.01 0 0 0-3.1-.93c-1.43 0-2.62.34-3.59 1.03a5.44 5.44 0 0 0-2.02 2.77 11.07 11.07 0 0 0-.58 3.56c0 1.58.23 2.97.69 4.15a5.19 5.19 0 0 0 2.15 2.64c.98.59 2.03.88 3.16.88a5.3 5.3 0 0 0 3.5-1.2c.97-.79 1.61-1.97 1.95-3.53Zm17.72-12.1h2.47v10.76c0 1.87-.21 3.36-.64 4.46-.42 1.1-1.19 2-2.3 2.69a8.12 8.12 0 0 1-4.34 1.03c-1.74 0-3.17-.3-4.28-.9a5.15 5.15 0 0 1-2.37-2.6c-.47-1.15-.71-2.7-.71-4.68v-10.75h2.46v10.74c0 1.61.15 2.8.45 3.58.3.76.82 1.35 1.54 1.76.74.42 1.64.63 2.7.63 1.8 0 3.1-.42 3.87-1.24.77-.82 1.15-2.4 1.15-4.73v-10.74Zm6.62 18.62v-18.61h8.25c1.66 0 2.92.17 3.78.5.87.34 1.56.92 2.07 1.77.52.85.78 1.78.78 2.8 0 1.33-.43 2.44-1.28 3.35-.86.9-2.18 1.48-3.97 1.72.66.32 1.15.62 1.49.93.72.66 1.4 1.48 2.04 2.47l3.24 5.07h-3.1l-2.46-3.87a35.5 35.5 0 0 0-1.78-2.57c-.46-.59-.88-1-1.25-1.24s-.74-.4-1.12-.5a7.41 7.41 0 0 0-1.37-.09h-2.86v8.27h-2.46Zm2.46-10.4h5.3c1.12 0 2-.11 2.64-.34a2.86 2.86 0 0 0 1.44-1.12c.33-.51.5-1.07.5-1.67 0-.88-.32-1.6-.97-2.17-.63-.57-1.64-.86-3.02-.86h-5.89V131Zm16.7 10.4v-18.61h2.47v18.61h-2.46Zm11.56 0v-16.41h-6.13v-2.2h14.75v2.2h-6.16v16.41h-2.46Zm16.4 0v-7.88l-7.17-10.73h3l3.66 5.61c.68 1.05 1.31 2.1 1.9 3.15.56-.97 1.23-2.07 2.03-3.29l3.6-5.47h2.87l-7.42 10.73v7.88h-2.47Z"/></g><defs><clipPath id="a"><path fill="currentColor" d="M0 0h565.02v145.51H0z"/></clipPath></defs></svg>