<svg fill="none" xmlns="http://www.w3.org/2000/svg" viewBox="0 0 768 278"><path d="M66.57 146.12v-33.08l-8.5-1.05a9.01 9.01 0 0 1 0-3.88c3.84.28 8.64.42 14.38.42 5.18 0 10.01-.11 14.49-.32a5.83 5.83 0 0 1 0 3.78l-8.72 1.26a129.3 129.3 0 0 0-.41 12.28v61.85l8.5 1.05a9.01 9.01 0 0 1 0 3.88c-4.41-.2-9.2-.31-14.39-.31-3.78 0-8.6.07-14.48.21a5.83 5.83 0 0 1 0-3.78l8.71-1.26c.28-2.66.42-6.75.42-12.28v-23.52H25.2v36.01l8.5 1.05a9.01 9.01 0 0 1 0 3.88c-4.4-.2-9.2-.31-14.38-.31-3.78 0-8.61.07-14.49.21a5.83 5.83 0 0 1 0-3.78l8.71-1.26c.29-2.66.43-6.75.43-12.28v-61.85l-8.51-1.05a9.01 9.01 0 0 1 0-3.88c3.85.28 8.64.42 14.38.42 5.11 0 9.95-.11 14.5-.32a5.83 5.83 0 0 1 0 3.78l-8.72 1.26a129.3 129.3 0 0 0-.42 12.28v20.59h41.37Zm213.5 28.76v-60.37l-31.7 80.64h-2.74l-30.55-78.02v57.75c0 5.53.14 9.63.42 12.29l9.76 1.26a5.83 5.83 0 0 1 0 3.78c-6.02-.14-10.29-.21-12.8-.21-4.2 0-8.44.1-12.71.31a9.01 9.01 0 0 1 0-3.88l9.55-1.05v-61.84c0-5.54-.14-9.63-.42-12.29l-8.71-1.26a5.21 5.21 0 0 1 0-3.57h23.1l26.35 69.09 26.99-69.09c1.6.07 4.06.1 7.35.1.7 0 6.2-.1 16.48-.31a5.83 5.83 0 0 1 0 3.78l-8.71 1.26a129.3 129.3 0 0 0-.42 12.28v61.85l8.5 1.05a9.01 9.01 0 0 1 0 3.88c-4.4-.2-9.2-.31-14.38-.31-3.78 0-8.61.07-14.5.21-.41-1.75-.41-3.01 0-3.78l8.72-1.26c.28-2.66.42-6.75.42-12.28Zm39.36.11v-61.95l-8.5-1.16a5.83 5.83 0 0 1 0-3.77l14.38.31h42.42l.1 24.36a9.01 9.01 0 0 1-3.88 0l-4.94-19h-28.35v31.5l16.8-.32 2.42-10.29a9.01 9.01 0 0 1 3.88 0 192.5 192.5 0 0 0-.42 13.55c0 4.69.1 9.24.32 13.65a5.83 5.83 0 0 1-3.78 0l-2.31-10.93-16.9-.31v36.02h31.5l4.93-19.01a9.01 9.01 0 0 1 3.88 0l-.1 24.36H325.3l-15.02.31a5.83 5.83 0 0 1 0-3.78l8.72-1.15c.28-3.57.42-7.7.42-12.39Zm107.81-49.46v55.13c0 9.73-1.92 17.53-5.77 23.41-3.85 5.89-8.65 8.83-14.39 8.83-4.9 0-8.43-.95-10.6-2.84-2.24-1.82-3.4-4.94-3.47-9.34.5-1.9 2.38-2.84 5.67-2.84 1.54 0 3.26.21 5.15.63.35 4.06.77 6.75 1.26 8.09.56 1.33 1.54 1.99 2.94 1.99 3.08 0 5.18-2.03 6.3-6.09 1.12-3.99 1.68-10.29 1.68-18.9v-70.56l-9.56-1.05a9.01 9.01 0 0 1 0-3.88c3.85.2 8.2.31 13.02.31 6.23 0 11.87-.1 16.9-.31a5.83 5.83 0 0 1 0 3.78l-8.7 1.36a129.3 129.3 0 0 0-.43 12.28Zm25.15 61.85 8.51 1.05a9.01 9.01 0 0 1 0 3.88 240.5 240.5 0 0 0-11.13-.31c-1.68 0-5.46.07-11.34.21a5.83 5.83 0 0 1 0-3.78l6.93-1.26c1.12-1.68 2.52-4.8 4.2-9.34l27.09-72.46h3.68l30.44 82.01 8.51 1.05a9.01 9.01 0 0 1 0 3.88c-4.41-.2-9.34-.31-14.8-.31-4.06 0-9.04.07-14.92.21a5.83 5.83 0 0 1 0-3.78l8.72-1.26-9.24-25.93h-27.3l-9.35 26.14Zm23.31-66.15h-.1c-.84 3.29-2.2 7.6-4.1 12.92l-7.87 21.84h23.52l-7.66-21.84a142.86 142.86 0 0 1-3.79-12.92Zm126.45 53.65v-60.37l-31.71 80.64h-2.73l-30.56-78.02v57.75c0 5.53.14 9.63.43 12.29l9.76 1.26a5.83 5.83 0 0 1 0 3.78c-6.02-.14-10.29-.21-12.81-.21-4.2 0-8.43.1-12.7.31a9.01 9.01 0 0 1 0-3.88l9.55-1.05v-61.84c0-5.54-.14-9.63-.42-12.29l-8.72-1.26a5.22 5.22 0 0 1 0-3.57h23.1l26.36 69.09 26.98-69.09c1.62.07 4.07.1 7.36.1.7 0 6.19-.1 16.48-.31a5.83 5.83 0 0 1 0 3.78l-8.72 1.26a129.3 129.3 0 0 0-.41 12.28v61.85l8.5 1.05a9.01 9.01 0 0 1 0 3.88c-4.41-.2-9.2-.31-14.38-.31-3.78 0-8.62.07-14.5.21-.41-1.75-.41-3.01 0-3.78l8.72-1.26c.28-2.66.42-6.75.42-12.28Zm39.35.11v-61.95l-8.5-1.16a5.83 5.83 0 0 1 0-3.77l14.38.31h42.42l.1 24.36a9.01 9.01 0 0 1-3.88 0l-4.93-19h-28.35v31.5l16.8-.32 2.41-10.29a9.01 9.01 0 0 1 3.89 0 192.5 192.5 0 0 0-.42 13.55c0 4.69.1 9.24.31 13.65a5.83 5.83 0 0 1-3.78 0l-2.3-10.93-16.91-.31v36.02h31.5l4.93-19.01a9.01 9.01 0 0 1 3.89 0l-.1 24.36h-45.58l-15.01.31a5.83 5.83 0 0 1 0-3.78l8.71-1.15c.28-3.57.42-7.7.42-12.39Zm74.42 9.76c4.06 2.8 9.76 4.2 17.11 4.2 4.97 0 8.68-1.43 11.13-4.3a15.07 15.07 0 0 0 3.78-10.29c0-2.1-.17-3.85-.52-5.25a16.14 16.14 0 0 0-2.31-4.94c-1.12-1.81-2.94-3.63-5.46-5.45a72.55 72.55 0 0 0-9.87-5.78 87.72 87.72 0 0 1-11.55-6.72c-2.94-2.1-5.15-4.27-6.62-6.51a20.68 20.68 0 0 1-2.94-6.4 32.85 32.85 0 0 1-.73-7.56c0-6.17 2.45-10.92 7.35-14.28 4.97-3.44 10.81-5.15 17.53-5.15 8.33 0 16.38 2.1 24.15 6.3v20.16c-2.38.42-4.37.42-5.98 0l-3.36-18.17a30.77 30.77 0 0 0-15.02-3.67c-3.7 0-6.86 1.12-9.45 3.36-2.52 2.17-3.78 5.25-3.78 9.24 0 2.24.14 3.99.42 5.25.28 1.26.98 2.77 2.1 4.52 1.12 1.68 2.98 3.39 5.57 5.14a98.47 98.47 0 0 0 10.4 5.67c14.97 7.28 22.46 15.96 22.46 26.04 0 7.14-2.73 12.91-8.19 17.33-5.46 4.4-12.6 6.61-21.42 6.61-8.75 0-16.8-2.06-24.15-6.2v-20.16c2.38-.42 4.38-.42 5.99 0l3.36 17.01Z" fill="currentColor"/><path d="M144.13 123.88c8.67-.8 26.25 3.5 27.22 27.2M133.24 126.3c-1.61.6-5.32 2.78-7.26 6.65" stroke="currentColor" stroke-width="4" stroke-linecap="round"/><path d="M186.39 148.67c0 21.96-18.08 39.83-40.45 39.83-22.37 0-40.44-17.87-40.44-39.83 0-21.96 18.07-39.83 40.44-39.83 22.37 0 40.45 17.87 40.45 39.83Z" stroke="currentColor" stroke-width="5"/><path d="M191.8 53.06c5.85-.54 17.71 2.35 18.37 18.25" stroke="currentColor" stroke-width="4" stroke-linecap="round"/><path d="M219.5 69.69c0 14.25-11.8 25.9-26.47 25.9-14.67 0-26.48-11.65-26.48-25.9 0-14.25 11.8-25.9 26.48-25.9 14.66 0 26.47 11.65 26.47 25.9Z" stroke="currentColor" stroke-width="5"/><path d="M167.23 21.16c0 10.54-8.79 19.17-19.73 19.17-10.95 0-19.73-8.63-19.73-19.17C127.77 10.63 136.54 2 147.5 2c10.94 0 19.73 8.63 19.73 19.16Z" stroke="currentColor" stroke-width="4"/><path d="M59.35 263.55a18 18 0 0 1-7.1-1.4 18.11 18.11 0 0 1-5.7-3.85 19.19 19.19 0 0 1-3.8-5.75c-.9-2.2-1.35-4.55-1.35-7.05a18.07 18.07 0 0 1 5.15-12.75 17.7 17.7 0 0 1 5.7-3.9 18 18 0 0 1 7.1-1.4c1.73 0 3.4.2 5 .6 1.63.4 3.17 1 4.6 1.8 1.43.8 2.73 1.8 3.9 3l-1.5 1.75a14.47 14.47 0 0 0-5.4-3.65 16.82 16.82 0 0 0-6.6-1.35 15.27 15.27 0 0 0-11.15 4.65 15.78 15.78 0 0 0-4.45 11.25c0 2.23.38 4.32 1.15 6.25.8 1.9 1.9 3.58 3.3 5.05a16.38 16.38 0 0 0 4.95 3.4 16.82 16.82 0 0 0 12.8-.15 15.3 15.3 0 0 0 5.4-3.65l1.5 1.75a16.92 16.92 0 0 1-3.9 3c-1.43.8-2.97 1.4-4.6 1.8-1.6.4-3.27.6-5 .6Zm34.48-.55v-35h2.3v32.85h21.6V263h-23.9Zm44.14 0v-35h24.2v2.15h-21.9v14.1h14.3v2.15h-14.3v14.45h22.1V263h-24.4Zm41.8 0 14.6-35h2.85l14.56 35h-2.5l-4.85-11.85h-17.36l-4.9 11.85h-2.4Zm8.16-13.9h15.64l-7.8-18.95-7.84 18.95Zm42.86 13.9v-35h2.5l22.6 30.95V228h2.3v35h-2l-23.1-31.6V263h-2.3Zm50.2 0v-35h2.3v35h-2.3Zm25.09 0v-35h2.5l22.6 30.95V228h2.3v35h-2l-23.1-31.6V263h-2.3Zm66.34.55a17.64 17.64 0 0 1-12.75-5.25 18.01 18.01 0 0 1-5.15-12.8 18.07 18.07 0 0 1 5.15-12.75 17.7 17.7 0 0 1 5.7-3.9 19.37 19.37 0 0 1 20.6 4l-1.5 1.75a14.47 14.47 0 0 0-5.4-3.65 16.82 16.82 0 0 0-6.6-1.35 15.27 15.27 0 0 0-11.15 4.65 15.78 15.78 0 0 0-4.45 11.25c0 2.23.38 4.32 1.15 6.25a15.76 15.76 0 0 0 8.2 8.45c1.9.8 3.97 1.2 6.2 1.2 2.7 0 5.1-.6 7.2-1.8a14.1 14.1 0 0 0 5.1-5 14.96 14.96 0 0 0 2.15-7.15h-13.45v-2.15h15.7v1.25a17.01 17.01 0 0 1-10.15 15.7c-2 .87-4.18 1.3-6.55 1.3Zm74.04 0c-2.8 0-5.41-.57-7.85-1.7a19.21 19.21 0 0 1-6.4-5l1.8-1.5a17.56 17.56 0 0 0 5.65 4.5 15.4 15.4 0 0 0 6.8 1.55c2 0 3.79-.35 5.35-1.05a9.2 9.2 0 0 0 3.7-2.85 6.87 6.87 0 0 0 1.35-4.15c0-2.03-.7-3.58-2.1-4.65-1.36-1.1-3.68-1.92-6.95-2.45l-4.25-.7c-3.5-.57-6.06-1.55-7.7-2.95-1.63-1.4-2.45-3.32-2.45-5.75 0-1.87.49-3.5 1.45-4.9 1-1.4 2.39-2.5 4.15-3.3 1.77-.8 3.79-1.2 6.05-1.2a23.37 23.37 0 0 1 13.45 4.65l-1.4 1.9c-3.93-2.93-7.95-4.4-12.05-4.4-1.8 0-3.4.3-4.8.9-1.4.6-2.5 1.45-3.3 2.55a6 6 0 0 0-1.2 3.7 5.3 5.3 0 0 0 1.85 4.3c1.24 1 3.3 1.73 6.2 2.2l4.25.7c3.97.63 6.82 1.7 8.55 3.2 1.74 1.47 2.6 3.58 2.6 6.35a8.7 8.7 0 0 1-1.65 5.2 11.15 11.15 0 0 1-4.55 3.55c-1.9.87-4.08 1.3-6.55 1.3Zm32.95-.55v-35h24.2v2.15h-21.9v14.1h14.3v2.15h-14.3v14.45h22.1V263h-24.4Zm44.58 0v-35h14.1c2.37 0 4.37.43 6 1.3a8.58 8.58 0 0 1 3.75 3.45 9.37 9.37 0 0 1 1.3 4.95c0 2.27-.65 4.25-1.95 5.95a9.5 9.5 0 0 1-5.65 3.4l7.75 15.95h-2.5l-7.55-15.6h-12.95V263h-2.3Zm2.3-17.75h11.65c2.86 0 5.05-.72 6.55-2.15a7.18 7.18 0 0 0 2.3-5.4c0-2.17-.77-3.97-2.3-5.4-1.5-1.43-3.69-2.15-6.55-2.15h-11.65v15.1ZM579.76 263l-14.7-35h2.5l13.65 32.85L594.9 228h2.4l-14.7 35h-2.85Zm36.46 0v-35h2.3v35h-2.3Zm41.3.55a18 18 0 0 1-7.1-1.4 18.1 18.1 0 0 1-5.7-3.85 19.18 19.18 0 0 1-3.8-5.75c-.9-2.2-1.35-4.55-1.35-7.05a18.07 18.07 0 0 1 5.15-12.75 17.7 17.7 0 0 1 5.7-3.9 18 18 0 0 1 7.1-1.4c1.73 0 3.4.2 5 .6 1.63.4 3.16 1 4.6 1.8 1.43.8 2.73 1.8 3.9 3l-1.5 1.75a14.47 14.47 0 0 0-5.4-3.65 16.82 16.82 0 0 0-6.6-1.35 15.27 15.27 0 0 0-11.15 4.65 15.78 15.78 0 0 0-4.45 11.25c0 2.23.38 4.32 1.15 6.25.8 1.9 1.9 3.58 3.3 5.05a16.38 16.38 0 0 0 4.95 3.4 16.82 16.82 0 0 0 12.8-.15 15.3 15.3 0 0 0 5.4-3.65l1.5 1.75a16.93 16.93 0 0 1-3.9 3c-1.44.8-2.97 1.4-4.6 1.8-1.6.4-3.27.6-5 .6ZM692 263v-35h24.2v2.15h-21.9v14.1h14.3v2.15h-14.3v14.45h22.1V263H692Zm55.43.55c-2.8 0-5.42-.57-7.85-1.7a19.2 19.2 0 0 1-6.4-5l1.8-1.5a17.55 17.55 0 0 0 5.65 4.5 15.4 15.4 0 0 0 6.8 1.55c2 0 3.78-.35 5.35-1.05a9.2 9.2 0 0 0 3.7-2.85 6.87 6.87 0 0 0 1.35-4.15c0-2.03-.7-3.58-2.1-4.65-1.37-1.1-3.69-1.92-6.95-2.45l-4.25-.7c-3.5-.57-6.07-1.55-7.7-2.95-1.64-1.4-2.45-3.32-2.45-5.75 0-1.87.48-3.5 1.45-4.9 1-1.4 2.38-2.5 4.15-3.3 1.76-.8 3.78-1.2 6.05-1.2a23.37 23.37 0 0 1 13.45 4.65l-1.4 1.9c-3.94-2.93-7.95-4.4-12.05-4.4-1.8 0-3.4.3-4.8.9-1.4.6-2.5 1.45-3.3 2.55a6 6 0 0 0-1.2 3.7 5.3 5.3 0 0 0 1.85 4.3c1.23 1 3.3 1.73 6.2 2.2l4.25.7c3.96.63 6.81 1.7 8.55 3.2 1.73 1.47 2.6 3.58 2.6 6.35a8.7 8.7 0 0 1-1.65 5.2 11.15 11.15 0 0 1-4.55 3.55c-1.9.87-4.09 1.3-6.55 1.3Z" fill="currentColor"/></svg>