<svg fill="none" xmlns="http://www.w3.org/2000/svg" viewBox="0 0 980 238"><g clip-path="url(#a)" fill="currentColor"><path d="M29.9 0H3.46A3.46 3.46 0 0 0 0 3.46v230.32a3.46 3.46 0 0 0 3.46 3.46h126.9l13.84-28.3a3.45 3.45 0 0 0-3.25-5.19H33.5V3.45A3.45 3.45 0 0 0 29.9 0Zm236.68 204.34-15.21 31.1a3.46 3.46 0 0 1-6.43 0L131.64 5.14A3.45 3.45 0 0 1 134.84 0h29.32a3.46 3.46 0 0 1 3.21 1.97l99.22 202.37Zm273.29 33h-29.32a3.46 3.46 0 0 1-3.1-1.83L408.24 33.5 423.69 2a3.45 3.45 0 0 1 6.46 0l112.95 230.2a3.47 3.47 0 0 1-3.22 5.14ZM350.63 0h-26.31a3.6 3.6 0 0 0-3.6 3.6v230.15a3.6 3.6 0 0 0 3.6 3.6h26.3a3.6 3.6 0 0 0 3.6-3.6V3.59a3.6 3.6 0 0 0-3.6-3.59ZM606.42 58.75a.97.97 0 0 1-.28-.7V1a1 1 0 0 1 1-1h7.78a.97.97 0 0 1 .97 1v49.07a.45.45 0 0 0 .35.45h28.38a.76.76 0 0 1 .7.31.82.82 0 0 1 .27.73v6.53a1 1 0 0 1-.97 1h-37.44a1 1 0 0 1-.76-.34Zm87.5-50.63c-.2.18-.46.28-.73.28h-28.73a.38.38 0 0 0-.44.3v15.9c0 .1.03.2.1.28.06.07.14.12.24.14h19.43c.26 0 .5.1.7.28a.86.86 0 0 1 .27.72v6.4a.77.77 0 0 1-.28.69c-.2.16-.43.27-.69.3h-19.32a.38.38 0 0 0-.4.18.38.38 0 0 0-.05.14v16.34a.45.45 0 0 0 .34.45h28.83a.83.83 0 0 1 .73.31c.18.2.28.46.28.73v6.53a1 1 0 0 1-1 1h-38.03a1 1 0 0 1-1-1V1a1 1 0 0 1 1-1h38.02a1 1 0 0 1 1 1v6.4c0 .26-.1.52-.27.72Zm49.92 0c-.21.18-.48.28-.76.28h-28.73a.38.38 0 0 0-.41.3v15.9a.4.4 0 0 0 .08.28.37.37 0 0 0 .26.14h19.36c.27 0 .53.1.73.28.2.19.3.45.31.72v6.4a1.07 1.07 0 0 1-1.04 1h-19.29a.38.38 0 0 0-.41.3v16.35a.42.42 0 0 0 .34.45h28.8a.93.93 0 0 1 .76.31c.18.2.28.46.28.73v6.53c0 .27-.1.53-.28.73-.21.17-.48.27-.76.27h-37.82c-.28 0-.55-.1-.76-.27a1.1 1.1 0 0 1-.28-.73V1c0-.27.1-.52.28-.72.21-.18.48-.28.76-.28h37.72c.27 0 .54.1.76.28.17.2.27.45.27.72v6.4c.03.25-.03.5-.17.72Zm-77.16 139.86a.8.8 0 0 1-.28-.7V90.3a.8.8 0 0 1 .28-.7c.21-.17.48-.27.76-.27h7.7a.87.87 0 0 1 .73.28 1 1 0 0 1 .31.69v56.99a1.07 1.07 0 0 1-.64.91.86.86 0 0 1-.4.05h-7.7c-.28 0-.55-.1-.76-.27Zm22.09 0a1.04 1.04 0 0 1-.28-.7V90.3a.98.98 0 0 1 .3-.7.98.98 0 0 1 .7-.27h7.72a.97.97 0 0 1 1 .97v49.14a.38.38 0 0 0 .31.45h28.38a.86.86 0 0 1 .73.28 1 1 0 0 1 .3.69v6.43a1.07 1.07 0 0 1-.63.91.86.86 0 0 1-.4.05h-37.4a.86.86 0 0 1-.73-.27Zm48.12 0a1.04 1.04 0 0 1-.27-.7V90.3a.97.97 0 0 1 1-.97h7.78a.97.97 0 0 1 .97.97v49.14a.42.42 0 0 0 .34.45h28.38a.97.97 0 0 1 .97.97v6.43a1 1 0 0 1-.97.96h-37.44a.93.93 0 0 1-.76-.27Zm-95.31 88.53-2.77-8.98a.41.41 0 0 0-.38-.38h-22.3s-.27 0-.38.38l-2.83 8.98a1.03 1.03 0 0 1-1.07.87h-8.44a.96.96 0 0 1-.76-.35c-.1-.26-.1-.56 0-.83l18.36-56.98a1 1 0 0 1 1.07-.83h10.37a1.14 1.14 0 0 1 1.14.83l18.33 56.98c.03.14.03.28 0 .42 0 .48-.28.76-.9.76h-8.44a1.17 1.17 0 0 1-1-.87ZM619 219.24h17.12c.3 0 .45 0 .3-.52-.13-.52-6.11-21.33-8.67-28.27 0 0 0-.35-.28 0-2.7 6.91-8.57 28.27-8.57 28.27s-.07.62.1.62v-.1Zm73.5 17.38-11.13-24.2a.56.56 0 0 0-.52-.37H670.7a.34.34 0 0 0-.28.06.34.34 0 0 0-.14.25v24.19a1.1 1.1 0 0 1-1.03 1.03h-7.75a1.14 1.14 0 0 1-1.03-1.03v-57.16a.96.96 0 0 1 .34-.73c.19-.17.44-.27.7-.27h23.19c3.17-.07 6.3.68 9.1 2.18a14.93 14.93 0 0 1 6.22 6.04c1.59 2.8 2.41 5.97 2.38 9.2.1 3.53-.96 7-3 9.88a15.48 15.48 0 0 1-8.3 5.7.32.32 0 0 0 0 .35l11.89 24.53v.49c0 .45-.31.69-.9.69h-8.13a1.16 1.16 0 0 1-.9-.11 1.2 1.2 0 0 1-.55-.72Zm-22.16-32.73a.34.34 0 0 0 .17.37c.05.03.1.04.14.05h12.76a8.96 8.96 0 0 0 6.54-2.42 8.33 8.33 0 0 0 2.55-6.26 8.61 8.61 0 0 0-2.45-6.4 9.26 9.26 0 0 0-6.57-2.48h-12.8a.35.35 0 0 0-.24.1.34.34 0 0 0-.1.25v16.8Zm50.68 31.66a18.18 18.18 0 0 1-7.46-6.92 20.72 20.72 0 0 1-2.6-10.36v-20.84c-.05-3.62.84-7.2 2.6-10.37 1.75-3 4.35-5.4 7.46-6.91a23.8 23.8 0 0 1 11.1-2.45c3.82-.1 7.61.7 11.06 2.35a17.3 17.3 0 0 1 7.44 6.56 18.98 18.98 0 0 1 2.6 9.95.97.97 0 0 1-.29.7c-.2.18-.47.3-.76.3l-7.74.42c-.66 0-.97-.27-.97-.9a10.64 10.64 0 0 0-3.11-8.01 12.76 12.76 0 0 0-16.46 0 10.53 10.53 0 0 0-3.14 8.01v21.5a10.65 10.65 0 0 0 3.14 7.91 12.83 12.83 0 0 0 16.46 0 10.75 10.75 0 0 0 3.11-7.98.8.8 0 0 1 .73-.93h.24l7.74.3c.29.02.55.13.76.32a.66.66 0 0 1 .28.55c.07 3.54-.83 7.03-2.6 10.1a17.28 17.28 0 0 1-7.32 6.77 25.4 25.4 0 0 1-11.06 2.38c-3.88.1-7.72-.75-11.2-2.45Zm75.16-56.89c.2-.17.46-.27.73-.27h7.78c.25 0 .5.1.69.27.17.2.27.44.28.7v56.98a.8.8 0 0 1-.28.7.8.8 0 0 1-.7.34h-7.77a.88.88 0 0 1-.73-.35 1.04 1.04 0 0 1-.27-.69v-24.19a.34.34 0 0 0-.17-.37.34.34 0 0 0-.14-.04h-21.61a.34.34 0 0 0-.28.06.35.35 0 0 0-.14.25v24.19c0 .25-.1.5-.27.69a.96.96 0 0 1-.73.34h-7.78a.8.8 0 0 1-.69-.34.8.8 0 0 1-.28-.7v-56.88c.01-.25.11-.5.28-.69.19-.17.43-.27.7-.27h7.84a1 1 0 0 1 .97.97v23.56a.37.37 0 0 0 .08.28l.12.1.14.04H795.68a.4.4 0 0 0 .24-.17.4.4 0 0 0 .06-.14v-23.68c-.02-.24.05-.49.2-.69Zm21.47 58.37a.79.79 0 0 1-.27-.69v-56.99a.94.94 0 0 1 .96-.96h7.92c.27 0 .53.1.73.27.17.2.26.44.27.7v56.98c0 .26-.1.5-.27.7a.88.88 0 0 1-.73.34h-7.78a.8.8 0 0 1-.83-.35Zm35.96-.52-17.74-57.3c0-.4.35-.82.97-.82h8.33a1.14 1.14 0 0 1 1.18.83l12.62 43.96s0 .62.3 0l12.52-43.96a1.14 1.14 0 0 1 1.18-.83h8.22a.83.83 0 0 1 .73.3.98.98 0 0 1 0 .87l-17.94 56.95a1.07 1.07 0 0 1-1.07.87h-8.44a1.04 1.04 0 0 1-.86-.87Zm76.02-50.2a.75.75 0 0 1-.7.27h-28.62c-.1 0-.2.03-.27.1a.41.41 0 0 0-.14.24v15.76a.34.34 0 0 0 .06.28.34.34 0 0 0 .25.14h19.4c.25 0 .5.1.68.27.18.22.28.49.28.76v6.33c0 .28-.1.54-.28.76a.92.92 0 0 1-.69.27h-19.25c-.05 0-.1 0-.15.02a.37.37 0 0 0-.13.07.36.36 0 0 0-.1.12.4.4 0 0 0-.04.14v16.84l.06.13a.36.36 0 0 0 .25.14h28.73a1 1 0 0 1 1 1v6.36a1 1 0 0 1-.3.72.73.73 0 0 1-.7.31h-37.82a.75.75 0 0 1-.69-.3.86.86 0 0 1-.28-.73v-56.96a.93.93 0 0 1 .97-.96h37.79a.95.95 0 0 1 .69.27c.18.19.3.44.31.7v6.39c-.05.2-.16.4-.31.55Zm17.9 49.62a17.59 17.59 0 0 1-7.53-5.91 15.16 15.16 0 0 1-2.63-8.92V219a.77.77 0 0 1 .28-.7.97.97 0 0 1 .7-.34h7.53a1.11 1.11 0 0 1 .93.66c.05.12.07.25.07.37v1.6a7.73 7.73 0 0 0 3.46 6.45 15.62 15.62 0 0 0 9.4 2.56c2.76.2 5.5-.57 7.75-2.17a6.9 6.9 0 0 0 2.62-5.64 5.83 5.83 0 0 0-1.45-4 14.31 14.31 0 0 0-4.11-3.05c-1.73-.86-4.36-1.97-7.95-3.45a78.88 78.88 0 0 1-9.34-3.94 18.2 18.2 0 0 1-6.22-5.26 13.81 13.81 0 0 1-2.46-8.32 14.17 14.17 0 0 1 5.22-11.75 22.4 22.4 0 0 1 14.42-4.29c3.83-.07 7.63.66 11.17 2.14a17.73 17.73 0 0 1 7.53 6.16 15.34 15.34 0 0 1 2.7 9.05v1.38c0 .28-.1.55-.28.76-.2.18-.46.28-.72.28h-7.5a.95.95 0 0 1-.72-.25.97.97 0 0 1-.32-.69v-.79a8.45 8.45 0 0 0-3.25-6.7 13.83 13.83 0 0 0-8.96-2.73c-2.55-.17-5.1.51-7.22 1.93a6.5 6.5 0 0 0-2.6 5.46 5.94 5.94 0 0 0 1.39 4.11 11.3 11.3 0 0 0 4.04 2.9c2.72 1.31 5.5 2.46 8.34 3.46 3.21 1.21 6.36 2.6 9.43 4.12a18.43 18.43 0 0 1 6.12 5.18 13.03 13.03 0 0 1 2.6 8.3 14.64 14.64 0 0 1-5.64 11.78 23.86 23.86 0 0 1-15.28 4.45 28.5 28.5 0 0 1-11.51-2.1ZM824.16 97.3a1.2 1.2 0 0 1-.76.28h-28.7a.34.34 0 0 0-.27.06.34.34 0 0 0-.14.25v15.9a.34.34 0 0 0 .06.28.34.34 0 0 0 .25.13H814c.25 0 .5.1.69.28.2.2.32.45.35.73v6.39c-.03.28-.15.53-.35.72-.19.18-.44.28-.7.28H794.7a.35.35 0 0 0-.15 0 .35.35 0 0 0-.23.17.34.34 0 0 0-.04.14v16.38a.34.34 0 0 0 .06.28l.11.1.14.04h28.8a.98.98 0 0 1 .76.3.86.86 0 0 1 .28.73v6.54a.86.86 0 0 1-.28.72 1.2 1.2 0 0 1-.76.28h-37.68c-.28 0-.55-.1-.76-.28a.87.87 0 0 1-.28-.72v-57.1a.86.86 0 0 1 .28-.72c.21-.18.48-.27.76-.28h37.68c.28 0 .55.1.76.28a.86.86 0 0 1 .28.73v6.56a.86.86 0 0 1-.28.55Zm-194.3 33.56L616.04 90a1.21 1.21 0 0 0-1.2-.66h-7.79a.96.96 0 0 0-1 .97v56.99a1 1 0 0 0 1 .96h7.78a.97.97 0 0 0 .97-.96v-25.02c0-.38 0-.38.24-.38h.28l8.81 21.11a1.35 1.35 0 0 0 1.18.66h7.47a1.35 1.35 0 0 0 1.17-.66l8.82-21.11h.27c.25 0 .25 0 .25.38v25.02a1 1 0 0 0 .96.96h7.78a1 1 0 0 0 1-.96V90.3a.97.97 0 0 0-1-.97h-7.78a1.21 1.21 0 0 0-1.2.66l-13.83 40.88h-.35Zm236.69 16.62L855.4 123.3a.55.55 0 0 0-.51-.38h-10.1a.35.35 0 0 0-.37.17.34.34 0 0 0-.04.14v24.2a1.14 1.14 0 0 1-1.04 1.03h-7.75a1.11 1.11 0 0 1-1.03-1.04V90.23a1.08 1.08 0 0 1 1.04-.97h23.2c3.16-.08 6.3.67 9.08 2.18a14.86 14.86 0 0 1 6.12 6.01 17.93 17.93 0 0 1 2.42 9.2c.08 3.53-.97 7-3 9.88a15.66 15.66 0 0 1-8.3 5.7.31.31 0 0 0 0 .35l11.86 24.53c.03.16.03.33 0 .49 0 .45-.28.69-.9.69h-8.1a1.17 1.17 0 0 1-1.44-.8Zm-22.16-32.59c-.01.1.01.2.07.27.06.08.14.13.24.15h12.68a9.1 9.1 0 0 0 6.57-2.42 8.48 8.48 0 0 0 2.56-6.25 8.74 8.74 0 0 0-2.45-6.43 9.47 9.47 0 0 0-6.57-2.46h-12.83a.35.35 0 0 0-.3.35l.03 16.8Z"/></g><defs><clipPath id="a"><path fill="currentColor" d="M0 0h980v238H0z"/></clipPath></defs></svg>