<svg fill="none" xmlns="http://www.w3.org/2000/svg" viewBox="0 0 439 83"><path fill-rule="evenodd" clip-rule="evenodd" d="M70.71 67.96c.37-.08.75-.2 1.13-.3h-6.97c1.21.72 2.79.97 5.84.3ZM60.35 64.87h14c.34-.46.66-.93.98-1.4H59.98c.05.47.17.94.37 1.4ZM50.92 63.47l.25.3c.37.4.74.77 1.1 1.1h1.4l-.02-.15c-.03-.35-.02-.77.06-1.25h-2.8ZM46.86 58.18c.18.38.39.74.59 1.1h7.43c.33-.39.86-.93 1.62-1.39h-9.77l.13.3ZM62.55 58.12c-.02.5-.54.58-.71.6-.15.02-.34.05-.55.13-.23.1-.43.25-.6.44h16.74c.24-.46.47-.93.69-1.4h-15.6c.03.1.03.17.03.23ZM3.92 54.4h5.5c.6-.47 1.19-.93 1.74-1.4H3.49c.13.48.28.94.43 1.4ZM46.31 54.4h33.46c.15-.46.3-.92.44-1.4H46.03c.08.45.17.92.28 1.4ZM45.45 49.52h35.92c.09-.46.16-.93.23-1.4H45.34c.01.45.05.92.1 1.4ZM1.63 49.52H14.8c.3-.31.58-.63.87-.96l.36-.43H1.4l.24 1.4ZM.79 45.34h18.53l.9-1.4H.7c.02.47.06.93.09 1.4ZM58.26 44.94c-.4.04-.71-.07-.92-.33a.95.95 0 0 1-.2-.67H45.84c-.18.43-.36.89-.51 1.4H81.5l.1-1.4H60.34c-.74.58-1.5.94-2.1 1ZM63.47 39.76H82.3c-.01-.24-.04-.47-.06-.7h-18.6c-.02.25-.08.48-.17.7ZM51.12 39.06c-.58.22-1.12.47-1.6.7h8.37l-.02-.03c-.22-.27-.51-.5-.83-.67h-5.92ZM1.4 39.76H23c.28-.26.51-.5.71-.7H1.46l-.07.7ZM62.33 34.87H81.6c-.05-.23-.12-.46-.19-.7H61.38c.31.22.64.45.95.7ZM2.1 34.87h24.28c.25-.23.53-.46.82-.7H2.28l-.19.7ZM2.79 30H31.5c.64-.28 1.3-.51 1.98-.7H3.1l-.32.7ZM58.47 30h21.74c-.1-.24-.2-.47-.32-.7h-22c.27.24.45.47.58.7ZM45.83 24.41h32.29c-.14-.23-.27-.47-.42-.7H5.3l-.42.7h34.1a9.77 9.77 0 0 1 2.2-.54 9.17 9.17 0 0 1 4.32.4l.33.14ZM75.47 19.53H8.23c-.2.23-.37.46-.56.7h68.35l-.55-.7ZM71.13 14.65H11.86l-.7.7h60.68l-.7-.7ZM66.01 9.07H17c-.32.22-.64.46-.95.7h50.92c-.31-.24-.63-.48-.95-.7ZM57.8 4.18H25.9l-1.49.7H59.3a39.5 39.5 0 0 0-1.5-.7Z" fill="#fff"/><path fill-rule="evenodd" clip-rule="evenodd" d="m35.06 48.88-.01.07a5.59 5.59 0 0 0-2.98-.86c.24-.62.6-1.44.93-1.82.41-.45 1.16-1.29 2.24-1.44.38-.05.6.01.85.07l.23.06a41.3 41.3 0 0 0-1.26 3.92Zm.03 9.57a7.35 7.35 0 0 0-2.52-.3 8.72 8.72 0 0 1 .01-2.02c.14-1.12.28-2.28 1.03-2.75.3-.19.65-.23.93-.24 0 2.13.38 3.86.6 4.9l.15.48-.2-.07Zm3.25 8.43.05.12c-.7.35-1.15.65-1.51.91l-.15-.23a55.92 55.92 0 0 1-2.42-4.41 7.01 7.01 0 0 1 2.3-.94c.45 1.22 1.02 2.73 1.73 4.55Zm-2.4 1.61c-.21.1-.45.19-.76.27-.7.18-1.78.46-2.5-.07-.4-.31-.66-.84-.74-1.56-.13-1.22.64-2.2 1-2.66.15-.18.32-.35.49-.52a59.06 59.06 0 0 0 2.52 4.54h-.01Zm35.69-.62-1.1.15c-2.96.33-4.5.2-5.68-.15a7.43 7.43 0 0 1-.61-.22 6.48 6.48 0 0 1-2.81-2 5 5 0 0 1-1.1-3.43 5 5 0 0 1 1-2.8c.17-.19.37-.34.6-.43.2-.09.37-.11.52-.13.17-.03.67-.1.69-.6a.6.6 0 0 0-.04-.23.68.68 0 0 0-.22-.3c-.52-.4-2.47-.88-4.35-.34a5.8 5.8 0 0 0-1.44.64 6.7 6.7 0 0 0-1.88 1.73 7.02 7.02 0 0 0-1.5 3.2c-.07.49-.08.93-.05 1.3a5.34 5.34 0 0 0 .39 1.58c-.48-.3-1.15-.8-1.88-1.44-.38-.34-.78-.72-1.18-1.14l-.28-.3a18.95 18.95 0 0 1-3.14-4.64l-.13-.29a18.95 18.95 0 0 1-1.51-4.91 63.58 63.58 0 0 1-.55-3.66c-.05-.44-.1-.86-.11-1.26a9.31 9.31 0 0 1 1.07-4.91 11.57 11.57 0 0 1 1.63-2.43 17.5 17.5 0 0 1 3-2.5A8.75 8.75 0 0 1 54.16 37l.05-.02c.31.1.63.23.95.4.41.2 1 .5 1.52 1 .3.29.58.64.8 1.08l.02.05c.45.95.42 1.91.4 2.1-.03.52-.15.87-.24 1.15-.06.16-.12.35-.13.54-.01.19.03.39.2.57.2.22.51.3.9.28a4.76 4.76 0 0 0 2.09-.85 6.81 6.81 0 0 0 1.86-1.84 6.47 6.47 0 0 0 1.01-3.08 5.35 5.35 0 0 0-1.31-3.86c-.3-.39-.64-.74-.94-1.06l-.1-.1c-.42-.44-.67-.62-.86-.76a5.02 5.02 0 0 1-1.62-2.43l-.24-.63a4.4 4.4 0 0 0-.79-1.25 6.3 6.3 0 0 0-3.04-1.77 10 10 0 0 0-4.14-.26c-.64.06-.98.14-1.2.2-.23.05-.3.07-.51.04-.67-.08-1-.4-1.49-.86a7.16 7.16 0 0 0-1.37-1.08l-.33-.18a7 7 0 0 0-4.33-.54c-.86.15-1.59.42-2.2.72-.5.25-.93.51-1.27.73-.51.32-1.4 1.22-2.33 2.2-.22.24-.4.43-.53.55a14.37 14.37 0 0 0-3.38 1.5 18.7 18.7 0 0 0-5.3 4.98c-.74 1.03-1.32 2-1.82 2.84l-.26.45a63.53 63.53 0 0 1-1.05 1.7 75.12 75.12 0 0 1-3.48 4.98c-.95 1.24-2 2.52-3.12 3.72l-.36.39-.85.87a44.38 44.38 0 0 1-4.23 3.66c-.57.44-1.17.87-1.78 1.32C8 55.4 6.53 56.4 4.88 57.5l.46 1c4.9-3.25 8.48-5.8 11.66-9.15a67.3 67.3 0 0 0 8.15-10.98l.27-.45c1.15-1.94 2.58-4.35 5.35-6.5a13.86 13.86 0 0 1 4.53-2.35c.16-.05.32-.1.48-.13l.25-.07c.76-.2 1.57-.38 2.4-.38a5.1 5.1 0 0 1 1.52.22c.17.06.34.11.5.2a4.86 4.86 0 0 1 2.15 2.01c.15.29.89 1.79.36 3.45-.3.93-.65 1.36-.73 1.4-.1-.06-.26-.38-.37-.6a3.6 3.6 0 0 0-1.4-1.68c-1.07-.58-2.68-.22-4.78 1.06a16.73 16.73 0 0 0-1.34.91c-2.29 1.73-3.75 3.75-5.06 5.58l-.08.1c-.02.04-2.69 3.75-5.43 7.42a52.34 52.34 0 0 1-9.18 9.41.55.55 0 0 0-.09.77c.19.24.53.28.76.09a53.43 53.43 0 0 0 9.38-9.61 492.26 492.26 0 0 0 5.44-7.43l.08-.11.98-1.34c.34-.45.69-.89 1.06-1.33a17.5 17.5 0 0 1 4.04-3.52c1.7-1.04 3.02-1.4 3.7-1.04.46.25.7.74.95 1.22.29.56.6 1.18 1.3 1.18h.02c.92 0 1.48-1.17 1.79-2.15a5.48 5.48 0 0 0-.3-4.02l-.14-.28a5.85 5.85 0 0 0-2.65-2.49 6.26 6.26 0 0 0-3.94-.38c.55-.55 1.14-1.13 1.44-1.32.72-.45 1.71-1.07 3.08-1.3a5.96 5.96 0 0 1 3.67.44c.65.32 1.05.7 1.43 1.07.53.5 1.08 1.03 2.1 1.16.42.05.63 0 .9-.07.2-.05.5-.12 1.06-.17.9-.1 2.26-.23 3.7.22.7.21 1.75.54 2.56 1.45a4 4 0 0 1 .81 1.52A6.1 6.1 0 0 0 59 32.8c.34.39.55.54.75.68.17.13.35.26.7.63.84.87 1.79 1.86 2.02 3.33a5 5 0 0 1-.8 3.4 5.5 5.5 0 0 1-2.96 2.19c.1-.3.24-.75.28-1.37a5.7 5.7 0 0 0-.54-2.69c-.74-1.53-2.08-2.22-2.8-2.59l-.41-.18-.35-.16a9.26 9.26 0 0 0-4.44-.44l-.28.06a11.94 11.94 0 0 0-5.53 2.74l-.08.08c-.28.26-.7.65-1.37.96a3 3 0 0 1-1.05.27c-.32.04-.67.08-1.17.28-.72.3-1.28.74-1.75 1.21a10.1 10.1 0 0 0-.86.96 9.33 9.33 0 0 0-.93 1.29c-.17.24-.26.34-.45.4-.22.1-.34.06-.6 0a3.06 3.06 0 0 0-1.28-.1c-1.47.2-2.43 1.27-2.89 1.79a8.9 8.9 0 0 0-1.28 2.53l-.07.17-.46.13c-.7.23-1.2.54-1.44.7a7.5 7.5 0 0 0-2.31 2.52l-.1.14c0 .02-.4.63-3.49 4.64-1.3 1.71-2.55 2.79-5.04 4.92a63.25 63.25 0 0 1-7.46 5.5c.23.29.47.56.71.84a64.1 64.1 0 0 0 7.46-5.5c2.54-2.19 3.81-3.29 5.2-5.09 3.16-4.13 3.52-4.69 3.54-4.71l.1-.14c.48-.77.98-1.56 1.97-2.2.32-.2 1.17-.75 2.38-.8.5-.02 1.8.03 2.91.93a4.75 4.75 0 0 1 1.53 2.3 3.64 3.64 0 0 0-1.4-.37c-.31-.02-1.16-.07-1.92.4-1.18.75-1.36 2.23-1.53 3.55-.09.73-.1 1.48-.01 2.23-.4.05-.8.11-1.24.2-2.61.54-4.47 1.56-5.27 1.99a51.8 51.8 0 0 0-5.1 3.19 96.48 96.48 0 0 1-2.76 1.83 55.3 55.3 0 0 1-5.25 2.9l.78.83c1.48-.73 3.2-1.65 5.04-2.8 1.1-.7 1.97-1.29 2.8-1.86a50.86 50.86 0 0 1 5.39-3.33 18.27 18.27 0 0 1 4.6-1.68 14.4 14.4 0 0 1 2.17-.26c.73-.02 1.46.04 2.1.25.37.12.7.26 1 .42l.5 1.39a7.32 7.32 0 0 0-2.5 1.03 6.68 6.68 0 0 0-1.65 1.46c-.43.53-1.42 1.8-1.24 3.46.15 1.3.72 1.97 1.18 2.32 1.13.85 2.56.47 3.42.25a5.34 5.34 0 0 0 1.97-.96c.44-.31.93-.66 1.88-1.09 1.93-.88 2.86-.8 3.46-.62.56.17.65.3.67.36.02.05-.11.25-.2.38-.17.28-.39.61-.46 1.07-.12.85.3 1.7 1.36 2.74 2.05 2 4.82 3.1 6.29 3.6 2.7.88 4.33 1.42 7.2 1.87.65.1 1.28.18 1.9.25.59-.3 1.17-.61 1.74-.94-1.1-.08-2.25-.2-3.47-.4-2.78-.43-4.3-.93-7.03-1.83a15.8 15.8 0 0 1-5.87-3.34c-.77-.75-1.11-1.33-1.04-1.78.03-.23.16-.43.3-.64.21-.34.48-.76.32-1.3-.22-.74-1.08-1-1.4-1.09a4.97 4.97 0 0 0-3.08.22c-.2.06-.4.14-.62.23l-.06-.16-.2-.52c-.57-1.45-1.03-2.68-1.4-3.71l.15-.05c.28-.08.5-.23.6-.55.25-.76-.57-1.62-1.62-2.28l-.2-.12c-.32-.95-.45-1.39-.45-1.39a21.2 21.2 0 0 1-.57-4.47 3.3 3.3 0 0 1 .46.22c.3.16.7.37 1.09.07.14-.11.3-.34.31-.76 0-.76-.5-1.98-1.35-2.94l-.16-.17.13-.56c.36-1.4 1.07-3.52 1.45-4.37.14-.07.25-.15.35-.23a3.18 3.18 0 0 0 .54-.7c.17-.26.38-.58.73-1l.09-.1a19.67 19.67 0 0 1 .7-.78c.15-.15.31-.3.49-.43.27-.22.56-.4.9-.54.27-.1.47-.15.67-.18a39.34 39.34 0 0 0-.84 2 21.62 21.62 0 0 0-1.45 9.14 23.1 23.1 0 0 0 1.72 7.94 20.99 20.99 0 0 0 4.27 6.38c3.05 3.12 6.24 4.42 8.34 5.28a29.56 29.56 0 0 0 11.24 2.15h.21c.5-.37.98-.75 1.45-1.14-1.34.06-3.01.07-4.88-.13a28.48 28.48 0 0 1-7.6-1.9c-2.03-.82-5.09-2.07-7.98-5.03a19.9 19.9 0 0 1-4.05-6.05A22.6 22.6 0 0 1 41.6 45a23.18 23.18 0 0 1 1.03-2.85c.22-.53.43-1 .59-1.32a.54.54 0 0 0 .04-.26l.35-.13a5.95 5.95 0 0 0 1.67-1.16l.07-.07a10.9 10.9 0 0 1 5.56-2.56c.24-.03.52-.05.82-.05h.17l-.15.07-.18.1a15.97 15.97 0 0 0-4.43 3.38 13.43 13.43 0 0 0-1.94 2.96c-.25.52-.47 1.11-.65 1.76-.65 2.33-.38 4.09.06 7 .29 1.86.64 4.17 1.97 6.93a20.1 20.1 0 0 0 3.62 5.22c.4.42 3.9 4 4.99 3.01.41-.37.19-.86 0-1.26-.17-.38-.4-.9-.46-1.6a5.3 5.3 0 0 1 1.32-3.73 5.37 5.37 0 0 1 2.77-2 5.51 5.51 0 0 1 2.14-.16c-1.14.84-1.64 2.54-1.72 3.88a6.36 6.36 0 0 0 1.31 4.15 7.59 7.59 0 0 0 3.27 2.36c.95.38 2.03.63 3.76.63.84 0 1.85-.06 3.06-.2h.04c.4-.41.78-.83 1.15-1.26l-.21.03Z" fill="#fff"/><mask id="a" style="mask-type:luminance" maskUnits="userSpaceOnUse" x="0" y="0" width="83" height="83"><path fill-rule="evenodd" clip-rule="evenodd" d="M0 0h83v83H0V0Z" fill="#fff"/></mask><g mask="url(#a)"><path fill-rule="evenodd" clip-rule="evenodd" d="M58.97 5.07a40.48 40.48 0 0 1 12.29 9.13l.7.8a40.64 40.64 0 0 1 3.15 4.1 40.4 40.4 0 0 1 2.8 4.9 40.13 40.13 0 0 1 3.93 19.62c0 .4-.05.8-.08 1.2a40.2 40.2 0 0 1-.48 3.7 40.07 40.07 0 0 1-1.17 4.9l-.44 1.33a40.1 40.1 0 0 1-8.96 14.62 40.76 40.76 0 0 1-11.23 8.3 40.28 40.28 0 0 1-47.13-8.23c-.26-.27-.53-.54-.78-.83-.15-.15-.28-.31-.42-.47l-.2-.23-.71-.84a40.51 40.51 0 0 1-5.25-8.26l-.45-1.01c-.44-1-.85-2.01-1.2-3.05l-.45-1.32c-.37-1.2-.68-2.41-.94-3.65a40.24 40.24 0 0 1-.7-4.97c-.04-.4-.08-.79-.1-1.19a40.98 40.98 0 0 1 .68-9.8 39.99 39.99 0 0 1 2.83-8.88c.14-.31.27-.63.42-.93.67-1.4 1.43-2.74 2.25-4.04l.56-.87c.96-1.43 2.01-2.8 3.14-4.1l.71-.8a40.77 40.77 0 0 1 13.78-9.8c4.9-2.13 10.3-3.3 15.98-3.3a40.17 40.17 0 0 1 17.47 3.97ZM41.5 0A41.55 41.55 0 0 0 0 41.5 41.55 41.55 0 0 0 41.5 83 41.55 41.55 0 0 0 83 41.5 41.55 41.55 0 0 0 41.5 0Z" fill="#fff"/></g><path d="M102.56 64.2c-.83 0-1.55-.15-2.16-.45-.6-.3-1.07-.72-1.4-1.24a3.57 3.57 0 0 1-.5-1.88c0-.49.1-.94.28-1.35.18-.42.48-.81.92-1.18a8.78 8.78 0 0 1 1.74-1.16 6.95 6.95 0 0 1-.9-1.47c-.18-.45-.27-.9-.27-1.39a2.91 2.91 0 0 1 1.35-2.48c.43-.27.93-.4 1.48-.4.54 0 1 .11 1.38.33.39.21.68.5.89.88.2.36.3.77.3 1.24 0 .62-.17 1.17-.52 1.64s-.88.91-1.6 1.33l-.88.52c.52.6 1.13 1.24 1.81 1.93.69.68 1.38 1.34 2.07 1.98a9.42 9.42 0 0 0 1.32-3.66l.83.15a10.81 10.81 0 0 1-1.55 4.05l1.19 1c.4.34.81.67 1.22.98l-.5.6-1.21-.94-1.17-1.01a5.32 5.32 0 0 1-4.12 1.98Zm-.38-7.6 1.15-.66c.54-.32.93-.66 1.17-1.05.24-.38.36-.79.36-1.22 0-.47-.17-.87-.5-1.2-.34-.34-.77-.51-1.3-.51-.59 0-1.07.2-1.44.61-.36.4-.54.9-.54 1.5 0 .44.09.85.25 1.24.17.38.45.81.85 1.3Zm.38 6.84a4.33 4.33 0 0 0 3.53-1.74 45.34 45.34 0 0 1-4.14-4.16c-.72.37-1.28.72-1.66 1.06-.37.32-.62.65-.76.99-.13.32-.2.68-.2 1.06 0 .84.3 1.52.9 2.04.6.5 1.38.75 2.33.75Zm16.27.56V51.4h4.73c.82 0 1.52.13 2.1.4.57.25 1 .6 1.3 1.08a3 3 0 0 1 .46 1.65c0 .7-.2 1.3-.6 1.8-.38.5-.93.86-1.64 1.06.9.2 1.57.56 2.05 1.1.5.54.74 1.22.74 2.04 0 .68-.16 1.29-.5 1.81-.34.52-.82.93-1.44 1.23-.63.29-1.38.43-2.27.43h-4.93Zm.83-6.97h3.89c.94 0 1.69-.22 2.23-.66.55-.46.83-1.05.83-1.77s-.28-1.3-.83-1.74a3.35 3.35 0 0 0-2.23-.69h-3.9v4.86Zm0 6.2h4.03c1.06 0 1.89-.26 2.5-.76.63-.5.94-1.16.94-1.96s-.31-1.45-.94-1.95a3.82 3.82 0 0 0-2.5-.75h-4.03v5.42Zm11 .77 5.26-12.6h1.02l5.24 12.6h-.9l-1.75-4.27h-6.24L131.52 64h-.86Zm2.93-5h5.64l-2.81-6.83-2.83 6.83Zm13.02 5V52.17h-4.68v-.77h10.19v.77h-4.68V64h-.83Zm9.21 0V51.4h.83v5.87h8.03V51.4h.83V64h-.83v-5.96h-8.03V64h-.83Zm14.59 0V51.4h5.08c.85 0 1.57.16 2.16.47.6.3 1.04.71 1.34 1.24.32.52.47 1.11.47 1.78 0 .82-.23 1.53-.7 2.14a3.42 3.42 0 0 1-2.03 1.23l2.79 5.74h-.9l-2.72-5.62h-4.66V64h-.83Zm.83-6.39h4.2c1.02 0 1.8-.26 2.35-.77.55-.53.83-1.18.83-1.95 0-.78-.28-1.43-.83-1.94-.54-.52-1.33-.78-2.36-.78h-4.2v5.44Zm18.18 6.59c-.89 0-1.72-.16-2.5-.49a6.58 6.58 0 0 1-3.42-3.45 6.68 6.68 0 0 1-.49-2.56 6.47 6.47 0 0 1 6.4-6.5c.9 0 1.73.17 2.5.5.77.33 1.46.8 2.05 1.4a6.23 6.23 0 0 1 1.36 2.06c.34.78.5 1.63.5 2.54a6.48 6.48 0 0 1-3.92 6.01c-.76.33-1.6.49-2.48.49Zm0-.78a5.47 5.47 0 0 0 5.13-3.47c.29-.7.43-1.45.43-2.25a5.83 5.83 0 0 0-1.6-4.07c-.5-.51-1.1-.92-1.78-1.2a5.4 5.4 0 0 0-6.14 1.2 5.68 5.68 0 0 0-1.6 4.07 5.68 5.68 0 0 0 3.37 5.3 5.6 5.6 0 0 0 2.19.42Zm16.45.78c-.89 0-1.72-.16-2.5-.49a6.58 6.58 0 0 1-3.42-3.45 6.68 6.68 0 0 1-.49-2.56 6.47 6.47 0 0 1 6.4-6.5c.9 0 1.73.17 2.5.5.77.33 1.46.8 2.05 1.4a6.23 6.23 0 0 1 1.37 2.06c.33.78.5 1.63.5 2.54a6.48 6.48 0 0 1-3.93 6.01c-.76.33-1.6.49-2.48.49Zm0-.78a5.47 5.47 0 0 0 5.13-3.47c.29-.7.43-1.45.43-2.25a5.83 5.83 0 0 0-1.6-4.07c-.5-.51-1.1-.92-1.78-1.2a5.4 5.4 0 0 0-6.14 1.2 5.68 5.68 0 0 0-1.6 4.07 5.68 5.68 0 0 0 3.37 5.3 5.6 5.6 0 0 0 2.2.42Zm10.67.58V51.4h1.3l4.7 9.92 4.68-9.92h1.3V64h-.84V52.2l-5.14 10.9-5.17-10.87V64h-.83Zm20.78.2a6.61 6.61 0 0 1-5.13-2.41l.65-.54c.6.7 1.28 1.24 2.03 1.62a5.54 5.54 0 0 0 4.38.18c.56-.26 1-.6 1.33-1.03.32-.44.48-.94.48-1.5 0-.73-.25-1.28-.75-1.67-.5-.4-1.33-.69-2.5-.88l-1.53-.25a5.65 5.65 0 0 1-2.78-1.06c-.58-.5-.88-1.2-.88-2.07 0-.68.18-1.26.53-1.77.35-.5.85-.9 1.49-1.19a5.23 5.23 0 0 1 2.18-.43 8.4 8.4 0 0 1 4.84 1.67l-.5.69a7.2 7.2 0 0 0-4.34-1.58c-.65 0-1.23.1-1.73.32s-.9.52-1.19.92c-.29.38-.43.83-.43 1.33 0 .66.22 1.18.66 1.55.45.36 1.2.62 2.24.79l1.53.25c1.42.23 2.45.61 3.07 1.15.63.53.94 1.3.94 2.29 0 .7-.2 1.32-.6 1.87-.39.54-.94.97-1.63 1.28-.69.31-1.47.47-2.36.47Zm14.44-.2V51.4h.83v11.83h7.77V64h-8.6Zm12.65 0V52.17h-4.68v-.77h10.19v.77h-4.68V64h-.83Zm10.04-.77h3.13a5.91 5.91 0 0 0 4.03-1.57 5.43 5.43 0 0 0 1.64-3.96 5.23 5.23 0 0 0-1.64-3.94c-.5-.5-1.1-.9-1.8-1.17a5.91 5.91 0 0 0-2.23-.42h-3.13v11.06Zm-.83.77V51.4h3.85c1 0 1.9.16 2.7.49a6.2 6.2 0 0 1 2.11 1.31 5.72 5.72 0 0 1 1.35 2c.31.77.47 1.6.47 2.5 0 .9-.16 1.73-.47 2.5a5.72 5.72 0 0 1-1.35 2c-.59.56-1.29 1-2.1 1.33-.81.31-1.71.47-2.7.47h-3.86ZM100.7 39 97.2 22.9h2.48l2.51 12.3 3.63-12.3h2.3l3.64 12.28 2.53-12.28h2.37L113.13 39h-2.48l-3.7-12.65L103.21 39h-2.51Zm18.65 0L126 22.9h2.85l6.58 16.1h-2.62l-1.87-4.72h-7.2L121.86 39h-2.5Zm5.18-6.72h5.63l-2.8-7.08-2.83 7.08ZM142.5 39l-6.57-16.1h2.6l5.45 13.7 5.54-13.7H152L145.34 39h-2.83Zm14.3 0V22.9h11.86v2.12h-9.45v4.83h6.2v2.04h-6.2v5h9.54V39H156.8Zm25.5 0V22.9h7.45c1.06 0 1.98.2 2.77.62a4.53 4.53 0 0 1 2.5 4.19c0 .95-.22 1.78-.66 2.5a4.66 4.66 0 0 1-1.87 1.7c-.78.4-1.7.6-2.74.6h-5.03V39h-2.42Zm2.42-8.53h4.78c.95 0 1.7-.25 2.26-.74.56-.5.85-1.17.85-2 0-.83-.29-1.49-.85-1.98s-1.3-.73-2.26-.73h-4.78v5.45ZM200.65 39V22.9h2.41v13.96h9.27V39h-11.68Zm22.98.25c-1.4 0-2.6-.29-3.63-.87a5.92 5.92 0 0 1-2.37-2.46 8.2 8.2 0 0 1-.83-3.8V22.9h2.42v9.22c0 1 .17 1.87.53 2.6a4.06 4.06 0 0 0 3.88 2.3c.92 0 1.71-.2 2.37-.6.66-.4 1.17-.96 1.52-1.7.37-.73.55-1.6.55-2.6V22.9h2.42v9.22c0 1.46-.29 2.72-.86 3.8a5.92 5.92 0 0 1-2.36 2.46 7.24 7.24 0 0 1-3.64.87ZM236.6 39V22.9h3.25l5.03 10.3 5.04-10.3h3.22V39h-2.28V25.84l-6 12.01-6-12V39h-2.26Zm22.95 0V22.9h6.96c1.06 0 1.98.18 2.76.53a4.2 4.2 0 0 1 1.82 1.5c.43.62.65 1.37.65 2.23 0 .78-.2 1.47-.6 2.07-.4.6-.96 1.07-1.68 1.42.9.32 1.6.81 2.11 1.47.53.65.79 1.4.79 2.28a4.3 4.3 0 0 1-2.63 4.05c-.82.37-1.8.55-2.92.55h-7.26Zm2.41-9.27h4.42c.9 0 1.62-.21 2.16-.64.53-.43.8-1.02.8-1.75 0-.74-.27-1.32-.8-1.75a3.36 3.36 0 0 0-2.16-.64h-4.42v4.78Zm0 7.22h4.67c1.01 0 1.8-.23 2.4-.71.59-.48.89-1.12.89-1.93 0-.8-.3-1.44-.9-1.91a3.6 3.6 0 0 0-2.4-.74h-4.66v5.3ZM278.11 39V22.9h2.41V39h-2.41Zm8.83 0V22.9h2.35l8.99 11.96V22.9h2.28V39h-2.12l-9.2-12.33V39h-2.3Zm27.77.25a8.5 8.5 0 0 1-5.98-2.41 8.22 8.22 0 0 1-2.44-5.89 8.07 8.07 0 0 1 2.41-5.86 8.35 8.35 0 0 1 5.97-2.44 9 9 0 0 1 3.6.73c1.14.5 2.1 1.18 2.88 2.05l-1.65 1.61a5.75 5.75 0 0 0-2.17-1.59 6.37 6.37 0 0 0-5-.11 5.85 5.85 0 0 0-3.57 5.61c0 .86.14 1.66.43 2.42a6 6 0 0 0 8.1 3.08 5.18 5.18 0 0 0 2.8-4h-5.35v-2.12h7.88v.83a8.4 8.4 0 0 1-.6 3.2 7.88 7.88 0 0 1-4.18 4.3c-.96.4-2 .6-3.13.6Z" fill="currentColor"/></svg>