<svg width="966" height="664" viewBox="0 0 966 664" fill="none" xmlns="http://www.w3.org/2000/svg">
<rect width="965.194" height="663.605" fill="url(#paint0_radial_849_3222)"/>
<path fill-rule="evenodd" clip-rule="evenodd" d="M279.129 389.2C279.927 389.024 280.743 388.771 281.552 388.549H266.547C269.168 390.116 272.56 390.652 279.129 389.2" fill="white"/>
<path fill-rule="evenodd" clip-rule="evenodd" d="M256.824 382.547H286.951C287.674 381.562 288.374 380.561 289.055 379.546H256.043C256.144 380.565 256.401 381.572 256.824 382.547" fill="white"/>
<path fill-rule="evenodd" clip-rule="evenodd" d="M236.537 379.546C236.725 379.758 236.896 379.984 237.088 380.192C237.883 381.051 238.684 381.839 239.455 382.547H242.454C242.442 382.444 242.424 382.35 242.416 382.244C242.356 381.485 242.375 380.57 242.539 379.546H236.537Z" fill="white"/>
<path fill-rule="evenodd" clip-rule="evenodd" d="M227.816 368.171C228.207 368.98 228.639 369.764 229.078 370.543H245.055C245.777 369.694 246.919 368.533 248.541 367.542H227.534C227.631 367.753 227.713 367.957 227.816 368.171" fill="white"/>
<path fill-rule="evenodd" clip-rule="evenodd" d="M261.568 368.038C261.518 369.118 260.403 369.274 260.036 369.325C259.708 369.37 259.302 369.428 258.863 369.608C258.36 369.814 257.924 370.141 257.544 370.543H293.575C294.088 369.553 294.582 368.553 295.057 367.542H261.485C261.559 367.738 261.574 367.915 261.568 368.038" fill="white"/>
<path fill-rule="evenodd" clip-rule="evenodd" d="M135.424 360.039H147.281C148.576 359.029 149.815 358.032 151.008 357.038H134.502C134.789 358.049 135.107 359.044 135.424 360.039" fill="white"/>
<path fill-rule="evenodd" clip-rule="evenodd" d="M226.628 360.039H298.609C298.935 359.044 299.263 358.049 299.558 357.038H226.033C226.196 357.993 226.395 359 226.628 360.039" fill="white"/>
<path fill-rule="evenodd" clip-rule="evenodd" d="M224.769 349.536H302.058C302.245 348.543 302.4 347.538 302.559 346.535H224.533C224.571 347.49 224.659 348.493 224.769 349.536" fill="white"/>
<path fill-rule="evenodd" clip-rule="evenodd" d="M130.503 349.536H158.872C159.497 348.857 160.117 348.17 160.73 347.461C160.994 347.156 161.251 346.844 161.512 346.535H130.001C130.161 347.538 130.316 348.543 130.503 349.536" fill="white"/>
<path fill-rule="evenodd" clip-rule="evenodd" d="M128.699 340.533H168.554C169.23 339.521 169.886 338.518 170.515 337.532H128.5C128.546 338.539 128.628 339.534 128.699 340.533" fill="white"/>
<path fill-rule="evenodd" clip-rule="evenodd" d="M252.327 339.678C251.465 339.76 250.799 339.528 250.357 338.98C249.988 338.522 249.888 338.023 249.912 337.532H225.639C225.244 338.447 224.868 339.441 224.533 340.533H302.364C302.433 339.534 302.514 338.539 302.559 337.532H256.841C255.231 338.786 253.586 339.556 252.327 339.678" fill="white"/>
<path fill-rule="evenodd" clip-rule="evenodd" d="M263.546 328.529H304.06C304.026 328.026 303.974 327.527 303.918 327.028H263.903C263.862 327.565 263.737 328.068 263.546 328.529" fill="white"/>
<path fill-rule="evenodd" clip-rule="evenodd" d="M236.981 327.028C235.727 327.512 234.556 328.032 233.536 328.529H251.542C251.527 328.509 251.516 328.49 251.501 328.471C251.021 327.882 250.389 327.412 249.712 327.028H236.981Z" fill="white"/>
<path fill-rule="evenodd" clip-rule="evenodd" d="M130.001 328.529H176.502C177.075 327.971 177.582 327.468 178.017 327.028H130.139C130.084 327.527 130.034 328.026 130.001 328.529" fill="white"/>
<path fill-rule="evenodd" clip-rule="evenodd" d="M261.101 318.025H302.559C302.431 317.523 302.295 317.023 302.147 316.525H259.044C259.716 316.979 260.428 317.47 261.101 318.025" fill="white"/>
<path fill-rule="evenodd" clip-rule="evenodd" d="M131.501 318.025H183.747C184.293 317.531 184.885 317.029 185.52 316.525H131.907C131.762 317.023 131.627 317.523 131.501 318.025" fill="white"/>
<path fill-rule="evenodd" clip-rule="evenodd" d="M133.002 307.522H194.771C196.147 306.945 197.566 306.444 199.024 306.021H133.683C133.448 306.519 133.219 307.018 133.002 307.522" fill="white"/>
<path fill-rule="evenodd" clip-rule="evenodd" d="M252.791 307.522H299.558C299.342 307.018 299.114 306.519 298.88 306.021H251.542C252.123 306.545 252.498 307.041 252.791 307.522" fill="white"/>
<path fill-rule="evenodd" clip-rule="evenodd" d="M225.585 295.518H295.057C294.757 295.017 294.471 294.511 294.155 294.017H138.405C138.09 294.511 137.803 295.017 137.504 295.518H210.842C212.155 295.036 213.721 294.589 215.578 294.362C219.07 293.934 222.199 294.222 224.879 295.218C225.137 295.314 225.355 295.417 225.585 295.518" fill="white"/>
<path fill-rule="evenodd" clip-rule="evenodd" d="M289.358 285.014H144.702C144.292 285.508 143.9 286.012 143.505 286.515H290.555C290.16 286.012 289.768 285.508 289.358 285.014" fill="white"/>
<path fill-rule="evenodd" clip-rule="evenodd" d="M280.035 274.511H152.526C152.009 275.002 151.511 275.508 151.008 276.011H281.552C281.05 275.508 280.552 275.002 280.035 274.511" fill="white"/>
<path fill-rule="evenodd" clip-rule="evenodd" d="M269.017 262.507H163.544C162.857 262.996 162.182 263.499 161.512 264.007H271.049C270.378 263.499 269.703 262.996 269.017 262.507" fill="white"/>
<path fill-rule="evenodd" clip-rule="evenodd" d="M251.344 252.003H182.717C181.641 252.485 180.571 252.979 179.518 253.504H254.543C253.49 252.979 252.42 252.485 251.344 252.003" fill="white"/>
<path fill-rule="evenodd" clip-rule="evenodd" d="M202.433 348.166C202.422 348.211 202.414 348.254 202.403 348.299C199.933 346.718 197.365 346.464 195.99 346.468C196.513 345.123 197.273 343.359 198.006 342.543C198.876 341.573 200.496 339.769 202.804 339.451C203.622 339.335 204.12 339.467 204.652 339.604C204.807 339.645 204.971 339.684 205.138 339.72C204.209 342.128 203.04 345.796 202.433 348.166M202.492 368.736C200.943 368.227 199.125 368.016 197.071 368.082C196.914 366.641 196.917 365.187 197.094 363.756C197.391 361.346 197.698 358.854 199.305 357.845C199.964 357.432 200.708 357.333 201.3 357.318C201.305 361.903 202.119 365.617 202.615 367.872C202.63 367.924 202.729 368.262 202.929 368.892C202.782 368.838 202.635 368.783 202.492 368.736M209.49 386.874C209.524 386.961 209.557 387.047 209.592 387.134C208.086 387.892 207.12 388.548 206.332 389.102C206.237 388.953 206.131 388.781 206.016 388.593C204.675 386.408 202.062 381.824 200.803 379.114C201.77 378.5 202.845 377.974 204.051 377.564C204.692 377.345 205.267 377.202 205.781 377.098C206.736 379.707 207.962 382.956 209.49 386.874M204.312 390.355C203.866 390.562 203.356 390.747 202.694 390.921C201.169 391.321 198.863 391.925 197.319 390.768C196.428 390.101 195.89 388.975 195.719 387.419C195.427 384.791 197.084 382.699 197.88 381.693C198.191 381.3 198.545 380.937 198.913 380.586C200.352 383.574 202.956 388.11 204.219 390.138C204.262 390.209 204.304 390.275 204.345 390.34C204.334 390.345 204.323 390.35 204.312 390.355M281.097 389.005C280.311 389.115 279.518 389.241 278.742 389.328C272.361 390.049 269.066 389.783 266.52 389.005C266.06 388.864 265.621 388.709 265.196 388.538C261.546 387.069 259.757 385.042 259.156 384.238C258.513 383.379 257.999 382.475 257.616 381.545C257.198 380.533 256.945 379.487 256.846 378.428C256.798 377.909 256.778 377.387 256.809 376.864C256.9 375.296 257.473 372.436 258.95 370.83C259.317 370.431 259.737 370.107 260.223 369.902C260.646 369.723 261.038 369.666 261.354 369.621C261.708 369.571 262.785 369.415 262.833 368.343C262.838 368.222 262.824 368.046 262.753 367.851C262.677 367.644 262.536 367.417 262.273 367.207C261.164 366.329 256.972 365.302 252.913 366.468C251.722 366.811 250.705 367.306 249.816 367.851C248.214 368.835 247.085 369.987 246.372 370.83C246.135 371.109 245.928 371.365 245.78 371.553C243.771 374.108 242.892 376.469 242.566 378.428C242.389 379.492 242.368 380.442 242.433 381.229C242.442 381.34 242.462 381.437 242.474 381.545C242.617 382.813 242.948 383.843 243.272 384.637C242.247 384.007 240.805 382.928 239.244 381.545C238.413 380.809 237.55 379.991 236.694 379.099C236.487 378.883 236.302 378.648 236.1 378.428C233.976 376.115 232.126 373.574 230.583 370.83C230.148 370.057 229.721 369.279 229.335 368.476C229.233 368.263 229.152 368.061 229.056 367.851C227.768 365.051 226.954 362.47 226.397 360.115C226.165 359.131 225.966 358.178 225.803 357.275C225.611 356.205 225.455 355.191 225.308 354.236C225.032 352.433 224.797 350.861 224.627 349.399C224.518 348.46 224.43 347.557 224.393 346.696C224.295 344.476 224.471 342.436 225.107 340.164C225.251 339.647 225.418 339.161 225.588 338.683C225.921 337.751 226.293 336.902 226.685 336.121C228.03 333.435 229.561 331.638 230.197 330.905C230.751 330.263 231.89 329.163 233.353 327.967C234.335 327.165 235.461 326.325 236.668 325.543C238.841 324.135 241.258 322.933 243.493 322.577C243.532 322.571 243.563 322.547 243.601 322.537C244.28 322.761 244.965 323.023 245.652 323.375C246.534 323.827 247.791 324.475 248.915 325.543C249.567 326.163 250.175 326.923 250.636 327.873C250.651 327.905 250.661 327.936 250.676 327.967C251.638 330.017 251.576 332.089 251.552 332.488C251.485 333.611 251.227 334.359 251.02 334.962C250.898 335.317 250.762 335.716 250.739 336.121C250.715 336.54 250.814 336.966 251.18 337.357C251.618 337.825 252.279 338.023 253.132 337.953C254.38 337.849 256.011 337.191 257.606 336.121C259.081 335.131 260.525 333.79 261.603 332.175C262.1 331.428 262.948 329.929 263.438 327.967C263.624 327.223 263.746 326.411 263.787 325.543C263.822 324.789 263.809 324.007 263.679 323.18C263.293 320.731 262.201 318.829 260.963 317.253C260.299 316.407 259.596 315.659 258.934 314.966C258.864 314.892 258.79 314.814 258.72 314.741C257.817 313.798 257.294 313.419 256.875 313.116C256.493 312.84 256.216 312.641 255.657 312.002C254.267 310.419 253.837 309.192 253.383 307.893C253.227 307.448 253.068 306.997 252.873 306.538C252.581 305.849 252.208 305.139 251.63 304.389C251.492 304.21 251.342 304.028 251.179 303.844C248.999 301.387 246.264 300.54 244.628 300.034C241.062 298.932 237.856 299.255 235.738 299.469C234.362 299.606 233.629 299.784 233.143 299.901C232.663 300.016 232.513 300.05 232.041 299.992C230.602 299.812 229.905 299.145 228.849 298.134C228.113 297.43 227.197 296.586 225.892 295.822C225.662 295.687 225.444 295.549 225.186 295.42C222.505 294.087 219.373 293.702 215.879 294.274C214.021 294.578 212.453 295.177 211.141 295.822C210.051 296.357 209.134 296.923 208.397 297.384C207.304 298.066 205.407 300.015 203.395 302.121C202.914 302.626 202.519 303.04 202.264 303.291C201.224 303.603 200.201 303.969 199.196 304.389C197.751 304.994 196.345 305.712 194.981 306.538C193.887 307.2 192.817 307.925 191.781 308.727C189.19 310.736 187.104 312.867 185.37 314.966C184.735 315.735 184.142 316.5 183.596 317.253C181.998 319.454 180.749 321.554 179.674 323.36L179.104 324.317C178.89 324.675 178.634 325.096 178.359 325.543C177.924 326.253 177.415 327.066 176.84 327.967C175.375 330.26 173.486 333.09 171.276 336.121C170.661 336.963 170.021 337.82 169.36 338.683C167.31 341.366 165.051 344.109 162.654 346.696C162.397 346.975 162.142 347.256 161.882 347.53C161.275 348.169 160.661 348.788 160.042 349.399C157.215 352.194 154.245 354.733 150.936 357.275C149.711 358.216 148.437 359.159 147.108 360.115C144.214 362.195 141.048 364.345 137.504 366.697C137.823 367.424 138.141 368.152 138.479 368.869C149.048 361.857 156.724 356.359 163.568 349.161C171.806 340.497 178.575 329.753 181.103 325.536L181.679 324.571C184.155 320.403 187.239 315.217 193.205 310.595C196.206 308.271 199.481 306.579 202.951 305.542C203.289 305.442 203.627 305.339 203.969 305.251C204.15 305.204 204.337 305.158 204.52 305.11C206.158 304.692 207.899 304.301 209.684 304.285C210.184 304.28 210.686 304.304 211.191 304.369C211.778 304.444 212.366 304.576 212.955 304.768C213.311 304.885 213.668 305.01 214.024 305.177C214.936 305.605 216.463 306.517 217.736 308.143C218.062 308.559 218.376 309.011 218.653 309.528C218.981 310.138 220.561 313.365 219.428 316.935C218.795 318.932 218.032 319.872 217.847 319.951C217.652 319.834 217.292 319.127 217.053 318.66C216.462 317.5 215.652 315.91 214.034 315.04C211.735 313.805 208.274 314.573 203.761 317.327C203.123 317.717 202.519 318.12 201.931 318.53C201.572 318.781 201.223 319.034 200.882 319.29C195.956 323.001 192.812 327.363 189.996 331.285L189.826 331.521C189.769 331.601 184.043 339.569 178.138 347.464C172.674 354.77 166.027 361.586 158.383 367.72C157.879 368.125 157.796 368.866 158.197 369.375C158.596 369.883 159.33 369.968 159.839 369.563C167.636 363.305 174.42 356.347 180.004 348.88C182.503 345.539 184.964 342.192 186.985 339.426C187.399 338.859 187.796 338.315 188.169 337.802C190.286 334.894 191.689 332.942 191.717 332.903L191.887 332.666C192.576 331.707 193.277 330.742 193.998 329.78C194.717 328.823 195.467 327.871 196.263 326.93C197.737 325.189 199.394 323.497 201.356 321.911C201.695 321.637 202.037 321.364 202.396 321.097C203.204 320.494 204.049 319.904 204.97 319.342C208.626 317.111 211.457 316.328 212.936 317.118C213.908 317.641 214.45 318.706 214.976 319.737C215.585 320.933 216.275 322.287 217.77 322.287H217.8C219.778 322.265 220.987 319.755 221.653 317.653C222.468 315.086 222.171 312.677 221.693 310.943C221.47 310.13 221.21 309.472 221.001 309.01C220.878 308.736 220.772 308.526 220.707 308.405C219.027 305.278 216.417 303.703 215.012 303.043C212.046 301.648 209.146 301.754 206.542 302.236C207.714 301.035 208.984 299.788 209.628 299.386C211.184 298.413 213.314 297.08 216.253 296.598C219.257 296.108 221.916 296.42 224.153 297.533C225.554 298.229 226.411 299.05 227.241 299.843C228.378 300.93 229.553 302.055 231.752 302.329C232.651 302.439 233.105 302.331 233.686 302.192C234.135 302.084 234.751 301.935 235.971 301.812C237.902 301.618 240.824 301.322 243.944 302.286C245.436 302.748 247.691 303.446 249.437 305.414C250.429 306.533 250.777 307.527 251.179 308.675C251.665 310.064 252.216 311.636 253.908 313.564C254.641 314.399 255.085 314.72 255.514 315.03C255.891 315.304 256.282 315.587 257.042 316.379C258.838 318.254 260.873 320.38 261.372 323.55C261.934 327.111 260.207 330.046 259.664 330.861C257.76 333.714 254.701 335.277 253.284 335.571C253.507 334.913 253.804 333.962 253.883 332.631C253.927 331.915 253.97 329.383 252.735 326.838C251.134 323.541 248.257 322.068 246.707 321.274C246.41 321.122 246.114 321.008 245.817 320.878C245.563 320.767 245.31 320.637 245.058 320.541C243.494 319.943 241.969 319.633 240.566 319.486C238.491 319.268 236.693 319.414 235.504 319.6C235.31 319.63 235.109 319.681 234.912 319.718C230.73 320.503 226.127 322.768 223.022 325.617L222.848 325.779C222.244 326.34 221.333 327.189 219.889 327.842C218.899 328.29 218.31 328.358 217.628 328.437C216.955 328.514 216.191 328.601 215.114 329.038C213.565 329.668 212.368 330.614 211.347 331.637C211.028 331.956 210.727 332.281 210.438 332.607C210.112 332.977 209.798 333.347 209.495 333.707C209.168 334.098 208.901 334.448 208.661 334.775C208.292 335.278 208.003 335.715 207.776 336.064C207.671 336.225 207.59 336.345 207.508 336.466C207.148 336.997 206.95 337.2 206.541 337.354C206.056 337.536 205.798 337.467 205.231 337.323C204.609 337.163 203.758 336.948 202.487 337.117C199.336 337.552 197.268 339.855 196.274 340.964C195.093 342.277 194.107 344.804 193.51 346.411C193.463 346.535 193.416 346.662 193.375 346.775C193.027 346.856 192.697 346.949 192.386 347.051C190.871 347.548 189.805 348.232 189.284 348.566C186.719 350.216 185.382 352.31 184.308 353.993L184.118 354.291C184.085 354.342 183.221 355.635 176.599 364.279C173.778 367.959 171.096 370.265 165.753 374.858C159.21 380.482 153.442 384.315 149.698 386.693C150.197 387.307 150.717 387.902 151.233 388.502C155.036 386.076 160.77 382.236 167.268 376.65C172.734 371.951 175.478 369.592 178.447 365.719C185.255 356.834 186.044 355.625 186.075 355.577L186.273 355.268C187.322 353.623 188.406 351.923 190.54 350.553C191.227 350.111 193.05 348.939 195.64 348.828C196.714 348.78 199.513 348.882 201.914 350.824C203.825 352.372 204.852 354.51 205.195 355.785C204.492 355.445 203.501 355.056 202.2 354.977C201.515 354.935 199.702 354.823 198.07 355.846C195.518 357.447 195.124 360.645 194.776 363.466C194.579 365.055 194.573 366.666 194.744 368.266C193.89 368.371 193.009 368.512 192.087 368.702C186.455 369.863 182.458 372.05 180.75 372.984C175.665 375.769 172.793 377.747 169.751 379.842C168.619 380.622 167.445 381.426 166.142 382.284C165.417 382.762 164.664 383.252 163.829 383.775C159.667 386.381 155.802 388.441 152.538 390.021C153.087 390.631 153.66 391.218 154.226 391.813C157.41 390.247 161.106 388.253 165.061 385.776C167.443 384.284 169.286 383.014 171.07 381.786C174.06 379.726 176.884 377.782 181.865 375.054C182.09 374.931 182.366 374.781 182.673 374.618C183.597 374.127 184.896 373.485 186.5 372.843C188.193 372.165 190.216 371.492 192.555 371.009C193.215 370.873 193.947 370.744 194.717 370.642C195.53 370.533 196.386 370.459 197.25 370.435C198.805 370.392 200.382 370.521 201.766 370.975C202.551 371.234 203.272 371.553 203.928 371.894C204.218 372.736 204.565 373.727 204.974 374.869C204.465 374.983 203.917 375.124 203.305 375.332C201.939 375.796 200.718 376.399 199.607 377.099C198.744 377.642 197.958 378.251 197.255 378.932C196.831 379.342 196.419 379.763 196.054 380.223C195.14 381.379 192.997 384.085 193.397 387.68C193.703 390.458 194.941 391.921 195.926 392.658C198.368 394.488 201.445 393.682 203.283 393.2C205.363 392.654 206.363 391.951 207.521 391.137C208.464 390.473 209.536 389.72 211.559 388.797C215.715 386.898 217.725 387.087 219.008 387.466C220.211 387.82 220.42 388.124 220.455 388.239C220.489 388.353 220.216 388.777 220.036 389.058C219.658 389.645 219.189 390.376 219.041 391.365C218.77 393.19 219.671 395.003 221.964 397.243C226.373 401.549 232.332 403.936 235.492 404.975C241.306 406.891 244.815 408.048 250.991 409.011C252.381 409.227 253.737 409.406 255.059 409.556C256.331 408.916 257.585 408.244 258.821 407.543C256.458 407.363 253.965 407.091 251.347 406.683C245.36 405.75 242.112 404.68 236.217 402.738C233.249 401.76 227.66 399.528 223.59 395.552C221.94 393.94 221.207 392.684 221.352 391.713C221.424 391.229 221.701 390.797 221.996 390.34C222.461 389.617 223.04 388.717 222.69 387.557C222.21 385.955 220.36 385.41 219.663 385.205C217.749 384.643 215.647 384.785 213.056 385.666C212.626 385.812 212.183 385.98 211.724 386.167C211.681 386.055 211.638 385.944 211.595 385.833C211.449 385.459 211.295 385.068 211.155 384.706C209.944 381.581 208.952 378.941 208.135 376.716C208.252 376.69 208.367 376.66 208.478 376.625C209.064 376.441 209.554 376.115 209.777 375.426C210.304 373.803 208.536 371.95 206.278 370.535C206.135 370.446 205.993 370.355 205.847 370.27C205.156 368.232 204.878 367.289 204.877 367.289C204.428 365.244 203.69 361.852 203.644 357.676C203.857 357.758 204.053 357.846 204.235 357.935C204.376 358.005 204.515 358.076 204.642 358.143C205.281 358.481 206.156 358.943 206.979 358.292C207.285 358.051 207.651 357.568 207.657 356.644C207.667 355.014 206.575 352.405 204.741 350.325C204.633 350.203 204.53 350.076 204.416 349.957C204.503 349.559 204.591 349.159 204.694 348.755C205.465 345.749 206.985 341.192 207.815 339.357C208.099 339.21 208.337 339.042 208.548 338.856C209.009 338.449 209.339 337.954 209.709 337.386C209.715 337.376 209.722 337.366 209.728 337.356C210.09 336.801 210.539 336.11 211.282 335.224C211.346 335.148 211.411 335.071 211.476 334.994C211.733 334.689 211.992 334.383 212.261 334.083C212.496 333.819 212.74 333.563 212.991 333.312C213.32 332.982 213.665 332.668 214.034 332.378C214.617 331.919 215.257 331.52 215.988 331.223C216.558 330.99 216.988 330.897 217.413 330.836C217.156 331.405 216.82 332.165 216.452 333.045C216.307 333.394 216.156 333.762 216.004 334.143C215.872 334.471 215.74 334.807 215.608 335.153C215.111 336.455 214.623 337.852 214.253 339.18C212.88 344.108 212.27 349.513 212.49 354.813C212.84 363.259 215.2 369.567 216.2 371.887C218.402 376.997 221.493 381.611 225.386 385.601C231.953 392.328 238.801 395.121 243.332 396.969C247.004 398.465 252.935 400.416 260.337 401.211C262.919 401.49 265.329 401.586 267.495 401.586C267.654 401.586 267.806 401.583 267.962 401.583C269.019 400.793 270.054 399.977 271.072 399.141C268.185 399.277 264.597 399.3 260.585 398.87C253.45 398.103 247.741 396.225 244.208 394.786C239.856 393.011 233.279 390.327 227.051 383.949C223.36 380.167 220.43 375.792 218.342 370.948C217.396 368.749 215.158 362.766 214.824 354.714C214.614 349.66 215.195 344.508 216.503 339.817C216.949 338.216 217.613 336.406 218.274 334.769C218.426 334.393 218.577 334.025 218.726 333.672C219.209 332.528 219.662 331.528 219.995 330.83C220.079 330.654 220.101 330.471 220.096 330.289C220.333 330.204 220.574 330.113 220.846 329.99C222.637 329.179 223.762 328.134 224.432 327.509L224.595 327.358C227.484 324.708 232.011 322.525 235.86 321.927C236.064 321.895 236.301 321.866 236.544 321.838C237.058 321.779 237.655 321.742 238.311 321.733C238.431 321.732 238.545 321.727 238.669 321.728C238.56 321.779 238.453 321.833 238.346 321.886C238.215 321.951 238.086 322.02 237.956 322.087C236.356 322.913 234.817 323.912 233.444 324.928C231.108 326.656 229.255 328.409 228.435 329.356C228.035 329.819 227.305 330.675 226.478 331.869C225.762 332.903 224.975 334.189 224.257 335.739C223.733 336.871 223.246 338.133 222.857 339.525C221.456 344.54 222.037 348.325 222.999 354.597C223.612 358.588 224.374 363.556 227.232 369.501C229.228 373.654 231.846 377.435 235.015 380.736C235.867 381.622 243.398 389.339 245.754 387.213C246.637 386.417 246.153 385.352 245.765 384.497C245.394 383.682 244.888 382.565 244.761 381.034C244.613 379.219 244.986 376.355 247.611 373.016C248.392 372.021 250.224 369.69 253.554 368.733C255.248 368.245 256.886 368.23 258.177 368.38C255.723 370.179 254.643 373.851 254.477 376.726C254.296 379.82 255.297 382.991 257.291 385.656C258.009 386.617 260.131 389.036 264.329 390.725C266.365 391.544 268.681 392.096 272.409 392.096C274.227 392.096 276.382 391.965 279.003 391.67C279.03 391.667 279.057 391.661 279.084 391.658C279.926 390.77 280.749 389.866 281.552 388.942C281.4 388.964 281.249 388.984 281.097 389.005" fill="white"/>
<mask id="mask0_849_3222" style="mask-type:luminance" maskUnits="userSpaceOnUse" x="127" y="243" width="179" height="179">
<path fill-rule="evenodd" clip-rule="evenodd" d="M127 243H305.56V421.56H127V243Z" fill="white"/>
</mask>
<g mask="url(#mask0_849_3222)">
<path fill-rule="evenodd" clip-rule="evenodd" d="M253.86 253.901C259.129 256.438 264.098 259.498 268.715 263.001C269.398 263.518 270.068 264.052 270.735 264.589C274.143 267.337 277.346 270.327 280.304 273.549C280.824 274.115 281.324 274.697 281.828 275.277C284.261 278.071 286.529 281.01 288.594 284.1C289.004 284.713 289.396 285.34 289.791 285.965C291.559 288.76 293.19 291.651 294.636 294.649C294.954 295.308 295.242 295.984 295.543 296.653C296.796 299.428 297.909 302.278 298.869 305.199C299.103 305.909 299.331 306.623 299.547 307.341C300.372 310.089 301.063 312.894 301.614 315.748C301.761 316.505 301.896 317.265 302.022 318.028C302.473 320.745 302.791 323.503 302.982 326.298C303.037 327.101 303.088 327.906 303.12 328.716C303.168 329.9 303.211 331.085 303.211 332.281C303.211 333.813 303.169 335.335 303.09 336.848C303.045 337.706 302.964 338.554 302.895 339.404C302.674 342.105 302.331 344.77 301.868 347.397C301.709 348.298 301.555 349.201 301.369 350.092C300.812 352.757 300.136 355.378 299.34 357.947C299.045 358.902 298.715 359.841 298.388 360.781C297.472 363.413 296.433 365.986 295.277 368.497C294.816 369.498 294.337 370.488 293.839 371.468C292.518 374.073 291.07 376.601 289.502 379.047C288.828 380.098 288.133 381.135 287.416 382.155C285.612 384.72 283.675 387.182 281.612 389.534C280.804 390.455 279.976 391.357 279.13 392.243C276.601 394.892 273.917 397.391 271.074 399.706C270.049 400.54 269.008 401.354 267.946 402.141C265.019 404.312 261.946 406.291 258.754 408.087C257.511 408.786 256.25 409.455 254.971 410.094C243.31 415.916 230.175 419.211 216.28 419.211C191.657 419.211 169.409 408.904 153.577 392.397C153.008 391.804 152.432 391.218 151.88 390.609C151.579 390.277 151.295 389.928 150.998 389.591C150.853 389.427 150.711 389.26 150.567 389.094C150.049 388.496 149.526 387.902 149.024 387.29C144.583 381.869 140.785 375.904 137.743 369.512C137.403 368.797 137.083 368.071 136.762 367.346C135.812 365.201 134.949 363.012 134.172 360.781C133.845 359.841 133.515 358.902 133.22 357.947C132.424 355.378 131.748 352.757 131.191 350.092C131.005 349.201 130.851 348.298 130.692 347.397C130.229 344.77 129.885 342.105 129.665 339.404C129.596 338.554 129.515 337.706 129.47 336.848C129.392 335.335 129.349 333.813 129.349 332.281C129.349 331.085 129.392 329.9 129.439 328.716C129.473 327.906 129.523 327.101 129.578 326.298C129.769 323.503 130.087 320.745 130.537 318.028C130.664 317.265 130.799 316.505 130.946 315.748C131.498 312.894 132.188 310.089 133.013 307.341C133.228 306.623 133.457 305.909 133.691 305.199C134.651 302.278 135.764 299.428 137.017 296.653C137.318 295.984 137.606 295.308 137.924 294.649C139.37 291.651 141.001 288.76 142.769 285.965C143.164 285.34 143.556 284.713 143.966 284.1C146.031 281.01 148.299 278.071 150.732 275.277C151.236 274.697 151.737 274.115 152.256 273.549C155.214 270.327 158.416 267.337 161.825 264.589C162.491 264.052 163.162 263.518 163.845 263.001C168.461 259.498 173.43 256.438 178.699 253.901C179.754 253.394 180.826 252.916 181.904 252.45C192.454 247.889 204.074 245.349 216.28 245.349C228.485 245.349 240.106 247.889 250.656 252.45C251.734 252.916 252.806 253.394 253.86 253.901M216.28 243C167.051 243 127 283.051 127 332.281C127 381.509 167.051 421.56 216.28 421.56C265.509 421.56 305.56 381.509 305.56 332.281C305.56 283.051 265.509 243 216.28 243" fill="white"/>
</g>
<path d="M819.428 332.124C816.655 332.124 814.062 331.62 811.649 330.612C809.272 329.603 807.184 328.217 805.383 326.452C803.583 324.652 802.178 322.581 801.17 320.24C800.161 317.863 799.657 315.324 799.657 312.623C799.657 309.923 800.143 307.402 801.116 305.061C802.124 302.684 803.529 300.613 805.329 298.849C807.13 297.048 809.218 295.644 811.595 294.635C813.972 293.627 816.547 293.123 819.32 293.123C822.309 293.123 825.136 293.699 827.801 294.852C830.466 296.004 832.716 297.606 834.553 299.659L830.664 303.44C829.295 301.82 827.603 300.577 825.586 299.713C823.605 298.813 821.517 298.363 819.32 298.363C817.339 298.363 815.503 298.723 813.81 299.443C812.153 300.163 810.695 301.172 809.435 302.468C808.174 303.728 807.184 305.223 806.463 306.952C805.779 308.68 805.437 310.571 805.437 312.623C805.437 314.64 805.779 316.531 806.463 318.295C807.184 320.024 808.174 321.536 809.435 322.833C810.731 324.129 812.225 325.138 813.918 325.858C815.611 326.578 817.447 326.938 819.428 326.938C821.661 326.938 823.677 326.47 825.478 325.534C827.315 324.598 828.809 323.319 829.961 321.699C831.114 320.042 831.816 318.187 832.068 316.135H819.482V311.165H838.01V313.11C838.01 315.811 837.542 318.313 836.606 320.618C835.669 322.923 834.355 324.94 832.662 326.668C831.006 328.397 829.043 329.747 826.774 330.72C824.506 331.656 822.057 332.124 819.428 332.124Z" fill="#FFF3F0"/>
<path d="M756.858 331.53V293.717H762.368L783.489 321.807V293.717H788.837V331.53H783.867L762.26 302.576V331.53H756.858Z" fill="#FFF3F0"/>
<path d="M738.762 331.53V293.717H744.434V331.53H738.762Z" fill="#FFF3F0"/>
<path d="M697.823 331.53V293.717H714.191C716.676 293.717 718.836 294.131 720.673 294.96C722.51 295.788 723.932 296.958 724.94 298.471C725.949 299.947 726.453 301.694 726.453 303.711C726.453 305.547 725.985 307.168 725.048 308.572C724.112 309.977 722.798 311.093 721.105 311.921C723.23 312.678 724.886 313.83 726.075 315.378C727.299 316.891 727.911 318.674 727.911 320.726C727.911 322.923 727.371 324.832 726.291 326.452C725.21 328.073 723.698 329.333 721.753 330.233C719.809 331.098 717.522 331.53 714.893 331.53H697.823ZM703.495 309.761H713.867C715.991 309.761 717.684 309.256 718.944 308.248C720.205 307.24 720.835 305.871 720.835 304.143C720.835 302.414 720.205 301.046 718.944 300.037C717.684 299.029 715.991 298.525 713.867 298.525H703.495V309.761ZM703.495 326.722H714.461C716.838 326.722 718.71 326.164 720.079 325.048C721.483 323.931 722.185 322.419 722.185 320.51C722.185 318.638 721.483 317.143 720.079 316.027C718.71 314.874 716.838 314.298 714.461 314.298H703.495V326.722Z" fill="#FFF3F0"/>
<path d="M646.599 331.53V293.717H654.216L666.046 317.917L677.876 293.717H685.438V331.53H680.09V300.631L665.992 328.829L651.893 300.631V331.53H646.599Z" fill="#FFF3F0"/>
<path d="M618.788 332.124C615.511 332.124 612.666 331.44 610.253 330.071C607.84 328.703 605.986 326.776 604.689 324.291C603.393 321.771 602.745 318.8 602.745 315.378V293.717H608.417V315.378C608.417 317.719 608.831 319.754 609.659 321.483C610.523 323.211 611.73 324.544 613.278 325.48C614.863 326.416 616.699 326.884 618.788 326.884C620.949 326.884 622.803 326.416 624.352 325.48C625.9 324.544 627.089 323.211 627.917 321.483C628.781 319.754 629.214 317.719 629.214 315.378V293.717H634.885V315.378C634.885 318.8 634.219 321.771 632.887 324.291C631.59 326.776 629.736 328.703 627.323 330.071C624.91 331.44 622.065 332.124 618.788 332.124Z" fill="#FFF3F0"/>
<path d="M567.466 331.53V293.717H573.138V326.506H594.908V331.53H567.466Z" fill="#FFF3F0"/>
<path d="M527.056 331.53V293.717H544.558C547.042 293.717 549.203 294.203 551.04 295.176C552.876 296.112 554.317 297.426 555.361 299.119C556.406 300.812 556.928 302.774 556.928 305.007C556.928 307.24 556.406 309.202 555.361 310.895C554.317 312.588 552.858 313.92 550.986 314.892C549.149 315.829 547.006 316.297 544.558 316.297H532.728V331.53H527.056ZM532.728 311.489H543.963C546.196 311.489 547.961 310.913 549.257 309.761C550.59 308.572 551.256 307.006 551.256 305.061C551.256 303.116 550.59 301.568 549.257 300.415C547.961 299.263 546.196 298.687 543.963 298.687H532.728V311.489Z" fill="#FFF3F0"/>
<path d="M472.453 331.53V293.717H500.326V298.687H478.125V310.031H492.709V314.838H478.125V326.56H500.542V331.53H472.453Z" fill="#FFF3F0"/>
<path d="M441.547 331.53L426.098 293.717H432.202L445.005 325.912L458.023 293.717H463.857L448.192 331.53H441.547Z" fill="#FFF3F0"/>
<path d="M389.802 331.53L405.414 293.717H412.112L427.561 331.53H421.403L417.027 320.456H400.12L395.69 331.53H389.802ZM401.956 315.757H415.191L408.601 299.119L401.956 315.757Z" fill="#FFF3F0"/>
<path d="M348.674 331.53L340.409 293.717H346.243L352.131 322.617L360.666 293.717H366.068L374.603 322.563L380.545 293.717H386.109L377.844 331.53H372.01L363.313 301.82L354.562 331.53H348.674Z" fill="#FFF3F0"/>
<path d="M649.308 372.124H655.052C656.526 372.124 657.89 371.871 659.145 371.365C660.421 370.859 661.522 370.154 662.446 369.252C663.392 368.328 664.13 367.249 664.658 366.017C665.186 364.785 665.45 363.442 665.45 361.99C665.45 360.537 665.186 359.195 664.658 357.962C664.13 356.73 663.392 355.663 662.446 354.76C661.522 353.836 660.421 353.121 659.145 352.615C657.89 352.108 656.526 351.855 655.052 351.855H649.308V372.124ZM647.789 373.544V350.436H654.853C656.68 350.436 658.331 350.733 659.805 351.327C661.302 351.899 662.589 352.703 663.667 353.737C664.746 354.771 665.571 355.993 666.143 357.401C666.715 358.81 667.002 360.339 667.002 361.99C667.002 363.64 666.715 365.17 666.143 366.578C665.571 367.987 664.746 369.208 663.667 370.242C662.589 371.277 661.302 372.091 659.805 372.685C658.331 373.257 656.68 373.544 654.853 373.544H647.789Z" fill="#FFF3F0"/>
<path d="M631.529 373.544V351.855H622.946V350.436H641.63V351.855H633.047V373.544H631.529Z" fill="#FFF3F0"/>
<path d="M608.972 373.544V350.436H610.491V372.124H624.751V373.544H608.972Z" fill="#FFF3F0"/>
<path d="M583.767 373.907C581.918 373.907 580.19 373.533 578.584 372.784C576.977 372.014 575.569 370.914 574.358 369.483L575.547 368.493C576.647 369.791 577.891 370.782 579.277 371.464C580.686 372.146 582.182 372.487 583.767 372.487C585.087 372.487 586.264 372.256 587.299 371.794C588.333 371.332 589.147 370.705 589.742 369.912C590.336 369.098 590.633 368.185 590.633 367.173C590.633 365.83 590.171 364.807 589.246 364.102C588.344 363.376 586.815 362.837 584.658 362.485L581.852 362.023C579.541 361.649 577.847 360.999 576.768 360.075C575.69 359.151 575.151 357.885 575.151 356.279C575.151 355.046 575.47 353.968 576.108 353.044C576.768 352.119 577.682 351.393 578.848 350.865C580.014 350.337 581.346 350.073 582.842 350.073C584.361 350.073 585.879 350.337 587.398 350.865C588.916 351.371 590.358 352.13 591.722 353.143L590.798 354.397C588.201 352.461 585.549 351.492 582.842 351.492C581.654 351.492 580.597 351.69 579.673 352.086C578.749 352.483 578.023 353.044 577.494 353.77C576.966 354.474 576.702 355.289 576.702 356.213C576.702 357.423 577.109 358.37 577.924 359.052C578.738 359.712 580.102 360.196 582.017 360.504L584.823 360.966C587.442 361.385 589.323 362.089 590.468 363.079C591.612 364.047 592.184 365.445 592.184 367.272C592.184 368.548 591.821 369.692 591.095 370.705C590.369 371.695 589.367 372.476 588.091 373.048C586.837 373.621 585.395 373.907 583.767 373.907Z" fill="#FFF3F0"/>
<path d="M546.298 373.544V350.436H548.675L557.291 368.625L565.874 350.436H568.251V373.544H566.732V351.888L557.291 371.893L547.817 351.954V373.544H546.298Z" fill="#FFF3F0"/>
<path d="M527.364 373.907C525.736 373.907 524.206 373.61 522.776 373.015C521.367 372.399 520.124 371.552 519.045 370.474C517.967 369.373 517.12 368.108 516.504 366.677C515.909 365.225 515.612 363.662 515.612 361.99C515.612 360.317 515.909 358.766 516.504 357.335C517.12 355.883 517.967 354.617 519.045 353.539C520.124 352.439 521.367 351.591 522.776 350.997C524.206 350.381 525.736 350.073 527.364 350.073C528.993 350.073 530.511 350.381 531.92 350.997C533.35 351.591 534.605 352.439 535.683 353.539C536.761 354.617 537.598 355.883 538.192 357.335C538.808 358.766 539.116 360.317 539.116 361.99C539.116 363.662 538.808 365.225 538.192 366.677C537.598 368.108 536.761 369.373 535.683 370.474C534.605 371.552 533.35 372.399 531.92 373.015C530.511 373.61 528.993 373.907 527.364 373.907ZM527.364 372.487C528.795 372.487 530.126 372.223 531.359 371.695C532.613 371.145 533.702 370.397 534.627 369.45C535.551 368.504 536.266 367.393 536.772 366.116C537.301 364.84 537.565 363.464 537.565 361.99C537.565 360.515 537.301 359.14 536.772 357.863C536.266 356.587 535.551 355.476 534.627 354.529C533.702 353.583 532.613 352.846 531.359 352.318C530.126 351.767 528.795 351.492 527.364 351.492C525.934 351.492 524.591 351.767 523.337 352.318C522.104 352.846 521.026 353.583 520.102 354.529C519.178 355.476 518.451 356.587 517.923 357.863C517.417 359.14 517.164 360.515 517.164 361.99C517.164 363.464 517.417 364.84 517.923 366.116C518.451 367.393 519.178 368.504 520.102 369.45C521.026 370.397 522.104 371.145 523.337 371.695C524.591 372.223 525.934 372.487 527.364 372.487Z" fill="#FFF3F0"/>
<path d="M497.834 373.907C496.205 373.907 494.675 373.61 493.245 373.015C491.836 372.399 490.593 371.552 489.515 370.474C488.436 369.373 487.589 368.108 486.973 366.677C486.379 365.225 486.082 363.662 486.082 361.99C486.082 360.317 486.379 358.766 486.973 357.335C487.589 355.883 488.436 354.617 489.515 353.539C490.593 352.439 491.836 351.591 493.245 350.997C494.675 350.381 496.205 350.073 497.834 350.073C499.462 350.073 500.981 350.381 502.389 350.997C503.82 351.591 505.074 352.439 506.152 353.539C507.231 354.617 508.067 355.883 508.661 357.335C509.277 358.766 509.585 360.317 509.585 361.99C509.585 363.662 509.277 365.225 508.661 366.677C508.067 368.108 507.231 369.373 506.152 370.474C505.074 371.552 503.82 372.399 502.389 373.015C500.981 373.61 499.462 373.907 497.834 373.907ZM497.834 372.487C499.264 372.487 500.595 372.223 501.828 371.695C503.082 371.145 504.172 370.397 505.096 369.45C506.02 368.504 506.735 367.393 507.242 366.116C507.77 364.84 508.034 363.464 508.034 361.99C508.034 360.515 507.77 359.14 507.242 357.863C506.735 356.587 506.02 355.476 505.096 354.529C504.172 353.583 503.082 352.846 501.828 352.318C500.595 351.767 499.264 351.492 497.834 351.492C496.403 351.492 495.061 351.767 493.806 352.318C492.574 352.846 491.495 353.583 490.571 354.529C489.647 355.476 488.921 356.587 488.392 357.863C487.886 359.14 487.633 360.515 487.633 361.99C487.633 363.464 487.886 364.84 488.392 366.116C488.921 367.393 489.647 368.504 490.571 369.45C491.495 370.397 492.574 371.145 493.806 371.695C495.061 372.223 496.403 372.487 497.834 372.487Z" fill="#FFF3F0"/>
<path d="M463.605 373.544V350.436H472.915C474.477 350.436 475.798 350.722 476.876 351.294C477.976 351.844 478.802 352.604 479.352 353.572C479.924 354.518 480.21 355.608 480.21 356.84C480.21 358.336 479.781 359.646 478.923 360.768C478.064 361.891 476.821 362.639 475.192 363.013L480.309 373.544H478.659L473.674 363.244H465.124V373.544H463.605ZM465.124 361.825H472.816C474.708 361.825 476.15 361.351 477.14 360.405C478.152 359.437 478.659 358.248 478.659 356.84C478.659 355.409 478.152 354.221 477.14 353.275C476.15 352.328 474.708 351.855 472.816 351.855H465.124V361.825Z" fill="#FFF3F0"/>
<path d="M437.492 373.544V350.436H439.01V361.197H453.733V350.436H455.252V373.544H453.733V362.617H439.01V373.544H437.492Z" fill="#FFF3F0"/>
<path d="M421.231 373.544V351.855H412.648V350.436H431.333V351.855H422.75V373.544H421.231Z" fill="#FFF3F0"/>
<path d="M392.621 373.544L402.26 350.436H404.141L413.748 373.544H412.097L408.895 365.72H397.44L394.205 373.544H392.621ZM398.001 364.366H408.334L403.184 351.855L398.001 364.366Z" fill="#FFF3F0"/>
<path d="M371.562 373.544V350.436H380.244C381.74 350.436 383.017 350.678 384.073 351.162C385.13 351.624 385.933 352.284 386.483 353.143C387.033 354.001 387.308 355.013 387.308 356.18C387.308 357.456 386.945 358.557 386.219 359.481C385.515 360.405 384.513 361.054 383.215 361.428C384.843 361.781 386.098 362.452 386.978 363.442C387.881 364.433 388.332 365.676 388.332 367.172C388.332 368.427 388.024 369.538 387.407 370.507C386.791 371.453 385.911 372.201 384.766 372.751C383.622 373.279 382.236 373.544 380.607 373.544H371.562ZM373.081 360.768H380.211C381.95 360.768 383.314 360.361 384.304 359.547C385.317 358.711 385.823 357.632 385.823 356.312C385.823 354.991 385.317 353.924 384.304 353.11C383.314 352.273 381.95 351.855 380.211 351.855H373.081V360.768ZM373.081 372.124H380.475C382.412 372.124 383.941 371.662 385.064 370.738C386.208 369.813 386.78 368.614 386.78 367.139C386.78 365.665 386.208 364.477 385.064 363.574C383.941 362.65 382.412 362.188 380.475 362.188H373.081V372.124Z" fill="#FFF3F0"/>
<path d="M342.998 373.907C341.479 373.907 340.159 373.632 339.036 373.082C337.936 372.531 337.078 371.772 336.462 370.804C335.867 369.814 335.57 368.669 335.57 367.371C335.57 366.468 335.735 365.643 336.065 364.895C336.396 364.125 336.957 363.398 337.749 362.716C338.541 362.012 339.609 361.308 340.951 360.603C340.181 359.591 339.631 358.689 339.301 357.897C338.97 357.082 338.805 356.235 338.805 355.355C338.805 354.386 339.025 353.506 339.466 352.714C339.906 351.899 340.511 351.261 341.281 350.799C342.074 350.315 342.976 350.073 343.988 350.073C344.978 350.073 345.826 350.271 346.53 350.667C347.234 351.063 347.773 351.602 348.148 352.285C348.522 352.945 348.709 353.704 348.709 354.562C348.709 355.707 348.39 356.708 347.751 357.566C347.113 358.425 346.134 359.239 344.813 360.009L343.196 360.967C344.164 362.067 345.276 363.244 346.53 364.499C347.784 365.753 349.05 366.964 350.326 368.13C350.898 367.206 351.394 366.182 351.812 365.06C352.23 363.916 352.538 362.705 352.736 361.429L354.255 361.693C353.991 363.189 353.605 364.554 353.099 365.786C352.615 367.019 352.054 368.13 351.416 369.12C352.142 369.736 352.868 370.353 353.594 370.969C354.343 371.585 355.091 372.179 355.839 372.752L354.915 373.841C354.189 373.291 353.451 372.719 352.703 372.124C351.977 371.508 351.262 370.892 350.557 370.276C349.589 371.464 348.456 372.366 347.157 372.983C345.881 373.599 344.494 373.907 342.998 373.907ZM342.305 359.976L344.417 358.755C345.408 358.183 346.123 357.544 346.563 356.84C347.003 356.136 347.223 355.388 347.223 354.595C347.223 353.737 346.915 353 346.299 352.384C345.683 351.767 344.89 351.459 343.922 351.459C342.844 351.459 341.963 351.833 341.281 352.582C340.621 353.308 340.291 354.221 340.291 355.322C340.291 356.136 340.445 356.895 340.753 357.599C341.061 358.304 341.578 359.096 342.305 359.976ZM342.998 372.52C344.296 372.52 345.496 372.245 346.596 371.695C347.718 371.123 348.676 370.331 349.468 369.318C347.971 367.954 346.552 366.6 345.21 365.258C343.889 363.916 342.778 362.727 341.875 361.693C340.555 362.375 339.543 363.024 338.838 363.64C338.156 364.235 337.694 364.84 337.452 365.456C337.21 366.05 337.089 366.699 337.089 367.404C337.089 368.944 337.639 370.188 338.739 371.134C339.84 372.058 341.259 372.52 342.998 372.52Z" fill="#FFF3F0"/>
<defs>
<radialGradient id="paint0_radial_849_3222" cx="0" cy="0" r="1" gradientUnits="userSpaceOnUse" gradientTransform="translate(482.597 778.699) rotate(-90) scale(566.054 823.309)">
<stop stop-color="#DE0D92"/>
<stop offset="1" stop-color="#282727"/>
</radialGradient>
</defs>
</svg>
