<svg width="966" height="664" viewBox="0 0 966 664" fill="none" xmlns="http://www.w3.org/2000/svg">
<rect width="965.194" height="663.605" fill="url(#paint0_radial_974_908)"/>
<g clip-path="url(#clip0_974_908)">
<mask id="mask0_974_908" style="mask-type:alpha" maskUnits="userSpaceOnUse" x="345" y="96" width="275" height="275">
<ellipse cx="482.235" cy="233.926" rx="137.235" ry="136.948" fill="white"/>
</mask>
<g mask="url(#mask0_974_908)">
<path fill-rule="evenodd" clip-rule="evenodd" d="M498.367 196.059C498.775 192.499 498.367 189.142 497.144 185.378C495.411 180.088 493.576 176.731 493.576 178.969C493.576 179.478 490.722 182.936 487.154 186.598C483.586 190.261 479.916 194.94 478.999 196.873C477.674 199.619 476.145 200.84 472.475 202.264C458.407 207.452 444.747 219.558 437.816 232.884C430.068 247.837 427.316 261.57 427.316 286.697C427.316 301.447 426.093 308.262 420.792 324.64L417.224 335.728L417.836 361.058L418.345 386.388L425.481 407.954C431.903 427.79 433.534 431.147 435.675 429.113C435.981 428.807 433.126 419.042 429.355 407.445L422.525 386.388L421.913 360.855C421.205 335.501 421.3 335.222 423.797 327.949L423.85 327.794C429.864 309.992 430.578 306.024 431.393 282.628C432.413 257.4 433.942 249.16 440.16 236.546C446.888 222.915 462.689 209.08 475.431 205.723C479.611 204.604 480.426 203.994 481.751 200.23C482.669 197.992 485.625 193.821 488.377 191.176L493.474 186.192L494.188 188.938C494.799 191.685 494.392 196.974 493.067 201.45C492.455 203.383 492.965 203.79 496.736 204.909C499.285 205.723 503.057 208.164 505.911 210.911C511.11 215.895 538.429 257.196 538.429 260.146C538.429 264.826 532.823 270.827 527.318 272.252C523.954 273.065 522.119 271.438 522.119 267.47C522.119 258.722 521.202 256.993 513.352 250.584C506.421 244.786 503.668 243.768 503.872 246.82C503.872 247.532 506.828 250.482 510.396 253.432C515.697 257.908 517.124 259.638 517.532 262.588C517.838 264.723 518.347 267.773 518.653 269.604L518.653 269.607C519.367 274.083 521.508 276.015 525.891 276.015C533.434 276.015 540.468 269.708 541.997 261.672C542.116 261.063 542.222 260.552 542.259 260.036C542.477 257.016 540.339 253.826 524.668 229.934C511.314 209.588 508.663 206.333 502.751 203.587L497.756 201.247L498.367 196.059ZM514.372 207.859C517.022 207.859 519.571 200.738 519.469 193.618C519.469 189.955 518.755 185.581 517.94 183.75L516.512 180.495L509.683 188.124C505.809 192.295 502.751 196.364 502.751 197.178C502.751 200.331 504.79 199.416 509.581 194.126C512.435 191.074 514.983 188.836 515.391 189.243C516.512 190.464 516.003 197.687 514.474 201.45C512.537 205.926 512.537 207.859 514.372 207.859ZM489.499 200.23C490.62 197.585 491.537 194.838 491.537 194.024C491.537 190.464 488.377 193.211 485.931 198.907C484.606 202.163 484.606 202.773 485.931 203.79C487.154 204.807 487.766 204.197 489.499 200.23ZM507.95 201.349C509.275 202.162 512.129 198.907 511.314 197.585C510.396 196.059 508.969 196.568 507.848 198.602C507.134 200.026 507.134 200.84 507.95 201.349ZM511.925 226.984C505.095 215.794 503.26 213.861 497.144 210.911C492.251 208.571 489.499 208.368 489.499 210.402C489.499 211.216 491.741 212.844 494.494 214.064C500.61 216.608 502.037 218.133 509.275 229.934C512.537 235.122 515.493 239.394 516.003 239.394C518.653 239.394 517.634 236.241 511.925 226.984ZM475.941 219.863C477.878 217.828 479.203 215.692 478.897 215.082C477.674 213.149 476.043 213.861 472.067 218.133C462.893 228.103 462.791 242.344 471.863 255.365C479.407 266.25 479.611 266.758 480.426 276.117C480.936 281.203 481.547 285.679 481.853 286.29C484.504 290.562 485.421 274.591 482.975 266.453C482.159 263.808 479.712 259.231 477.368 256.382C466.766 242.649 466.257 229.832 475.941 219.863ZM462.587 222.101C464.524 220.88 466.053 219.252 466.053 218.439C466.053 215.387 461.771 217.32 455.349 223.321C450.15 228.103 447.704 231.358 444.645 237.766C438.937 249.872 437.408 258.01 436.49 282.628C435.675 302.973 435.471 304.702 431.597 319.554C428.233 332.473 427.724 335.22 428.947 335.728C429.762 336.034 430.68 336.034 430.986 335.83C431.19 335.525 433.534 327.387 435.981 317.621C440.364 300.531 440.568 299.412 440.568 284.459C440.568 266.453 441.893 255.772 445.155 246.413C448.825 235.834 455.553 226.373 462.587 222.101ZM480.834 229.525C481.14 227.186 481.445 224.847 481.445 224.44C481.445 223.932 480.732 223.525 479.916 223.321C478.897 223.118 478.081 224.644 477.266 228.509C475.533 236.037 477.776 243.87 483.28 249.567L487.256 253.737L489.703 292.8L496.125 305.007C501.12 314.366 503.974 318.537 508.561 322.809C515.289 329.116 518.449 334.813 520.284 343.358C521.202 347.935 521.915 349.258 523.342 349.258C525.585 349.258 525.585 348.241 523.648 340.815C521.304 331.863 518.449 326.878 511.925 320.775C504.484 313.654 494.901 296.666 493.576 288.222C492.455 280.796 491.232 255.67 491.945 255.67C492.353 255.67 497.042 257.705 502.445 260.248C509.173 263.401 512.639 264.52 513.352 263.808C514.983 262.181 512.435 260.451 500.406 255.06C484.504 248.041 479.101 241.022 480.834 229.527L480.834 229.525ZM541.895 328.201C538.429 322.606 530.682 315.485 524.872 312.535C521.711 310.907 516.92 309.28 514.372 308.873C510.192 308.364 509.683 308.466 509.988 310.093C510.294 311.314 512.129 312.331 516.003 313.349C527.318 316.197 537.002 325.149 541.59 336.746C543.424 341.527 543.832 344.68 543.832 353.327C543.832 365.127 542.201 373.062 537.41 383.539C534.862 389.134 534.658 390.152 535.983 390.66C537.92 391.372 538.531 390.457 542.507 381.2C546.381 371.841 549.031 356.887 548.216 348.648C547.502 341.832 544.75 332.778 541.895 328.201ZM465.645 342.137C480.222 337.458 488.785 327.692 489.703 314.671C489.906 312.128 489.601 311.111 488.377 310.806C487.154 310.602 486.542 311.619 486.033 314.875C484.096 326.573 477.164 334.202 464.32 338.475C451.475 342.747 444.238 350.173 441.078 362.177C439.956 366.551 439.549 374.181 439.549 393.61C439.549 407.648 439.854 421.992 440.16 425.45L440.874 431.656H462.791L474.106 409.988L485.421 388.422L485.217 381.81C485.013 376.724 484.606 375.198 483.382 375.198C482.261 375.198 481.751 376.927 481.344 382.319C480.834 388.931 480.018 390.762 470.64 408.564L460.446 427.688L444.136 427.078V362.889L447.194 356.887C450.966 349.461 456.47 345.189 465.645 342.137Z" fill="white"/>
</g>
<path d="M596.799 261.774C596.799 324.701 545.679 375.715 482.618 375.715C419.556 375.715 368.436 324.701 368.436 261.774C368.436 198.847 419.556 147.832 482.618 147.832C545.679 147.832 596.799 198.847 596.799 261.774Z" stroke="white"/>
</g>
<path d="M124.064 478L142.56 433.2H150.496L168.8 478H161.504L156.32 464.88H136.288L131.04 478H124.064ZM138.464 459.312H154.144L146.336 439.6L138.464 459.312ZM178.444 478V439.152H162.7V433.2H200.909V439.152H185.165V478H178.444ZM225.645 478.704C222.402 478.704 219.373 478.128 216.557 476.976C213.741 475.781 211.245 474.139 209.069 472.048C206.936 469.915 205.272 467.461 204.077 464.688C202.925 461.872 202.349 458.843 202.349 455.6C202.349 452.357 202.925 449.349 204.077 446.576C205.272 443.76 206.936 441.307 209.069 439.216C211.245 437.083 213.741 435.44 216.557 434.288C219.373 433.093 222.402 432.496 225.645 432.496C228.888 432.496 231.917 433.093 234.733 434.288C237.592 435.44 240.088 437.083 242.221 439.216C244.354 441.307 246.018 443.76 247.213 446.576C248.408 449.349 249.005 452.357 249.005 455.6C249.005 458.843 248.408 461.872 247.213 464.688C246.018 467.461 244.354 469.915 242.221 472.048C240.088 474.139 237.592 475.781 234.733 476.976C231.917 478.128 228.888 478.704 225.645 478.704ZM225.709 472.496C228.013 472.496 230.146 472.069 232.109 471.216C234.114 470.363 235.864 469.189 237.357 467.696C238.85 466.16 240.024 464.368 240.877 462.32C241.73 460.229 242.157 457.989 242.157 455.6C242.157 453.168 241.73 450.928 240.877 448.88C240.024 446.832 238.85 445.061 237.357 443.568C235.864 442.032 234.114 440.837 232.109 439.984C230.146 439.131 228.013 438.704 225.709 438.704C223.362 438.704 221.186 439.131 219.181 439.984C217.176 440.837 215.426 442.032 213.933 443.568C212.44 445.061 211.266 446.832 210.413 448.88C209.602 450.928 209.197 453.168 209.197 455.6C209.197 457.989 209.602 460.229 210.413 462.32C211.266 464.368 212.44 466.16 213.933 467.696C215.426 469.189 217.176 470.363 219.181 471.216C221.186 472.069 223.362 472.496 225.709 472.496ZM256.881 478V433.2H265.905L279.921 461.872L293.937 433.2H302.897V478H296.561V441.392L279.857 474.8L263.153 441.392V478H256.881ZM312.806 478V433.2H319.526V478H312.806ZM351.05 478.704C347.722 478.704 344.628 478.128 341.77 476.976C338.954 475.781 336.458 474.139 334.282 472.048C332.148 469.915 330.484 467.461 329.29 464.688C328.138 461.872 327.562 458.843 327.562 455.6C327.562 452.357 328.138 449.349 329.29 446.576C330.484 443.76 332.148 441.307 334.282 439.216C336.458 437.083 338.975 435.44 341.833 434.288C344.692 433.093 347.764 432.496 351.05 432.496C353.396 432.496 355.679 432.816 357.898 433.456C360.159 434.053 362.228 434.928 364.106 436.08C366.026 437.232 367.69 438.619 369.098 440.24L364.618 444.848C362.954 442.843 360.927 441.328 358.538 440.304C356.148 439.237 353.652 438.704 351.05 438.704C348.66 438.704 346.442 439.131 344.394 439.984C342.388 440.837 340.639 442.032 339.146 443.568C337.652 445.061 336.479 446.832 335.626 448.88C334.815 450.928 334.41 453.168 334.41 455.6C334.41 457.989 334.815 460.208 335.626 462.256C336.479 464.304 337.674 466.096 339.21 467.632C340.746 469.168 342.538 470.363 344.586 471.216C346.634 472.069 348.852 472.496 351.242 472.496C353.844 472.496 356.298 471.984 358.602 470.96C360.948 469.893 362.932 468.4 364.554 466.48L368.97 470.96C367.476 472.539 365.77 473.925 363.85 475.12C361.972 476.272 359.924 477.168 357.706 477.808C355.53 478.405 353.311 478.704 351.05 478.704ZM377.112 478V433.2H380.056V454.064H408.6V433.2H411.544V478H408.6V456.816H380.056V478H377.112ZM443.519 478.704C440.361 478.704 437.396 478.128 434.623 476.976C431.892 475.781 429.481 474.139 427.391 472.048C425.3 469.915 423.657 467.461 422.463 464.688C421.311 461.872 420.735 458.843 420.735 455.6C420.735 452.357 421.311 449.349 422.463 446.576C423.657 443.76 425.3 441.307 427.391 439.216C429.481 437.083 431.892 435.44 434.623 434.288C437.396 433.093 440.361 432.496 443.519 432.496C446.676 432.496 449.62 433.093 452.351 434.288C455.124 435.44 457.556 437.083 459.647 439.216C461.737 441.307 463.359 443.76 464.511 446.576C465.705 449.349 466.303 452.357 466.303 455.6C466.303 458.843 465.705 461.872 464.511 464.688C463.359 467.461 461.737 469.915 459.647 472.048C457.556 474.139 455.124 475.781 452.351 476.976C449.62 478.128 446.676 478.704 443.519 478.704ZM443.519 475.952C446.292 475.952 448.873 475.44 451.263 474.416C453.695 473.349 455.807 471.899 457.599 470.064C459.391 468.229 460.777 466.075 461.759 463.6C462.783 461.125 463.295 458.459 463.295 455.6C463.295 452.741 462.783 450.075 461.759 447.6C460.777 445.125 459.391 442.971 457.599 441.136C455.807 439.301 453.695 437.872 451.263 436.848C448.873 435.781 446.292 435.248 443.519 435.248C440.745 435.248 438.143 435.781 435.711 436.848C433.321 437.872 431.231 439.301 429.439 441.136C427.647 442.971 426.239 445.125 425.215 447.6C424.233 450.075 423.743 452.741 423.743 455.6C423.743 458.459 424.233 461.125 425.215 463.6C426.239 466.075 427.647 468.229 429.439 470.064C431.231 471.899 433.321 473.349 435.711 474.416C438.143 475.44 440.745 475.952 443.519 475.952ZM475.462 478V433.2H493.51C496.539 433.2 499.099 433.755 501.19 434.864C503.323 435.931 504.923 437.403 505.99 439.28C507.099 441.115 507.654 443.227 507.654 445.616C507.654 448.517 506.822 451.056 505.158 453.232C503.494 455.408 501.083 456.859 497.926 457.584L507.846 478H504.646L494.982 458.032H478.406V478H475.462ZM478.406 455.28H493.318C496.987 455.28 499.782 454.363 501.702 452.528C503.665 450.651 504.646 448.347 504.646 445.616C504.646 442.843 503.665 440.539 501.702 438.704C499.782 436.869 496.987 435.952 493.318 435.952H478.406V455.28ZM530.4 478.704C526.816 478.704 523.467 477.979 520.352 476.528C517.237 475.035 514.507 472.901 512.16 470.128L514.464 468.208C516.597 470.725 519.008 472.645 521.696 473.968C524.427 475.291 527.328 475.952 530.4 475.952C532.96 475.952 535.243 475.504 537.248 474.608C539.253 473.712 540.832 472.496 541.984 470.96C543.136 469.381 543.712 467.611 543.712 465.648C543.712 463.045 542.816 461.061 541.024 459.696C539.275 458.288 536.309 457.243 532.128 456.56L526.688 455.664C522.208 454.939 518.923 453.68 516.832 451.888C514.741 450.096 513.696 447.643 513.696 444.528C513.696 442.139 514.315 440.048 515.552 438.256C516.832 436.464 518.603 435.056 520.864 434.032C523.125 433.008 525.707 432.496 528.608 432.496C531.552 432.496 534.496 433.008 537.44 434.032C540.384 435.013 543.179 436.485 545.824 438.448L544.032 440.88C538.997 437.125 533.856 435.248 528.608 435.248C526.304 435.248 524.256 435.632 522.464 436.4C520.672 437.168 519.264 438.256 518.24 439.664C517.216 441.029 516.704 442.608 516.704 444.4C516.704 446.747 517.493 448.581 519.072 449.904C520.651 451.184 523.296 452.123 527.008 452.72L532.448 453.616C537.525 454.427 541.173 455.792 543.392 457.712C545.611 459.589 546.72 462.299 546.72 465.84C546.72 468.315 546.016 470.533 544.608 472.496C543.2 474.416 541.259 475.931 538.784 477.04C536.352 478.149 533.557 478.704 530.4 478.704ZM554.812 478V433.2H585.788V435.952H557.756V454H576.06V456.752H557.756V475.248H586.044V478H554.812ZM611.981 475.248H623.117C625.976 475.248 628.621 474.757 631.053 473.776C633.528 472.795 635.661 471.429 637.453 469.68C639.288 467.888 640.717 465.797 641.741 463.408C642.765 461.019 643.277 458.416 643.277 455.6C643.277 452.784 642.765 450.181 641.741 447.792C640.717 445.403 639.288 443.333 637.453 441.584C635.661 439.792 633.528 438.405 631.053 437.424C628.621 436.443 625.976 435.952 623.117 435.952H611.981V475.248ZM609.037 478V433.2H622.733C626.274 433.2 629.474 433.776 632.333 434.928C635.234 436.037 637.73 437.595 639.821 439.6C641.912 441.605 643.512 443.973 644.621 446.704C645.73 449.435 646.285 452.4 646.285 455.6C646.285 458.8 645.73 461.765 644.621 464.496C643.512 467.227 641.912 469.595 639.821 471.6C637.73 473.605 635.234 475.184 632.333 476.336C629.474 477.445 626.274 478 622.733 478H609.037ZM655.462 478V433.2H658.406V478H655.462ZM690.497 478.704C687.254 478.704 684.246 478.107 681.473 476.912C678.699 475.717 676.267 474.075 674.177 471.984C672.086 469.851 670.465 467.397 669.313 464.624C668.161 461.808 667.585 458.8 667.585 455.6C667.585 452.4 668.161 449.413 669.313 446.64C670.507 443.824 672.129 441.371 674.177 439.28C676.267 437.147 678.699 435.483 681.473 434.288C684.289 433.093 687.318 432.496 690.561 432.496C693.889 432.496 697.025 433.093 699.969 434.288C702.955 435.44 705.579 437.147 707.841 439.408L705.921 441.648C704.086 439.643 701.782 438.085 699.009 436.976C696.278 435.824 693.462 435.248 690.561 435.248C687.702 435.248 685.057 435.781 682.625 436.848C680.235 437.872 678.123 439.323 676.289 441.2C674.497 443.035 673.089 445.189 672.065 447.664C671.083 450.096 670.593 452.741 670.593 455.6C670.593 458.459 671.083 461.125 672.065 463.6C673.089 466.032 674.497 468.187 676.289 470.064C678.081 471.899 680.171 473.349 682.561 474.416C684.993 475.44 687.638 475.952 690.497 475.952C693.953 475.952 697.025 475.184 699.713 473.648C702.443 472.069 704.619 469.936 706.241 467.248C707.905 464.517 708.822 461.467 708.993 458.096H691.777V455.344H711.873V456.944C711.873 459.973 711.318 462.811 710.209 465.456C709.142 468.059 707.627 470.363 705.665 472.368C703.745 474.331 701.483 475.888 698.881 477.04C696.321 478.149 693.526 478.704 690.497 478.704ZM720.937 478V433.2H723.881V478H720.937ZM747.715 478V435.952H731.075V433.2H767.299V435.952H750.659V478H747.715ZM760.424 478L779.112 433.2H782.76L801.384 478H798.184L791.976 462.832H769.768L763.496 478H760.424ZM770.856 460.208H790.888L780.904 435.952L770.856 460.208ZM807.962 478V433.2H810.906V475.248H838.554V478H807.962Z" fill="white"/>
<defs>
<radialGradient id="paint0_radial_974_908" cx="0" cy="0" r="1" gradientUnits="userSpaceOnUse" gradientTransform="translate(482.597 778.699) rotate(-90) scale(566.054 823.309)">
<stop stop-color="#DE0D92"/>
<stop offset="1" stop-color="#282727"/>
</radialGradient>
<clipPath id="clip0_974_908">
<rect width="276" height="280" fill="white" transform="translate(345 113)"/>
</clipPath>
</defs>
</svg>
